<?xml version="1.0" standalone="no"?>
<!DOCTYPE svg PUBLIC "-//W3C//DTD SVG 1.1//EN" "http://www.w3.org/Graphics/SVG/1.1/DTD/svg11.dtd" >
<svg xmlns="http://www.w3.org/2000/svg" xmlns:xlink="http://www.w3.org/1999/xlink" version="1.1">
<metadata>
Created by FontForge 20170731 at Mon Oct  5 11:35:03 2020
 By Aleksey,,,
(c) 1990, 2002 Adobe Systems Incorporated. All rights reserved.
</metadata>
<defs>
<font id="RockwellStd-BoldCondensed" horiz-adv-x="681" >
  <font-face 
    font-family="Rockwell Std Condensed"
    font-weight="700"
    font-stretch="condensed"
    units-per-em="2048"
    panose-1="2 6 8 6 5 4 5 2 1 4"
    ascent="1391"
    descent="-657"
    x-height="1004"
    cap-height="1438"
    bbox="-254 -459.439 2060 1927"
    underline-thickness="102"
    underline-position="-307"
    unicode-range="U+0020-FB02"
  />
<missing-glyph horiz-adv-x="1024" 
d="M0 0v1434h1024v-1434h-1024zM512 809l348 522h-696zM573 717l349 -522v1044zM164 102h696l-348 523zM102 1239v-1044l349 522z" />
    <glyph glyph-name="f_i" unicode="fi" horiz-adv-x="1087" 
d="M41 0v215h100v573h-100v216h100v65q0 184 114.5 287.5t291.5 103.5q270 0 379 -264l-299 -96q-3 79 -24 112t-68 33q-51 0 -73 -38.5t-22 -129.5v-73h486v-789h106v-215h-446v215h41v573h-187v-573h43v-215h-442z" />
    <glyph glyph-name="f_l" unicode="fl" horiz-adv-x="1067" 
d="M39 0v215h100v573h-100v216h100v63q0 92 34 168t90.5 124.5t128.5 74.5t151 26q70 0 143 -22h238v-1223h104v-215h-446v215h43v573h-187v-573h43v-215h-442zM438 1004h187v73q0 91 -21.5 129.5t-68.5 38.5q-50 0 -73.5 -38.5t-23.5 -129.5v-73z" />
    <glyph glyph-name=".notdef" horiz-adv-x="1024" 
d="M0 0v1434h1024v-1434h-1024zM512 809l348 522h-696zM573 717l349 -522v1044zM164 102h696l-348 523zM102 1239v-1044l349 522z" />
    <glyph glyph-name=".null" horiz-adv-x="0" 
 />
    <glyph glyph-name="nonmarkingreturn" horiz-adv-x="682" 
 />
    <glyph glyph-name="space" unicode=" " 
 />
    <glyph glyph-name="exclam" unicode="!" horiz-adv-x="598" 
d="M139 0v319h320v-319h-320zM238 481l-91 545v412h306v-412l-91 -545h-124z" />
    <glyph glyph-name="quotedbl" unicode="&#x22;" horiz-adv-x="970" 
d="M98 1438h289v-258l-94 -326h-100l-95 326v258zM584 1438h288v-258l-94 -326h-100l-94 326v258z" />
    <glyph glyph-name="numbersign" unicode="#" horiz-adv-x="1368" 
d="M248 373h-168v190h207l63 301h-270v191h311l80 383h191l-80 -383h352l80 383h190l-80 -383h166v-191h-207l-63 -301h270v-190h-309l-80 -379h-190l80 379h-353l-80 -379h-190zM541 864l-64 -301h352l64 301h-352z" />
    <glyph glyph-name="dollar" unicode="$" horiz-adv-x="960" 
d="M442 -193v173q-185 12 -280 128t-101 308h256q5 -114 35 -169.5t90 -58.5v418q-185 139 -261.5 246.5t-76.5 232.5q0 143 91.5 236.5t246.5 108.5v38h109v-38q142 -13 231 -103.5t99 -275.5h-230q-3 74 -26 114.5t-74 59.5v-351q122 -95 195 -173t114 -166t41 -187
q0 -152 -96.5 -254t-253.5 -114v-173h-109zM551 508v-320q44 8 72 43t28 84q0 104 -100 193zM442 965v260q-88 -24 -88 -105q0 -45 19.5 -79.5t68.5 -75.5z" />
    <glyph glyph-name="percent" unicode="%" horiz-adv-x="1236" 
d="M1022 262v236q0 84 -8 107.5t-33 23.5t-34 -24t-9 -109v-232q0 -84 8 -107.5t33 -23.5q27 0 35 22.5t8 106.5zM258 -16l567 1470h154l-567 -1470h-154zM301 938v236q0 84 -8 107.5t-33 23.5t-34 -24.5t-9 -109.5v-231q0 -84 8 -107.5t33 -23.5q27 0 35 22.5t8 106.5z
M750 381q0 196 51.5 296.5t179.5 100.5q119 0 174 -95t55 -302q0 -200 -53.5 -298.5t-175.5 -98.5q-79 0 -128.5 36.5t-76 125t-26.5 235.5zM29 1057q0 196 51.5 296.5t179.5 100.5q119 0 174 -95t55 -302q0 -200 -53.5 -299t-175.5 -99q-79 0 -128.5 36.5t-76 125.5
t-26.5 236z" />
    <glyph glyph-name="ampersand" unicode="&#x26;" horiz-adv-x="1216" 
d="M823 0l-59 102q-80 -66 -151.5 -95.5t-153.5 -29.5q-181 0 -293 125q-113 122 -113 318q0 128 60 236.5t190 213.5q-78 147 -78 273q0 132 100.5 224.5t243.5 92.5q138 0 229 -82t91 -207q0 -182 -223 -337l157 -261q58 147 82 316h244v-215h-64q-9 -55 -50 -161
t-77 -167l78 -131h113v-215h-326zM643 307l-217 367q-46 -40 -63 -74t-17 -78q0 -61 22 -126.5t65.5 -114t94.5 -48.5q68 0 115 74zM545 1036q108 69 108 156q0 35 -23 60.5t-55 25.5q-37 0 -62.5 -25.5t-25.5 -62.5q0 -75 58 -154z" />
    <glyph glyph-name="quotesingle" unicode="'" horiz-adv-x="487" 
d="M100 1438h289v-258l-94 -326h-100l-95 326v258z" />
    <glyph glyph-name="parenleft" unicode="(" horiz-adv-x="575" 
d="M522 1456v-192q-75 -79 -105 -260.5t-30 -501.5q0 -327 30.5 -507.5t104.5 -254.5v-195q-119 59 -207.5 163.5t-139 234.5t-75 269.5t-24.5 289.5q0 344 120 600t326 354z" />
    <glyph glyph-name="parenright" unicode=")" horiz-adv-x="575" 
d="M53 -455v193q75 79 105 260.5t30 501.5q0 327 -30.5 507.5t-104.5 254.5v194q119 -59 207.5 -163t139.5 -234t75.5 -269.5t24.5 -289.5q0 -343 -120.5 -600t-326.5 -355z" />
    <glyph glyph-name="asterisk" unicode="*" horiz-adv-x="1067" 
d="M377 563l-201 144l98 133q55 15 91.5 40t95.5 89q-59 20 -113 20q-64 0 -117 -20l-155 51l76 227l157 -53q31 -44 71 -74.5t112 -64.5q-9 128 -78 215v168h237v-168q-67 -88 -76 -215q70 32 111 63.5t72 75.5l157 53l76 -227l-155 -51q-53 20 -117 20q-54 0 -113 -20
q59 -64 95.5 -89t91.5 -40l98 -133l-201 -144l-94 133q0 123 -64 215q-31 -46 -49 -104t-12 -111z" />
    <glyph glyph-name="plus" unicode="+" horiz-adv-x="1366" 
d="M127 784h448v449h216v-449h448v-215h-448v-448h-216v448h-448v215z" />
    <glyph glyph-name="comma" unicode="," horiz-adv-x="598" 
d="M139 -383v160q80 9 117 62t37 161h-154v319h320v-309q0 -186 -81.5 -285.5t-238.5 -107.5z" />
    <glyph glyph-name="hyphen" unicode="-" 
d="M78 385v242h528v-242h-528z" />
    <glyph glyph-name="period" unicode="." horiz-adv-x="598" 
d="M139 0v319h320v-319h-320z" />
    <glyph glyph-name="slash" unicode="/" horiz-adv-x="1193" 
d="M850 1438h233l-741 -1467h-231z" />
    <glyph glyph-name="zero" unicode="0" horiz-adv-x="874" 
d="M70 711q0 98 3.5 174t13.5 156t26.5 139t44.5 113t66 88t92 53.5t122 19.5q194 0 281.5 -176.5t87.5 -566.5q0 -140 -9.5 -247.5t-34.5 -203t-66 -157t-107 -97t-154 -35.5q-72 0 -129.5 25.5t-95.5 65t-65 102.5t-41.5 122t-22.5 141.5t-10 142t-2 141.5zM344 985v-563
q0 -123 21.5 -179.5t72.5 -56.5q56 0 75 72t19 244v377q0 218 -17.5 289t-76.5 71q-52 0 -73 -56.5t-21 -197.5z" />
    <glyph glyph-name="one" unicode="1" horiz-adv-x="874" 
d="M172 0v215h115v889q-54 -22 -115 -31v209q91 20 159 59.5t138 112.5h117v-1239h112v-215h-526z" />
    <glyph glyph-name="two" unicode="2" horiz-adv-x="874" 
d="M793 0h-742q-1 136 22 247.5t61 186.5t84 138.5t92 117.5t84.5 108.5t62.5 126t24 156.5q0 164 -90 164q-98 0 -98 -174q0 -51 6 -98l-250 14q-2 12 -2 70q0 181 98.5 289t264.5 108q168 0 272 -105.5t104 -283.5q0 -90 -27 -169t-71 -137.5t-96.5 -111.5t-105.5 -102
t-96.5 -99t-71.5 -113.5t-29 -133.5h289v219h215v-418z" />
    <glyph glyph-name="three" unicode="3" horiz-adv-x="874" 
d="M53 414l252 22q-6 -149 16 -206.5t76 -57.5q57 0 78 57t21 197q0 135 -32.5 185.5t-111.5 45.5v215q82 -6 111 34t29 155q0 103 -21.5 147.5t-71.5 44.5q-52 0 -72 -48.5t-22 -172.5l-235 27q9 193 99 294t253 101q49 0 95 -9t96 -35.5t86 -67.5t59.5 -111t23.5 -160
q0 -114 -39 -184t-129 -117q187 -108 187 -373q0 -195 -100.5 -310.5t-270.5 -115.5q-198 0 -289 112t-88 331z" />
    <glyph glyph-name="four" unicode="4" horiz-adv-x="874" 
d="M346 0v215h103v195h-361q-9 77 -43 159l418 885h254v-870h84v-174h-84v-195h84v-215h-455zM449 584q0 351 20 501h-27q-76 -263 -198 -501h205z" />
    <glyph glyph-name="five" unicode="5" horiz-adv-x="874" 
d="M49 356l244 29q3 -110 26 -160.5t70 -50.5q35 0 54 23t29.5 88.5t10.5 189.5q0 154 -18 204t-74 50q-81 0 -90 -125l-199 111l35 723h582v-287h-187l-4 88h-200l-17 -365q86 80 191 80q140 0 213 -117.5t73 -342.5q0 -258 -97.5 -390.5t-289.5 -132.5q-164 0 -250.5 95
t-101.5 290z" />
    <glyph glyph-name="six" unicode="6" horiz-adv-x="874" 
d="M786 1106l-270 -21q-3 91 -20.5 129.5t-57.5 38.5q-43 0 -60.5 -46t-17.5 -154v-203q65 49 146 49q145 0 225 -114.5t80 -323.5q0 -236 -95 -363t-274 -127q-76 0 -134 22.5t-97 56t-66.5 96t-42 118.5t-22 149.5t-9 163t-1.5 183.5q0 137 8.5 237.5t32.5 190.5t64.5 146
t106.5 88t156 32q150 0 243.5 -94t104.5 -254zM360 649v-309q0 -98 17 -134t61 -36q31 0 47.5 19.5t24.5 74t8 158.5q0 114 -9.5 173t-26 78t-48.5 19q-42 0 -74 -43z" />
    <glyph glyph-name="seven" unicode="7" horiz-adv-x="874" 
d="M158 0v215h104q8 271 74 522q61 232 201 500h-295v-193h-193v394h737v-166q-93 -173 -165 -494q-52 -231 -56 -563h111v-215h-518z" />
    <glyph glyph-name="eight" unicode="8" horiz-adv-x="874" 
d="M821 393q0 -55 -8.5 -107t-33.5 -111.5t-65.5 -102.5t-111.5 -72t-164 -29q-83 0 -149 23t-109.5 62t-72.5 93t-41.5 113.5t-12.5 126.5q0 147 51.5 235t169.5 144q-200 90 -200 315q0 166 100.5 268.5t263.5 102.5q161 0 262 -102.5t101 -268.5q0 -225 -203 -315
q118 -56 170.5 -143.5t52.5 -231.5zM434 1266q-57 0 -79.5 -51t-22.5 -175q0 -103 23.5 -146.5t78.5 -43.5q57 0 83 46t26 151q0 119 -24 169t-85 50zM436 684q-56 0 -79 -58.5t-23 -197.5q0 -157 21 -212.5t83 -55.5q57 0 80 58.5t23 209.5q0 137 -24.5 196.5t-80.5 59.5z
" />
    <glyph glyph-name="nine" unicode="9" horiz-adv-x="874" 
d="M86 319l270 21q3 -91 20.5 -129.5t57.5 -38.5q48 0 64 53t16 215v135q-38 -28 -70.5 -38.5t-76.5 -10.5q-145 0 -224.5 115t-79.5 324q0 250 101 369.5t268 119.5q206 0 289.5 -161t83.5 -511v-182q0 -314 -85.5 -471.5t-285.5 -157.5q-149 0 -243.5 94t-104.5 254z
M514 776v299q0 98 -17 139t-61 41q-50 0 -66 -52.5t-16 -198.5q0 -113 9 -171.5t26.5 -79t50.5 -20.5q39 0 74 43z" />
    <glyph glyph-name="colon" unicode=":" horiz-adv-x="598" 
d="M139 684v320h320v-320h-320zM139 0v319h320v-319h-320z" />
    <glyph glyph-name="semicolon" unicode=";" horiz-adv-x="598" 
d="M139 -383v160q80 9 117 62t37 161h-154v319h320v-309q0 -186 -81.5 -285.5t-238.5 -107.5zM139 684v320h320v-320h-320z" />
    <glyph glyph-name="less" unicode="&#x3c;" horiz-adv-x="1366" 
d="M1239 115l-1112 465v192l1112 465v-233l-819 -328l819 -328v-233z" />
    <glyph glyph-name="equal" unicode="=" horiz-adv-x="1366" 
d="M127 1024h1112v-215h-1112v215zM127 547h1112v-215h-1112v215z" />
    <glyph glyph-name="greater" unicode="&#x3e;" horiz-adv-x="1366" 
d="M127 115v233l819 328l-819 328v233l1112 -465v-192z" />
    <glyph glyph-name="question" unicode="?" horiz-adv-x="831" 
d="M330 483l-27 336q39 -10 66 -10q65 0 95 49t30 162q0 132 -22 186t-73 54q-42 0 -62 -34.5t-20 -111.5v-98h-276q-3 212 97 328t268 116q173 0 280 -119.5t107 -312.5q0 -102 -30.5 -189t-97 -144.5t-157.5 -55.5l-10 -156h-168zM258 0v319h320v-319h-320z" />
    <glyph glyph-name="at" unicode="@" horiz-adv-x="1996" 
d="M1397 1034l-127 -792q-6 -37 1 -54.5t32 -17.5q32 0 71 18.5t81 59t76.5 96.5t56.5 139.5t22 178.5q0 255 -154 413t-403 158q-146 0 -270.5 -54t-211 -150t-135.5 -232.5t-49 -296.5q0 -314 179 -507.5t472 -193.5q268 0 504 187h211q-119 -157 -313.5 -245.5
t-401.5 -88.5q-120 0 -234.5 32t-217 100.5t-179.5 165.5t-122 236t-45 303q0 136 30 263.5t94.5 242t158 200t229.5 135.5t299 50q173 0 311 -61t222.5 -163.5t128.5 -229.5t44 -267q0 -134 -37.5 -248t-94.5 -187.5t-128 -126t-136 -75t-120 -22.5q-66 0 -102.5 27
t-53.5 90q-76 -70 -123 -93.5t-114 -23.5q-151 0 -239.5 115.5t-88.5 310.5q0 112 30.5 225t84.5 205.5t137 150.5t178 58q74 0 128.5 -33.5t103.5 -111.5l16 114h199zM729 369q0 -100 41.5 -162t110.5 -62q51 0 93 42t69 105.5t45.5 141.5t26 147.5t7.5 125.5
q0 95 -39.5 148.5t-103.5 53.5q-66 0 -117.5 -58.5t-78.5 -147t-40.5 -174.5t-13.5 -160z" />
    <glyph glyph-name="A" unicode="A" horiz-adv-x="1130" 
d="M10 0v215h96l154 1008h-92v215h795v-215h-97l164 -1008h90v-215h-491v215h90l-35 268h-235l-33 -268h88v-215h-494zM473 662h186l-75 598h-39z" />
    <glyph glyph-name="B" unicode="B" horiz-adv-x="1110" 
d="M47 0v215h103v1008h-103v215h498q70 0 133 -10.5t125 -37.5t106 -68.5t71.5 -108.5t27.5 -152q0 -112 -51 -188.5t-148 -110.5q110 -47 167.5 -134t57.5 -206q0 -200 -134.5 -311t-377.5 -111h-475zM492 637v-422q36 0 58 2t46 8.5t37.5 20t25 36.5t16.5 58t5 84
q0 58 -9 98.5t-23.5 63t-40.5 34.5t-51 15t-64 2zM492 1233v-399q48 0 78 7t53 27t33 58t10 100q0 68 -10.5 110t-34.5 63.5t-53 28t-76 5.5z" />
    <glyph glyph-name="C" unicode="C" horiz-adv-x="1003" 
d="M690 508l262 -78q-22 -207 -132 -330t-275 -123q-75 0 -143 27t-128.5 86t-104.5 146.5t-69.5 216t-25.5 286.5q0 143 22 262.5t59.5 203t88 142t108 86t119.5 27.5q61 0 109.5 -28.5t95.5 -92.5h4v99h229v-486h-229q-18 267 -129 267q-17 0 -30 -4.5t-24 -16.5
t-18 -28.5t-12.5 -46t-9 -62.5t-5.5 -84t-2.5 -105t-0.5 -131q0 -84 1 -144t3.5 -115t6 -92t10 -68t15 -49.5t21 -31t27 -17.5t34.5 -5q57 0 84.5 66.5t38.5 222.5z" />
    <glyph glyph-name="D" unicode="D" horiz-adv-x="1130" 
d="M47 0v215h103v1008h-103v215h498q227 0 366.5 -192.5t139.5 -528.5q0 -155 -31 -284.5t-92.5 -226.5t-159 -151.5t-223.5 -54.5h-498zM492 1223v-1008q55 0 88.5 18t59.5 71.5t37 155t11 265.5q0 134 -10 227t-25.5 146t-42.5 81.5t-53 36t-65 7.5z" />
    <glyph glyph-name="E" unicode="E" horiz-adv-x="1087" 
d="M47 0v215h125v1008h-125v215h971v-457h-256v242h-248v-381h191v-215h-191v-412h248v254h256v-469h-971z" />
    <glyph glyph-name="F" unicode="F" horiz-adv-x="1087" 
d="M51 0v215h125v1008h-125v215h983v-457h-256v242h-260v-381h193v-215h-193v-412h137v-215h-604z" />
    <glyph glyph-name="G" unicode="G" horiz-adv-x="1087" 
d="M698 457h-96v215h436q10 -351 -114.5 -523t-352.5 -172q-108 0 -197.5 44t-157 131.5t-105 230t-37.5 328.5q0 356 108 552.5t303 196.5q68 0 121.5 -31t102.5 -98h4v107h229v-490h-229q-3 143 -43.5 207t-100.5 64q-27 0 -45 -7.5t-32 -29.5t-22 -53t-13 -87
t-6.5 -122.5t-1.5 -167.5q0 -230 11 -341.5t36 -151.5t77 -40q122 0 125 238z" />
    <glyph glyph-name="H" unicode="H" horiz-adv-x="1216" 
d="M47 0v215h109v1008h-109v215h508v-215h-57v-361h217v361h-58v215h510v-215h-110v-1008h110v-215h-510v215h58v432h-217v-432h57v-215h-508z" />
    <glyph glyph-name="I" unicode="I" horiz-adv-x="724" 
d="M49 0v215h139v1008h-139v215h629v-215h-148v-1008h148v-215h-629z" />
    <glyph glyph-name="J" unicode="J" 
d="M8 -438v248q20 -5 37 -5q63 0 94 40.5t31 129.5v1248h-127v215h596v-215h-127v-1260q0 -191 -95 -306.5t-270 -115.5q-71 0 -139 21z" />
    <glyph glyph-name="K" unicode="K" horiz-adv-x="1153" 
d="M47 0v215h105v1008h-105v215h535v-215h-88v-1008h69v-215h-516zM664 0v215h71l-207 539l244 469h-90v215h420v-215h-86l-193 -367l250 -641h88v-215h-497z" />
    <glyph glyph-name="L" unicode="L" horiz-adv-x="1067" 
d="M51 0v215h127v1008h-127v215h627v-215h-158v-1008h242v426h256v-641h-967z" />
    <glyph glyph-name="M" unicode="M" horiz-adv-x="1492" 
d="M66 0v215h98v1008h-98v215h559l88 -566h24l88 566h600v-215h-94v-1008h94v-215h-512v215h76v1030h-22l-230 -1245h-112l-234 1245h-26v-1030h75v-215h-374z" />
    <glyph glyph-name="N" unicode="N" horiz-adv-x="1130" 
d="M66 0v215h90v1008h-90v215h413q160 -375 289 -860h18q-2 64 -6 134t-6 120.5t-2 109.5v281h-84v215h377v-215h-78v-1235h-266q-25 67 -85.5 224t-93 244t-81.5 234.5t-90 292.5h-19q7 -89 13 -258t6 -229v-281h78v-215h-383z" />
    <glyph glyph-name="O" unicode="O" horiz-adv-x="1130" 
d="M74 719q0 338 133.5 539.5t357.5 201.5t358 -201.5t134 -539.5t-134 -540t-358 -202t-357.5 202t-133.5 540zM682 719q0 216 -10.5 321t-34 142t-72.5 37q-48 0 -71.5 -37t-34 -141.5t-10.5 -321.5t10.5 -321.5t34 -141.5t71.5 -37q49 0 72.5 37t34 142t10.5 321z" />
    <glyph glyph-name="P" unicode="P" horiz-adv-x="1110" 
d="M47 0v215h100v1008h-100v215h463q254 0 395.5 -121.5t141.5 -339.5q0 -215 -136 -332t-422 -117v-313h121v-215h-563zM489 1223v-475q31 0 54.5 3.5t51.5 17.5t46 38.5t30.5 70t12.5 109.5q0 73 -16.5 122t-47 72.5t-61.5 32.5t-70 9z" />
    <glyph glyph-name="Q" unicode="Q" horiz-adv-x="1110" 
d="M346 -229l-84 143q53 37 90.5 53t93.5 23v4q-178 44 -280.5 238.5t-102.5 486.5q0 338 134 539.5t358 201.5t358 -201.5t134 -539.5q0 -304 -110.5 -500.5t-301.5 -230.5v-4q40 -10 85.5 -34t79 -45t88.5 -38t118 -17l-39 -210q-78 -2 -140.5 15t-103.5 42.5t-77 51
t-80 43.5t-93 18q-58 0 -127 -39zM672 719q0 215 -11 321t-34.5 142.5t-71.5 36.5q-49 0 -72.5 -37t-34 -142t-10.5 -321q0 -169 4.5 -263t18.5 -149.5t35 -71.5t59 -16t59 16t35 71.5t18.5 149.5t4.5 263z" />
    <glyph glyph-name="R" unicode="R" horiz-adv-x="1110" 
d="M74 0v215h88v1008h-88v215h534q104 0 187 -34.5t135.5 -93t80 -134t27.5 -160.5q0 -99 -32.5 -165.5t-108.5 -123.5l111 -512h59v-215h-315l-136 631h-112v-416h88v-215h-518zM504 1233v-395q54 0 87 7t58.5 28.5t36 62.5t10.5 106q0 63 -11.5 101.5t-38.5 58t-58.5 25.5
t-83.5 6z" />
    <glyph glyph-name="S" unicode="S" horiz-adv-x="897" 
d="M74 0v467h215q-9 -262 127 -262q53 0 80.5 38.5t27.5 104.5q0 51 -25.5 100.5t-66.5 92.5t-90 87.5t-98.5 94.5t-90.5 104.5t-66.5 126.5t-25.5 152q0 151 83.5 247.5t213.5 96.5q54 0 96 -14.5t65.5 -32.5t64.5 -55v90h215v-434h-215q3 124 -28.5 177.5t-94.5 53.5
q-43 0 -68.5 -29t-25.5 -78q0 -86 71 -157q22 -22 87 -77.5t110 -100.5q107 -107 153 -204.5t46 -213.5q0 -167 -92 -277t-232 -110q-65 0 -115.5 23.5t-105.5 78.5v-90h-215z" />
    <glyph glyph-name="T" unicode="T" horiz-adv-x="1087" 
d="M256 0v215h117v1008h-121v-316h-215v531h1014v-531h-215v316h-121v-1008h116v-215h-575z" />
    <glyph glyph-name="U" unicode="U" horiz-adv-x="1067" 
d="M35 1223v215h512v-215h-60v-877q0 -80 25.5 -116.5t77.5 -36.5q56 0 84 39.5t28 127.5v863h-61v215h391v-215h-114v-871q0 -167 -101 -271t-270 -104q-186 0 -294 95.5t-108 300.5v850h-110z" />
    <glyph glyph-name="V" unicode="V" horiz-adv-x="1153" 
d="M434 -23l-317 1246h-103v215h525v-215h-105l160 -686h4l162 686h-121v215h498v-215h-99l-329 -1246h-275z" />
    <glyph glyph-name="W" unicode="W" horiz-adv-x="1515" 
d="M373 -23l-279 1246h-76v215h465v-215h-77l131 -590h4l118 590h-71v215h395v-215h-80l133 -605h4l125 605h-82v215h414v-215h-74l-266 -1246h-254l-139 629h-4l-131 -629h-256z" />
    <glyph glyph-name="X" unicode="X" horiz-adv-x="1193" 
d="M39 0v215h84l305 469l-305 539h-84v215h549v-215h-99l146 -258l145 258h-94v215h453v-215h-109l-272 -475l305 -533h94v-215h-569v215h106l-143 254l-166 -254h104v-215h-450z" />
    <glyph glyph-name="Y" unicode="Y" horiz-adv-x="1173" 
d="M291 0v215h119v332l-285 676h-98v215h551v-215h-129l176 -430l184 430h-131v215h467v-215h-101l-292 -676v-332h112v-215h-573z" />
    <glyph glyph-name="Z" unicode="Z" horiz-adv-x="960" 
d="M51 0v215l498 1008h-252v-240h-215v455h819v-215l-495 -1008h288v258h215v-473h-858z" />
    <glyph glyph-name="bracketleft" unicode="[" horiz-adv-x="618" 
d="M150 1438h425v-183h-126v-1497h126v-182h-425v1862z" />
    <glyph glyph-name="backslash" unicode="\" horiz-adv-x="1193" 
d="M344 1438l739 -1467h-231l-741 1467h233z" />
    <glyph glyph-name="bracketright" unicode="]" horiz-adv-x="618" 
d="M469 1438v-1862h-426v182h127v1497h-127v183h426z" />
    <glyph glyph-name="asciicircum" unicode="^" horiz-adv-x="1196" 
d="M121 662l366 798h224l366 -798h-284l-193 489l-194 -489h-285z" />
    <glyph glyph-name="underscore" unicode="_" horiz-adv-x="1024" 
d="M1036 -256h-1048v102h1048v-102z" />
    <glyph glyph-name="grave" unicode="`" 
d="M561 1094h-176l-405 379h387z" />
    <glyph glyph-name="a" unicode="a" horiz-adv-x="1003" 
d="M952 0h-393v78q-92 -92 -207 -92q-119 0 -196.5 92t-77.5 233q0 143 85 238.5t216 95.5q49 0 89 -13.5t91 -47.5v106q0 82 -21 115t-73 33q-38 0 -60.5 -18t-37.5 -60l-269 55q56 104 160.5 160.5t243.5 56.5q53 0 101 -8t95.5 -29.5t82 -55t56 -87.5t21.5 -123v-514h94
v-215zM559 258v152q-39 47 -86 47q-44 0 -70 -36.5t-26 -96.5q0 -58 24.5 -90.5t67.5 -32.5q28 0 48.5 12.5t41.5 44.5z" />
    <glyph glyph-name="b" unicode="b" horiz-adv-x="980" 
d="M37 0v215h98v1008h-98v215h397v-525h4q37 59 81.5 83t107.5 24q45 0 85 -15.5t78 -52t65 -91.5t43.5 -140.5t16.5 -192.5q0 -262 -75 -402t-215 -140q-109 0 -191 94v-80h-397zM434 573v-204q0 -85 18.5 -126.5t65.5 -41.5q53 0 69.5 61.5t16.5 239.5q0 158 -17.5 218
t-70.5 60q-46 0 -64 -46t-18 -161z" />
    <glyph glyph-name="c" unicode="c" horiz-adv-x="897" 
d="M596 397l231 -86q-58 -340 -362 -340q-185 0 -290 144t-105 397q0 228 91.5 368t239.5 140q75 0 119.5 -30t71.5 -95h4v109h215v-406h-215q-7 112 -35 162.5t-82 50.5q-56 0 -77 -64.5t-21 -234.5q0 -131 10 -200t33.5 -97.5t67.5 -28.5q49 0 72 48t32 163z" />
    <glyph glyph-name="d" unicode="d" horiz-adv-x="980" 
d="M944 0h-397v80q-82 -94 -191 -94q-140 0 -215 140t-75 402q0 107 16.5 192.5t43.5 140.5t65 91.5t78 52t85 15.5q63 0 107.5 -25t81.5 -82h4v310h-96v215h395v-1223h98v-215zM547 369v204q0 115 -18 161t-64 46q-53 0 -70.5 -60t-17.5 -218q0 -178 16.5 -239.5
t69.5 -61.5q47 0 65.5 41.5t18.5 126.5z" />
    <glyph glyph-name="e" unicode="e" horiz-adv-x="874" 
d="M557 313l248 -92q-44 -118 -139.5 -184t-221.5 -66q-187 0 -282.5 137t-95.5 406q0 120 23 213t60 149.5t89.5 92.5t104 49.5t110.5 13.5q42 0 82.5 -10t82.5 -31t77.5 -58.5t63.5 -89t44 -126.5t16 -166v-94h-457q0 -115 9.5 -173.5t28.5 -78t55 -19.5q42 0 66 28.5
t36 98.5zM362 606h158v49q0 90 -18.5 131t-59.5 41q-43 0 -61.5 -48t-18.5 -173z" />
    <glyph glyph-name="f" unicode="f" horiz-adv-x="618" 
d="M82 0v215h78v573h-76v216h76v86q0 95 31 168.5t84 116t116.5 64t134.5 21.5q94 0 170 -38t111 -103l-238 -109q-12 45 -55 45q-30 0 -42.5 -21.5t-12.5 -74.5v-155h110v-216h-110v-573h114v-215h-491z" />
    <glyph glyph-name="g" unicode="g" horiz-adv-x="1003" 
d="M100 -389l123 205q108 -45 191 -45q71 0 107 40t36 113v182h-4q-40 -70 -88 -96t-109 -26q-45 0 -83.5 15.5t-74.5 53t-61 95t-40 147t-15 203.5q0 108 16 200t48 165t86.5 115t125.5 42q62 0 106.5 -37.5t88.5 -110.5h4v132h404v-216h-103v-800q0 -199 -111 -323
t-317 -124q-147 0 -330 70zM557 348v268q0 84 -19.5 124t-62.5 40q-84 0 -84 -172v-221q0 -100 20 -144t62 -44q84 0 84 149z" />
    <glyph glyph-name="h" unicode="h" horiz-adv-x="1067" 
d="M31 0v215h110v1008h-110v215h409v-496q65 51 112 70.5t105 19.5q126 0 197.5 -88.5t71.5 -251.5v-477h100v-215h-399v666q0 74 -19 105.5t-65 31.5q-43 0 -103 -43v-545h88v-215h-497z" />
    <glyph glyph-name="i" unicode="i" horiz-adv-x="618" 
d="M63 0v215h109v573h-109v216h408v-789h96v-215h-504zM324 1112q-72 0 -123 51t-51 123t51 123t123 51t123 -51t51 -123t-51 -123t-123 -51z" />
    <glyph glyph-name="j" unicode="j" horiz-adv-x="598" 
d="M0 -455v238q93 -6 127.5 33t34.5 141v831h-115v216h414v-1045q0 -112 -29 -194.5t-81 -130.5t-117.5 -70.5t-145.5 -22.5q-18 0 -88 4zM311 1112q-72 0 -123 51t-51 123t51 123t123 51t123 -51t51 -123t-51 -123t-123 -51z" />
    <glyph glyph-name="k" unicode="k" horiz-adv-x="960" 
d="M47 0v215h92v1008h-92v215h391v-1223h60v-215h-451zM680 0l-231 506v24l169 277h-71v197h362v-216h-61l-135 -217l166 -356h43v-215h-242z" />
    <glyph glyph-name="l" unicode="l" horiz-adv-x="575" 
d="M25 0v215h112v1008h-112v215h411v-1223h99v-215h-510z" />
    <glyph glyph-name="m" unicode="m" horiz-adv-x="1579" 
d="M53 0v215h101v573h-101v216h400v-107h6q51 57 77 77q61 46 142 46q139 0 217 -135q80 74 140 104.5t126 30.5q114 0 188 -89t74 -267v-449h107v-215h-406v629q0 86 -20.5 124t-67.5 38q-46 0 -98 -52v-524h84v-215h-383v629q0 87 -20 124.5t-66 37.5q-51 0 -100 -52v-524
h84v-215h-484z" />
    <glyph glyph-name="n" unicode="n" horiz-adv-x="1087" 
d="M53 0v215h111v573h-111v216h410v-107h8q8 16 22 33.5t39.5 39.5t66 36t89.5 14q113 0 185.5 -85t72.5 -239v-481h101v-215h-400v647q0 80 -18.5 112t-65.5 32q-25 0 -42.5 -8.5t-57.5 -39.5v-528h86v-215h-496z" />
    <glyph glyph-name="o" unicode="o" horiz-adv-x="980" 
d="M68 502q0 234 118.5 382t305.5 148q186 0 303.5 -148.5t117.5 -381.5q0 -234 -117.5 -382.5t-303.5 -148.5q-187 0 -305.5 148.5t-118.5 382.5zM379 502q0 -157 27 -229t86 -72q57 0 83.5 72t26.5 229t-26.5 229t-83.5 72q-59 0 -86 -72t-27 -229z" />
    <glyph glyph-name="p" unicode="p" horiz-adv-x="980" 
d="M37 -459v215h98v1032h-98v216h397v-115h4q22 66 72 98.5t111 32.5q141 0 215.5 -132.5t74.5 -381.5q0 -253 -75 -387.5t-213 -134.5q-56 0 -100 21.5t-89 72.5v-322h137v-215h-534zM434 385q0 -100 19 -143t65 -43q52 0 67 60t15 249q0 152 -18.5 212t-65.5 60
q-82 0 -82 -178v-217z" />
    <glyph glyph-name="q" unicode="q" horiz-adv-x="980" 
d="M944 -459h-534v215h137v322q-45 -51 -89 -72.5t-100 -21.5q-138 0 -213 134.5t-75 387.5q0 249 74.5 381.5t215.5 132.5q61 0 111 -32.5t72 -98.5h4v115h397v-216h-98v-1032h98v-215zM547 385v217q0 178 -82 178q-47 0 -65.5 -60t-18.5 -212q0 -189 15 -249t67 -60
q46 0 65 43t19 143z" />
    <glyph glyph-name="r" unicode="r" horiz-adv-x="704" 
d="M53 0v215h107v573h-107v216h406v-201h4q30 121 83 171.5t138 45.5v-336q-225 0 -225 -297v-172h119v-215h-525z" />
    <glyph glyph-name="s" unicode="s" horiz-adv-x="747" 
d="M70 0v272h215q9 -108 86 -108q30 0 47.5 19t17.5 50q0 29 -21 56t-54.5 51.5t-74.5 51.5t-81.5 60.5t-74 72.5t-54.5 94.5t-21 119.5q0 126 65 203.5t169 77.5q91 0 157 -82h5v66h215v-261h-215q-15 105 -84 105q-31 0 -49.5 -19.5t-18.5 -50.5q0 -32 21.5 -60.5
t56 -52.5t76 -50t83.5 -59t76.5 -72t56 -96.5t21.5 -125.5q0 -126 -63.5 -202t-169.5 -76q-34 0 -58.5 4.5t-41.5 14.5t-26 17.5t-22.5 23.5t-19.5 22h-4v-66h-215z" />
    <glyph glyph-name="t" unicode="t" horiz-adv-x="618" 
d="M555 227v-223q-95 -33 -182 -33q-238 0 -238 287v530h-90v216h90v126l299 234v-360h121v-216h-121v-448q0 -67 17.5 -95t58.5 -28q22 0 45 10z" />
    <glyph glyph-name="u" unicode="u" horiz-adv-x="1067" 
d="M920 1004v-789h110v-215h-409v80q-62 -51 -114 -73.5t-112 -22.5q-113 0 -185.5 84.5t-72.5 238.5v481h-100v216h399v-648q0 -80 18.5 -111.5t65.5 -31.5q26 0 44 8.5t57 38.5v528h-86v216h385z" />
    <glyph glyph-name="v" unicode="v" horiz-adv-x="897" 
d="M338 -14l-246 802h-78v216h412v-216h-57l108 -452h4l97 452h-54v216h359v-216h-78l-217 -802h-250z" />
    <glyph glyph-name="w" unicode="w" horiz-adv-x="1259" 
d="M264 -14l-190 802h-62v216h402v-216h-66l82 -430h4l123 646h229l121 -646h4l78 430h-59v216h317v-216h-61l-176 -802h-252l-113 454h-4l-123 -454h-254z" />
    <glyph glyph-name="x" unicode="x" horiz-adv-x="811" 
d="M29 0v215h63l144 262l-148 311h-59v216h284l101 -289l112 289h228v-216h-62l-141 -258l164 -315h65v-215h-299l-104 309h-4l-107 -309h-237z" />
    <glyph glyph-name="y" unicode="y" horiz-adv-x="917" 
d="M207 -455v215h141l43 185l-295 843h-71v216h409v-216h-67l135 -391h4l94 391h-65v216h358v-216h-80l-309 -1243h-297z" />
    <glyph glyph-name="z" unicode="z" horiz-adv-x="831" 
d="M45 0v197l440 630h-223v-143h-190v320h708v-193l-440 -635h256v152h190v-328h-741z" />
    <glyph glyph-name="braceleft" unicode="{" horiz-adv-x="796" 
d="M651 -221v-238q-94 -3 -159.5 14.5t-107.5 51.5t-65 95.5t-31.5 134t-8.5 179.5q0 127 -16.5 202t-43.5 107t-74 52v248q47 20 74 51.5t43.5 106.5t16.5 202q0 107 8.5 179.5t31.5 134t65 95.5t107.5 51.5t159.5 14.5v-237q-79 -10 -99 -48.5t-20 -173.5
q0 -238 -48 -353.5t-154 -145.5v-4q106 -30 154 -145t48 -353q0 -135 20 -173t99 -48z" />
    <glyph glyph-name="bar" unicode="|" horiz-adv-x="1204" 
d="M494 1438h217v-1702h-217v1702z" />
    <glyph glyph-name="braceright" unicode="}" horiz-adv-x="796" 
d="M145 -221q79 10 99 48t20 173q0 238 48.5 353t154.5 145v4q-106 30 -154.5 145.5t-48.5 353.5q0 135 -20 173.5t-99 48.5v237q94 3 159.5 -14.5t107.5 -51.5t65.5 -95.5t32 -134t8.5 -179.5q0 -127 16.5 -202t43 -106.5t73.5 -51.5v-248q-47 -20 -73.5 -52t-43 -107
t-16.5 -202q0 -107 -8.5 -179.5t-32 -134t-65.5 -95.5t-107.5 -51.5t-159.5 -14.5v238z" />
    <glyph glyph-name="asciitilde" unicode="~" horiz-adv-x="1343" 
d="M1227 895v-223q-171 -140 -301 -140q-69 0 -132 21.5t-141 60.5q-8 4 -34 16.5t-35.5 17t-31.5 14t-35 13.5t-31 9.5t-34 7.5t-32 2q-144 0 -303 -147v223q158 137 315 137q100 0 264 -80q60 -29 85.5 -40t71.5 -25t81 -14q127 0 293 147z" />
    <glyph glyph-name="uni00A0" unicode="&#xa0;" 
 />
    <glyph glyph-name="exclamdown" unicode="&#xa1;" horiz-adv-x="598" 
d="M459 1004v-320h-320v320h320zM360 522l91 -545v-411h-306v411l91 545h124z" />
    <glyph glyph-name="cent" unicode="&#xa2;" horiz-adv-x="897" 
d="M365 -201v183q-146 43 -222 186q-73 137 -73 344q0 213 80 349t215 155v192h145v-215q60 -37 82 -102h4v113h215v-406h-215q-7 112 -35 162.5t-82 50.5q-56 0 -77 -64.5t-21 -234.5q0 -131 10 -200t33.5 -97.5t67.5 -28.5q47 0 71 48t33 163l231 -86q-52 -314 -317 -338
v-174h-145z" />
    <glyph glyph-name="sterling" unicode="&#xa3;" horiz-adv-x="1087" 
d="M1030 428l2 -70q12 -387 -254 -387q-147 0 -274 148q-51 -77 -107.5 -112.5t-128.5 -35.5q-97 0 -160 68t-63 174q0 97 55.5 158t143.5 61q76 0 149 -59q-3 42 -21.5 128.5t-37.5 149.5h-211v215h166q-21 102 -21 189q0 199 95 302t280 103q364 0 369 -366l-277 -9
q0 105 -20.5 147t-71.5 42q-86 0 -86 -113q0 -56 35 -295h211v-215h-174q10 -58 10 -137q0 -133 -47 -254q77 -63 135 -63q47 0 67.5 44t20.5 148v39h215zM379 223q-37 40 -62 54t-57 14q-38 0 -61 -24.5t-23 -65.5q0 -43 23.5 -70t62.5 -27q45 0 75 30.5t42 88.5z" />
    <glyph glyph-name="currency" unicode="&#xa4;" horiz-adv-x="1366" 
d="M158 1059l141 143l135 -135q109 74 246 74q138 0 252 -74l135 135l141 -143l-135 -135q76 -126 76 -252q0 -131 -76 -246l135 -131l-141 -141l-135 131q-120 -76 -254 -76q-132 0 -244 76l-135 -131l-141 141l135 131q-76 126 -76 256t76 242zM682 942q-110 0 -188 -78
t-78 -188t78 -189t188 -79t189 79t79 189t-79 188t-189 78z" />
    <glyph glyph-name="yen" unicode="&#xa5;" horiz-adv-x="1173" 
d="M752 367v-152h112v-215h-573v215h119v152h-381v145h381v35l-31 76h-350v145h288l-192 455h-98v215h551v-215h-129l176 -430l184 430h-131v215h467v-215h-101l-196 -455h295v-145h-359l-32 -76v-35h391v-145h-391z" />
    <glyph glyph-name="brokenbar" unicode="&#xa6;" horiz-adv-x="1204" 
d="M489 465h218v-729h-218v729zM489 1438h218v-731h-218v731z" />
    <glyph glyph-name="section" unicode="&#xa7;" horiz-adv-x="874" 
d="M111 -147h233q0 -59 27 -93q29 -32 84 -32q48 0 77 30t29 74q0 33 -27.5 71.5t-71.5 77t-97 82t-106 94t-97 105t-71.5 122.5t-27.5 140q0 186 170 328q-85 78 -118 143.5t-33 153.5q0 145 93.5 228t254.5 83q333 0 336 -319h-231q3 61 -29 98q-30 35 -84 35
q-49 0 -79 -28t-30 -70q0 -43 27.5 -86t71.5 -82t97 -80.5t106 -90t97 -101t71.5 -122.5t27.5 -147q0 -183 -170 -324q81 -77 116.5 -147t35.5 -150q0 -142 -94.5 -223.5t-258.5 -81.5q-163 0 -249 83.5t-80 228.5zM498 262q41 40 62.5 78t21.5 88q0 67 -50 139t-159 162
q-80 -83 -80 -164q0 -60 43.5 -122.5t161.5 -180.5z" />
    <glyph glyph-name="dieresis" unicode="&#xa8;" 
d="M129 1419q54 0 91.5 -37.5t37.5 -91.5t-37.5 -92.5t-91.5 -38.5t-92.5 38.5t-38.5 92.5t38.5 91.5t92.5 37.5zM557 1419q54 0 91.5 -37.5t37.5 -91.5t-37.5 -92.5t-91.5 -38.5t-92.5 38.5t-38.5 92.5t38.5 91.5t92.5 37.5z" />
    <glyph glyph-name="copyright" unicode="&#xa9;" horiz-adv-x="1511" 
d="M940 602l162 -55q-38 -125 -125 -191.5t-211 -66.5q-175 0 -280 115t-105 307q0 198 104.5 314t282.5 116q126 0 208 -60t126 -184l-162 -39q-28 72 -71 105.5t-107 33.5q-98 0 -152.5 -74t-54.5 -208q0 -132 52 -207.5t141 -75.5q74 0 120.5 41t71.5 129zM756 1481
q209 0 385 -102.5t278.5 -278.5t102.5 -385t-102.5 -385t-278.5 -278.5t-385 -102.5t-385 102.5t-278.5 278.5t-102.5 385t102.5 385t278.5 278.5t385 102.5zM756 100q125 0 239 48.5t196 131t130.5 196.5t48.5 239q0 167 -82 308.5t-223.5 223.5t-308.5 82
q-125 0 -239 -48.5t-196.5 -130.5t-131 -196t-48.5 -239t48.5 -239t131 -196.5t196.5 -131t239 -48.5z" />
    <glyph glyph-name="ordfeminine" unicode="&#xaa;" horiz-adv-x="661" 
d="M625 842h-256v49q-61 -55 -136 -55q-77 0 -127.5 55t-50.5 139q0 88 55.5 143.5t141.5 55.5q58 0 117 -37v65q0 47 -14 66.5t-48 19.5q-25 0 -39.5 -10.5t-23.5 -36.5l-174 33q75 131 262 131q105 0 167 -44.5t62 -129.5v-317h64v-127zM369 997v90q-27 27 -56 27t-45 -20
t-16 -56q0 -75 57 -75q36 0 60 34z" />
    <glyph glyph-name="guillemotleft" unicode="&#xab;" horiz-adv-x="1087" 
d="M313 0l-274 502l274 502h260l-272 -502l272 -502h-260zM797 0l-275 502l275 502h260l-273 -502l273 -502h-260z" />
    <glyph glyph-name="logicalnot" unicode="&#xac;" horiz-adv-x="1366" 
d="M127 1034h1112v-702h-215v487h-897v215z" />
    <glyph glyph-name="uni00AD" unicode="&#xad;" 
d="M78 385v242h528v-242h-528z" />
    <glyph glyph-name="registered" unicode="&#xae;" horiz-adv-x="1511" 
d="M410 305v813h165h228q118 0 192 -57t74 -170q0 -93 -59.5 -154t-161.5 -73v-5q43 -10 78.5 -49.5t95.5 -140.5l96 -164h-205l-73 148q-54 109 -103.5 147.5t-118.5 38.5h-43v-334h-165zM575 768h170q66 0 108 30t42 83q0 108 -170 108h-150v-221zM756 1481
q209 0 385 -102.5t278.5 -278.5t102.5 -385t-102.5 -385t-278.5 -278.5t-385 -102.5t-385 102.5t-278.5 278.5t-102.5 385t102.5 385t278.5 278.5t385 102.5zM756 100q125 0 239 48.5t196 131t130.5 196.5t48.5 239q0 167 -82 308.5t-223.5 223.5t-308.5 82
q-125 0 -239 -48.5t-196.5 -130.5t-131 -196t-48.5 -239t48.5 -239t131 -196.5t196.5 -131t239 -48.5z" />
    <glyph glyph-name="macron" unicode="&#xaf;" 
d="M-49 1370h782v-184h-782v184z" />
    <glyph glyph-name="degree" unicode="&#xb0;" horiz-adv-x="819" 
d="M410 799q-135 0 -231.5 96t-96.5 231t96.5 231.5t231.5 96.5t231 -96.5t96 -231.5t-96 -231t-231 -96zM410 1280q-63 0 -108.5 -45.5t-45.5 -108.5t45.5 -108t108.5 -45t108 45t45 108t-45 108.5t-108 45.5z" />
    <glyph glyph-name="plusminus" unicode="&#xb1;" horiz-adv-x="1368" 
d="M127 995h448v418h216v-418h448v-215h-448v-418h-216v418h-448v215zM127 215h1112v-215h-1112v215z" />
    <glyph glyph-name="twosuperior" unicode="&#xb2;" horiz-adv-x="512" 
d="M477 676h-463q-2 75 11 136t35 102t49.5 75t55.5 62t51 55.5t37.5 63t14.5 77.5q0 33 -10 47.5t-33 14.5q-43 0 -43 -70q0 -21 6 -68l-174 9q-2 18 -2 45q0 107 60.5 168t167.5 61q104 0 168.5 -59t64.5 -156q0 -62 -27.5 -115t-68 -90.5t-81.5 -71t-74.5 -72
t-41.5 -77.5h144v113h153v-250z" />
    <glyph glyph-name="threesuperior" unicode="&#xb3;" horiz-adv-x="512" 
d="M16 922l177 14q-3 -87 6.5 -112t36.5 -25q11 0 18.5 3t12 11t7 15t4 23.5t1.5 28v35.5q0 61 -17 81t-69 16v145q55 -3 69 10t14 68q0 44 -10 62t-33 18q-25 0 -34 -23t-6 -92l-168 17q12 237 223 237q104 0 165.5 -57t61.5 -154q0 -54 -17.5 -89t-60.5 -69
q46 -40 66 -83.5t20 -106.5q0 -108 -63 -172t-170 -64q-119 0 -178 62t-56 201z" />
    <glyph glyph-name="acute" unicode="&#xb4;" 
d="M150 1094l194 379h387l-405 -379h-176z" />
    <glyph glyph-name="mu" unicode="&#xb5;" horiz-adv-x="1251" 
d="M236 -459v1463h299v-660q0 -60 20 -90.5t55 -30.5q53 0 109 60v721h299v-1004h-295v82h-4q-19 -42 -54.5 -68t-76.5 -26q-38 0 -58 20v-467h-294z" />
    <glyph glyph-name="paragraph" unicode="&#xb6;" horiz-adv-x="1138" 
d="M639 -459h-242v1073q-186 13 -289.5 120t-103.5 286v2v4q0 81 26 153.5t77 131t136 93t193 34.5h699v-262h-113v-1635h-242v1635h-141v-1635z" />
    <glyph glyph-name="periodcentered" unicode="&#xb7;" horiz-adv-x="598" 
d="M139 580v319h320v-319h-320z" />
    <glyph glyph-name="cedilla" unicode="&#xb8;" 
d="M160 -340l10 115q156 -6 156 73q0 29 -21.5 44.5t-71.5 23.5q31 43 46 84q101 -6 153.5 -48.5t52.5 -119.5q0 -84 -61.5 -132t-167.5 -48q-57 0 -96 8z" />
    <glyph glyph-name="onesuperior" unicode="&#xb9;" horiz-adv-x="512" 
d="M90 676v147h68v412q-34 -9 -68 -14v143q59 10 99.5 30.5t84.5 59.5h84v-631h66v-147h-334z" />
    <glyph glyph-name="ordmasculine" unicode="&#xba;" horiz-adv-x="641" 
d="M45 1143q0 140 76.5 228.5t197.5 88.5t198 -88.5t77 -228.5t-77 -229t-198 -89t-197.5 89t-76.5 229zM319 1321q-38 0 -55.5 -40t-17.5 -138q0 -96 17.5 -137t55.5 -41q41 0 57.5 41t16.5 137q0 103 -18.5 140.5t-55.5 37.5z" />
    <glyph glyph-name="guillemotright" unicode="&#xbb;" horiz-adv-x="1087" 
d="M772 0h-258l270 502l-270 502h258l277 -502zM289 0h-258l270 502l-270 502h258l276 -502z" />
    <glyph glyph-name="onequarter" unicode="&#xbc;" horiz-adv-x="1236" 
d="M913 0v147h60v62h-209q-7 47 -31 102l256 467h166v-442h49v-127h-49v-62h49v-147h-291zM891 336h82q3 129 8 194l-4 5q-25 -71 -39.5 -105t-46.5 -94zM90 676v147h68v412q-34 -9 -68 -14v143q59 10 99.5 30.5t84.5 59.5h84v-631h66v-147h-334zM283 -16l567 1470h151
l-565 -1470h-153z" />
    <glyph glyph-name="onehalf" unicode="&#xbd;" horiz-adv-x="1236" 
d="M258 -16l567 1470h152l-565 -1470h-154zM1202 0h-463q-2 75 11 136t35 102t49.5 75t55.5 62t51 55.5t37.5 63t14.5 77.5q0 33 -10 47.5t-33 14.5q-43 0 -43 -70q0 -21 6 -67l-174 8q-2 18 -2 45q0 107 60.5 168t167.5 61q104 0 168.5 -59t64.5 -156q0 -62 -27.5 -115
t-68 -90.5t-81.5 -71t-74.5 -72t-41.5 -77.5h144v113h153v-250zM90 676v147h68v412q-34 -9 -68 -14v143q59 10 99.5 30.5t84.5 59.5h84v-631h66v-147h-334z" />
    <glyph glyph-name="threequarters" unicode="&#xbe;" horiz-adv-x="1236" 
d="M283 -16l567 1470h151l-565 -1470h-153zM16 922l177 14q-3 -87 6.5 -112t36.5 -25q11 0 18.5 3t12 11t7 15t4 23.5t1.5 28v35.5q0 61 -17 81t-69 16v145q55 -3 69 10t14 68q0 44 -10 62t-33 18q-25 0 -34 -23t-6 -92l-168 17q12 237 223 237q104 0 165.5 -57t61.5 -154
q0 -54 -17.5 -89t-60.5 -69q46 -40 66 -83.5t20 -106.5q0 -108 -63 -172t-170 -64q-119 0 -178 62t-56 201zM913 0v147h60v62h-209q-7 47 -31 102l256 467h166v-442h49v-127h-49v-62h49v-147h-291zM891 336h82q3 129 8 194l-4 5q-25 -71 -39.5 -105t-46.5 -94z" />
    <glyph glyph-name="questiondown" unicode="&#xbf;" horiz-adv-x="831" 
d="M502 520l26 -336q-43 11 -65 11q-65 0 -95 -49t-30 -162q0 -133 21.5 -186.5t72.5 -53.5q42 0 62 34t20 111v99h277q3 -212 -97 -328.5t-268 -116.5q-173 0 -280 119.5t-107 312.5q0 102 30.5 189.5t97 145t157.5 55.5l10 155h168zM573 1004v-320h-319v320h319z" />
    <glyph glyph-name="Agrave" unicode="&#xc0;" horiz-adv-x="1130" 
d="M10 0v215h96l154 1008h-92v215h795v-215h-97l164 -1008h90v-215h-491v215h90l-35 268h-235l-33 -268h88v-215h-494zM473 662h186l-75 598h-39zM786 1520h-176l-405 378h387z" />
    <glyph glyph-name="Aacute" unicode="&#xc1;" horiz-adv-x="1130" 
d="M10 0v215h96l154 1008h-92v215h795v-215h-97l164 -1008h90v-215h-491v215h90l-35 268h-235l-33 -268h88v-215h-494zM473 662h186l-75 598h-39zM375 1520l194 378h387l-405 -378h-176z" />
    <glyph glyph-name="Acircumflex" unicode="&#xc2;" horiz-adv-x="1130" 
d="M10 0v215h96l154 1008h-92v215h795v-215h-97l164 -1008h90v-215h-491v215h90l-35 268h-235l-33 -268h88v-215h-494zM473 662h186l-75 598h-39zM236 1511l184 387h293l184 -387h-190l-140 197l-141 -197h-190z" />
    <glyph glyph-name="Atilde" unicode="&#xc3;" horiz-adv-x="1130" 
d="M10 0v215h96l154 1008h-92v215h795v-215h-97l164 -1008h90v-215h-491v215h90l-35 268h-235l-33 -268h88v-215h-494zM473 662h186l-75 598h-39zM362 1573h-139q6 114 67.5 190t147.5 76q46 0 140 -37t127 -37q43 0 61 76h143q-10 -117 -71 -191.5t-144 -74.5
q-54 0 -147.5 38t-116.5 38q-25 0 -42.5 -20.5t-25.5 -57.5z" />
    <glyph glyph-name="Adieresis" unicode="&#xc4;" horiz-adv-x="1130" 
d="M10 0v215h96l154 1008h-92v215h795v-215h-97l164 -1008h90v-215h-491v215h90l-35 268h-235l-33 -268h88v-215h-494zM473 662h186l-75 598h-39zM782 1845q54 0 91.5 -37.5t37.5 -91.5t-37.5 -92.5t-91.5 -38.5t-92.5 38.5t-38.5 92.5t38.5 91.5t92.5 37.5zM354 1845
q54 0 91.5 -37.5t37.5 -91.5t-37.5 -92.5t-91.5 -38.5t-92.5 38.5t-38.5 92.5t38.5 91.5t92.5 37.5z" />
    <glyph glyph-name="Aring" unicode="&#xc5;" horiz-adv-x="1130" 
d="M10 0v215h96l154 1008h-92v215h795v-215h-97l164 -1008h90v-215h-491v215h90l-35 268h-235l-33 -268h88v-215h-494zM473 662h186l-75 598h-39zM567 1927q86 0 146.5 -60.5t60.5 -146.5t-60.5 -147.5t-146.5 -61.5t-147.5 61.5t-61.5 147.5t61.5 146.5t147.5 60.5z
M565 1823q-43 0 -72.5 -30t-29.5 -73t29.5 -73.5t72.5 -30.5t74 30.5t31 73.5t-31 73t-74 30z" />
    <glyph glyph-name="AE" unicode="&#xc6;" horiz-adv-x="1449" 
d="M16 0v215h72l176 1008h-67v215h1169v-455h-256v240h-188v-381h157v-215h-157v-412h188v254h256v-469h-856v215h70v412h-193l-70 -412h95v-215h-396zM420 817h160v432h-86z" />
    <glyph glyph-name="Ccedilla" unicode="&#xc7;" horiz-adv-x="1003" 
d="M322 -340l10 115q155 -6 155 73q0 29 -21 44.5t-71 23.5q23 29 43 78q-77 21 -141 75.5t-115 143.5t-79.5 223.5t-28.5 302.5q0 143 22 262.5t59.5 203t88 142t108 86t119.5 27.5q61 0 109.5 -28.5t95.5 -92.5h4v99h229v-486h-229q-18 267 -129 267q-17 0 -30 -4.5
t-24 -16.5t-18 -28.5t-12.5 -46t-9 -62.5t-5.5 -84t-2.5 -105t-0.5 -131q0 -84 1 -144t3.5 -115t6 -92t10 -68t15 -49.5t21 -31t27 -17.5t34.5 -5q57 0 84.5 66.5t38.5 222.5l262 -78q-22 -207 -131.5 -330t-273.5 -123v-4q100 -30 100 -141q0 -84 -61.5 -132t-167.5 -48
q-57 0 -96 8z" />
    <glyph glyph-name="Egrave" unicode="&#xc8;" horiz-adv-x="1087" 
d="M47 0v215h125v1008h-125v215h971v-457h-256v242h-248v-381h191v-215h-191v-412h248v254h256v-469h-971zM764 1520h-176l-406 378h387z" />
    <glyph glyph-name="Eacute" unicode="&#xc9;" horiz-adv-x="1087" 
d="M47 0v215h125v1008h-125v215h971v-457h-256v242h-248v-381h191v-215h-191v-412h248v254h256v-469h-971zM352 1520l195 378h387l-406 -378h-176z" />
    <glyph glyph-name="Ecircumflex" unicode="&#xca;" horiz-adv-x="1087" 
d="M47 0v215h125v1008h-125v215h971v-457h-256v242h-248v-381h191v-215h-191v-412h248v254h256v-469h-971zM213 1511l184 387h293l184 -387h-190l-139 197l-142 -197h-190z" />
    <glyph glyph-name="Edieresis" unicode="&#xcb;" horiz-adv-x="1087" 
d="M47 0v215h125v1008h-125v215h971v-457h-256v242h-248v-381h191v-215h-191v-412h248v254h256v-469h-971zM332 1845q54 0 91.5 -37.5t37.5 -91.5t-37.5 -92.5t-91.5 -38.5t-92.5 38.5t-38.5 92.5t38.5 91.5t92.5 37.5zM760 1845q54 0 91.5 -37.5t37.5 -91.5t-37.5 -92.5
t-91.5 -38.5t-92.5 38.5t-38.5 92.5t38.5 91.5t92.5 37.5z" />
    <glyph glyph-name="Igrave" unicode="&#xcc;" horiz-adv-x="724" 
d="M49 0v215h139v1008h-139v215h629v-215h-148v-1008h148v-215h-629zM584 1520h-176l-406 378h387z" />
    <glyph glyph-name="Iacute" unicode="&#xcd;" horiz-adv-x="724" 
d="M49 0v215h139v1008h-139v215h629v-215h-148v-1008h148v-215h-629zM172 1520l195 378h387l-406 -378h-176z" />
    <glyph glyph-name="Icircumflex" unicode="&#xce;" horiz-adv-x="724" 
d="M49 0v215h139v1008h-139v215h629v-215h-148v-1008h148v-215h-629zM33 1511l184 387h293l184 -387h-190l-139 197l-142 -197h-190z" />
    <glyph glyph-name="Idieresis" unicode="&#xcf;" horiz-adv-x="724" 
d="M49 0v215h139v1008h-139v215h629v-215h-148v-1008h148v-215h-629zM152 1845q54 0 91.5 -37.5t37.5 -91.5t-37.5 -92.5t-91.5 -38.5t-93 38.5t-39 92.5t39 91.5t93 37.5zM580 1845q54 0 91.5 -37.5t37.5 -91.5t-37.5 -92.5t-91.5 -38.5t-92.5 38.5t-38.5 92.5t38.5 91.5
t92.5 37.5z" />
    <glyph glyph-name="Eth" unicode="&#xd0;" horiz-adv-x="1130" 
d="M47 0v215h103v395h-103v215h103v398h-103v215h498q227 0 366.5 -192.5t139.5 -528.5q0 -155 -31 -284.5t-92.5 -226.5t-159 -151.5t-223.5 -54.5h-498zM688 725q0 134 -10 227t-25.5 146t-42.5 81.5t-53 36t-65 7.5v-398h83v-215h-83v-395q55 0 88.5 18t59.5 71.5t37 155
t11 265.5z" />
    <glyph glyph-name="Ntilde" unicode="&#xd1;" horiz-adv-x="1130" 
d="M66 0v215h90v1008h-90v215h413q160 -375 289 -860h18q-2 64 -6 134t-6 120.5t-2 109.5v281h-84v215h377v-215h-78v-1235h-266q-25 67 -85.5 224t-93 244t-81.5 234.5t-90 292.5h-19q7 -89 13 -258t6 -229v-281h78v-215h-383zM362 1573h-139q6 114 67.5 190t147.5 76
q46 0 140 -37t127 -37q43 0 61 76h143q-10 -117 -71 -191.5t-144 -74.5q-54 0 -147.5 38t-116.5 38q-25 0 -42.5 -20.5t-25.5 -57.5z" />
    <glyph glyph-name="Ograve" unicode="&#xd2;" horiz-adv-x="1130" 
d="M74 719q0 338 133.5 539.5t357.5 201.5t358 -201.5t134 -539.5t-134 -540t-358 -202t-357.5 202t-133.5 540zM682 719q0 216 -10.5 321t-34 142t-72.5 37q-48 0 -71.5 -37t-34 -141.5t-10.5 -321.5t10.5 -321.5t34 -141.5t71.5 -37q49 0 72.5 37t34 142t10.5 321z
M786 1520h-176l-405 378h387z" />
    <glyph glyph-name="Oacute" unicode="&#xd3;" horiz-adv-x="1130" 
d="M74 719q0 338 133.5 539.5t357.5 201.5t358 -201.5t134 -539.5t-134 -540t-358 -202t-357.5 202t-133.5 540zM682 719q0 216 -10.5 321t-34 142t-72.5 37q-48 0 -71.5 -37t-34 -141.5t-10.5 -321.5t10.5 -321.5t34 -141.5t71.5 -37q49 0 72.5 37t34 142t10.5 321z
M375 1520l194 378h387l-405 -378h-176z" />
    <glyph glyph-name="Ocircumflex" unicode="&#xd4;" horiz-adv-x="1130" 
d="M74 719q0 338 133.5 539.5t357.5 201.5t358 -201.5t134 -539.5t-134 -540t-358 -202t-357.5 202t-133.5 540zM682 719q0 216 -10.5 321t-34 142t-72.5 37q-48 0 -71.5 -37t-34 -141.5t-10.5 -321.5t10.5 -321.5t34 -141.5t71.5 -37q49 0 72.5 37t34 142t10.5 321z
M236 1511l184 387h293l184 -387h-190l-140 197l-141 -197h-190z" />
    <glyph glyph-name="Otilde" unicode="&#xd5;" horiz-adv-x="1130" 
d="M74 719q0 338 133.5 539.5t357.5 201.5t358 -201.5t134 -539.5t-134 -540t-358 -202t-357.5 202t-133.5 540zM682 719q0 216 -10.5 321t-34 142t-72.5 37q-48 0 -71.5 -37t-34 -141.5t-10.5 -321.5t10.5 -321.5t34 -141.5t71.5 -37q49 0 72.5 37t34 142t10.5 321z
M362 1573h-139q6 114 67.5 190t147.5 76q46 0 140 -37t127 -37q43 0 61 76h143q-10 -117 -71 -191.5t-144 -74.5q-54 0 -147.5 38t-116.5 38q-25 0 -42.5 -20.5t-25.5 -57.5z" />
    <glyph glyph-name="Odieresis" unicode="&#xd6;" horiz-adv-x="1130" 
d="M74 719q0 338 133.5 539.5t357.5 201.5t358 -201.5t134 -539.5t-134 -540t-358 -202t-357.5 202t-133.5 540zM682 719q0 216 -10.5 321t-34 142t-72.5 37q-48 0 -71.5 -37t-34 -141.5t-10.5 -321.5t10.5 -321.5t34 -141.5t71.5 -37q49 0 72.5 37t34 142t10.5 321z
M354 1845q54 0 91.5 -37.5t37.5 -91.5t-37.5 -92.5t-91.5 -38.5t-92.5 38.5t-38.5 92.5t38.5 91.5t92.5 37.5zM782 1845q54 0 91.5 -37.5t37.5 -91.5t-37.5 -92.5t-91.5 -38.5t-92.5 38.5t-38.5 92.5t38.5 91.5t92.5 37.5z" />
    <glyph glyph-name="multiply" unicode="&#xd7;" horiz-adv-x="1366" 
d="M309 1200l371 -371l371 371l155 -151l-372 -373l370 -371l-151 -151l-371 370l-373 -372l-151 151l372 373l-372 373z" />
    <glyph glyph-name="Oslash" unicode="&#xd8;" horiz-adv-x="1130" 
d="M74 719q0 338 133.5 539.5t357.5 201.5q152 0 273 -102l69 102l150 -90l-105 -162q105 -205 105 -489q0 -338 -134 -540t-358 -202q-148 0 -274 105l-62 -111l-155 90l100 172q-100 200 -100 486zM453 700l215 369q-9 80 -33 115t-70 35q-48 0 -71.5 -37t-34 -141.5
t-10.5 -321.5v-19h4zM678 745l-217 -374q10 -88 33 -120t71 -32q30 0 49 13.5t33 44t21.5 91t10.5 142.5t3 209v26h-4z" />
    <glyph glyph-name="Ugrave" unicode="&#xd9;" horiz-adv-x="1067" 
d="M35 1223v215h512v-215h-60v-877q0 -80 25.5 -116.5t77.5 -36.5q56 0 84 39.5t28 127.5v863h-61v215h391v-215h-114v-871q0 -167 -101 -271t-270 -104q-186 0 -294 95.5t-108 300.5v850h-110zM754 1520h-176l-406 378h387z" />
    <glyph glyph-name="Uacute" unicode="&#xda;" horiz-adv-x="1067" 
d="M35 1223v215h512v-215h-60v-877q0 -80 25.5 -116.5t77.5 -36.5q56 0 84 39.5t28 127.5v863h-61v215h391v-215h-114v-871q0 -167 -101 -271t-270 -104q-186 0 -294 95.5t-108 300.5v850h-110zM342 1520l195 378h387l-406 -378h-176z" />
    <glyph glyph-name="Ucircumflex" unicode="&#xdb;" horiz-adv-x="1067" 
d="M35 1223v215h512v-215h-60v-877q0 -80 25.5 -116.5t77.5 -36.5q56 0 84 39.5t28 127.5v863h-61v215h391v-215h-114v-871q0 -167 -101 -271t-270 -104q-186 0 -294 95.5t-108 300.5v850h-110zM203 1511l184 387h293l184 -387h-190l-139 197l-142 -197h-190z" />
    <glyph glyph-name="Udieresis" unicode="&#xdc;" horiz-adv-x="1067" 
d="M35 1223v215h512v-215h-60v-877q0 -80 25.5 -116.5t77.5 -36.5q56 0 84 39.5t28 127.5v863h-61v215h391v-215h-114v-871q0 -167 -101 -271t-270 -104q-186 0 -294 95.5t-108 300.5v850h-110zM322 1845q54 0 91.5 -37.5t37.5 -91.5t-37.5 -92.5t-91.5 -38.5t-93 38.5
t-39 92.5t39 91.5t93 37.5zM750 1845q54 0 91.5 -37.5t37.5 -91.5t-37.5 -92.5t-91.5 -38.5t-93 38.5t-39 92.5t39 91.5t93 37.5z" />
    <glyph glyph-name="Yacute" unicode="&#xdd;" horiz-adv-x="1173" 
d="M291 0v215h119v332l-285 676h-98v215h551v-215h-129l176 -430l184 430h-131v215h467v-215h-101l-292 -676v-332h112v-215h-573zM395 1520l195 378h387l-406 -378h-176z" />
    <glyph glyph-name="Thorn" unicode="&#xde;" horiz-adv-x="1110" 
d="M147 1249h-100v189h543v-189h-101v-78h41q80 0 153 -15.5t140 -51t116.5 -88t78.5 -131t29 -174.5q0 -74 -15 -136t-41 -105t-61 -78t-74 -55.5t-81 -36.5t-82 -21.5t-76.5 -10.5t-65 -2.5t-47.5 0.5h-15v-78h101v-188h-543v188h100v1061zM489 956v-475q96 0 145.5 54
t49.5 186q0 128 -51 181.5t-144 53.5z" />
    <glyph glyph-name="germandbls" unicode="&#xdf;" horiz-adv-x="980" 
d="M25 0v215h114v807q0 209 93 323.5t290 114.5q185 0 281 -84t96 -246q0 -229 -160 -286q95 -46 137 -139.5t42 -260.5q0 -236 -62.5 -347t-202.5 -111q-53 0 -118 24v217q21 3 32.5 9t20.5 18t12 43t4.5 68t1.5 108q0 106 -23.5 150t-82.5 41v262q49 0 68.5 40t19.5 138
q0 77 -17.5 109t-58.5 32q-40 0 -57 -29.5t-17 -95.5v-905h33v-215h-446z" />
    <glyph glyph-name="agrave" unicode="&#xe0;" horiz-adv-x="1003" 
d="M952 0h-393v78q-92 -92 -207 -92q-119 0 -196.5 92t-77.5 233q0 143 85 238.5t216 95.5q49 0 89 -13.5t91 -47.5v106q0 82 -21 115t-73 33q-38 0 -60.5 -18t-37.5 -60l-269 55q56 104 160.5 160.5t243.5 56.5q53 0 101 -8t95.5 -29.5t82 -55t56 -87.5t21.5 -123v-514h94
v-215zM559 258v152q-39 47 -86 47q-44 0 -70 -36.5t-26 -96.5q0 -58 24.5 -90.5t67.5 -32.5q28 0 48.5 12.5t41.5 44.5zM723 1094h-176l-406 379h387z" />
    <glyph glyph-name="aacute" unicode="&#xe1;" horiz-adv-x="1003" 
d="M952 0h-393v78q-92 -92 -207 -92q-119 0 -196.5 92t-77.5 233q0 143 85 238.5t216 95.5q49 0 89 -13.5t91 -47.5v106q0 82 -21 115t-73 33q-38 0 -60.5 -18t-37.5 -60l-269 55q56 104 160.5 160.5t243.5 56.5q53 0 101 -8t95.5 -29.5t82 -55t56 -87.5t21.5 -123v-514h94
v-215zM559 258v152q-39 47 -86 47q-44 0 -70 -36.5t-26 -96.5q0 -58 24.5 -90.5t67.5 -32.5q28 0 48.5 12.5t41.5 44.5zM311 1094l195 379h387l-406 -379h-176z" />
    <glyph glyph-name="acircumflex" unicode="&#xe2;" horiz-adv-x="1003" 
d="M952 0h-393v78q-92 -92 -207 -92q-119 0 -196.5 92t-77.5 233q0 143 85 238.5t216 95.5q49 0 89 -13.5t91 -47.5v106q0 82 -21 115t-73 33q-38 0 -60.5 -18t-37.5 -60l-269 55q56 104 160.5 160.5t243.5 56.5q53 0 101 -8t95.5 -29.5t82 -55t56 -87.5t21.5 -123v-514h94
v-215zM559 258v152q-39 47 -86 47q-44 0 -70 -36.5t-26 -96.5q0 -58 24.5 -90.5t67.5 -32.5q28 0 48.5 12.5t41.5 44.5zM172 1085l184 388h293l185 -388h-191l-139 197l-142 -197h-190z" />
    <glyph glyph-name="atilde" unicode="&#xe3;" horiz-adv-x="1003" 
d="M952 0h-393v78q-92 -92 -207 -92q-119 0 -196.5 92t-77.5 233q0 143 85 238.5t216 95.5q49 0 89 -13.5t91 -47.5v106q0 82 -21 115t-73 33q-38 0 -60.5 -18t-37.5 -60l-269 55q56 104 160.5 160.5t243.5 56.5q53 0 101 -8t95.5 -29.5t82 -55t56 -87.5t21.5 -123v-514h94
v-215zM559 258v152q-39 47 -86 47q-44 0 -70 -36.5t-26 -96.5q0 -58 24.5 -90.5t67.5 -32.5q28 0 48.5 12.5t41.5 44.5zM299 1147h-139q6 114 67.5 190t147.5 76q46 0 139.5 -37t126.5 -37q43 0 61 76h144q-10 -117 -71 -191.5t-144 -74.5q-54 0 -147.5 38t-116.5 38
q-25 0 -42.5 -20.5t-25.5 -57.5z" />
    <glyph glyph-name="adieresis" unicode="&#xe4;" horiz-adv-x="1003" 
d="M952 0h-393v78q-92 -92 -207 -92q-119 0 -196.5 92t-77.5 233q0 143 85 238.5t216 95.5q49 0 89 -13.5t91 -47.5v106q0 82 -21 115t-73 33q-38 0 -60.5 -18t-37.5 -60l-269 55q56 104 160.5 160.5t243.5 56.5q53 0 101 -8t95.5 -29.5t82 -55t56 -87.5t21.5 -123v-514h94
v-215zM559 258v152q-39 47 -86 47q-44 0 -70 -36.5t-26 -96.5q0 -58 24.5 -90.5t67.5 -32.5q28 0 48.5 12.5t41.5 44.5zM291 1419q54 0 91.5 -37.5t37.5 -91.5t-37.5 -92.5t-91.5 -38.5t-92.5 38.5t-38.5 92.5t38.5 91.5t92.5 37.5zM719 1419q54 0 91.5 -37.5t37.5 -91.5
t-37.5 -92.5t-91.5 -38.5t-92.5 38.5t-38.5 92.5t38.5 91.5t92.5 37.5z" />
    <glyph glyph-name="aring" unicode="&#xe5;" horiz-adv-x="1003" 
d="M952 0h-393v78q-92 -92 -207 -92q-119 0 -196.5 92t-77.5 233q0 143 85 238.5t216 95.5q49 0 89 -13.5t91 -47.5v106q0 82 -21 115t-73 33q-38 0 -60.5 -18t-37.5 -60l-269 55q56 104 160.5 160.5t243.5 56.5q53 0 101 -8t95.5 -29.5t82 -55t56 -87.5t21.5 -123v-514h94
v-215zM559 258v152q-39 47 -86 47q-44 0 -70 -36.5t-26 -96.5q0 -58 24.5 -90.5t67.5 -32.5q28 0 48.5 12.5t41.5 44.5zM504 1501q86 0 146.5 -60.5t60.5 -146.5t-60.5 -147.5t-146.5 -61.5t-147.5 61.5t-61.5 147.5t61.5 146.5t147.5 60.5zM502 1397q-43 0 -73 -30t-30 -73
t30 -73.5t73 -30.5t73.5 30.5t30.5 73.5t-30.5 73t-73.5 30z" />
    <glyph glyph-name="ae" unicode="&#xe6;" horiz-adv-x="1386" 
d="M1059 313l248 -92q-99 -250 -363 -250q-205 0 -295 162q-78 -85 -146 -123.5t-141 -38.5q-123 0 -199.5 91t-76.5 237q0 155 83.5 247.5t221.5 92.5q49 0 86.5 -14t85.5 -50v136q0 68 -22 97.5t-74 29.5q-38 0 -59 -18.5t-35 -63.5l-269 53q55 109 157.5 166t242.5 57
q69 0 120.5 -12.5t118.5 -46.5q98 59 203 59q56 0 105.5 -12.5t103 -50.5t91 -99t60 -167.5t17.5 -245.5h-461q-2 -155 17 -213t75 -58q46 0 69.5 28.5t35.5 98.5zM563 238v170q-46 43 -86 43q-47 0 -73.5 -33t-26.5 -92q0 -63 26 -101.5t70 -38.5q25 0 44 12.5t46 39.5z
M862 606h162q3 126 -14.5 173.5t-63.5 47.5q-52 0 -68 -48t-16 -173z" />
    <glyph glyph-name="ccedilla" unicode="&#xe7;" horiz-adv-x="897" 
d="M268 -340l11 115q155 -6 155 73q0 29 -21 44.5t-71 23.5q19 24 37 64q-147 34 -228 172t-81 360q0 228 91.5 368t239.5 140q75 0 119.5 -30t71.5 -95h4v109h215v-406h-215q-7 112 -35 162.5t-82 50.5q-56 0 -77 -64.5t-21 -234.5q0 -131 10 -200t33.5 -97.5t67.5 -28.5
q49 0 72 48t32 163l231 -86q-15 -95 -51.5 -164.5t-84 -105t-93.5 -51.5t-94 -17v-4q44 -13 67 -49t23 -88q0 -84 -61.5 -132t-167.5 -48q-58 0 -97 8z" />
    <glyph glyph-name="egrave" unicode="&#xe8;" horiz-adv-x="874" 
d="M557 313l248 -92q-44 -118 -139.5 -184t-221.5 -66q-187 0 -282.5 137t-95.5 406q0 120 23 213t60 149.5t89.5 92.5t104 49.5t110.5 13.5q42 0 82.5 -10t82.5 -31t77.5 -58.5t63.5 -89t44 -126.5t16 -166v-94h-457q0 -115 9.5 -173.5t28.5 -78t55 -19.5q42 0 66 28.5
t36 98.5zM362 606h158v49q0 90 -18.5 131t-59.5 41q-43 0 -61.5 -48t-18.5 -173zM657 1094h-176l-405 379h387z" />
    <glyph glyph-name="eacute" unicode="&#xe9;" horiz-adv-x="874" 
d="M557 313l248 -92q-44 -118 -139.5 -184t-221.5 -66q-187 0 -282.5 137t-95.5 406q0 120 23 213t60 149.5t89.5 92.5t104 49.5t110.5 13.5q42 0 82.5 -10t82.5 -31t77.5 -58.5t63.5 -89t44 -126.5t16 -166v-94h-457q0 -115 9.5 -173.5t28.5 -78t55 -19.5q42 0 66 28.5
t36 98.5zM362 606h158v49q0 90 -18.5 131t-59.5 41q-43 0 -61.5 -48t-18.5 -173zM246 1094l194 379h387l-405 -379h-176z" />
    <glyph glyph-name="ecircumflex" unicode="&#xea;" horiz-adv-x="874" 
d="M557 313l248 -92q-44 -118 -139.5 -184t-221.5 -66q-187 0 -282.5 137t-95.5 406q0 120 23 213t60 149.5t89.5 92.5t104 49.5t110.5 13.5q42 0 82.5 -10t82.5 -31t77.5 -58.5t63.5 -89t44 -126.5t16 -166v-94h-457q0 -115 9.5 -173.5t28.5 -78t55 -19.5q42 0 66 28.5
t36 98.5zM362 606h158v49q0 90 -18.5 131t-59.5 41q-43 0 -61.5 -48t-18.5 -173zM106 1085l185 388h293l184 -388h-190l-140 197l-141 -197h-191z" />
    <glyph glyph-name="edieresis" unicode="&#xeb;" horiz-adv-x="874" 
d="M557 313l248 -92q-44 -118 -139.5 -184t-221.5 -66q-187 0 -282.5 137t-95.5 406q0 120 23 213t60 149.5t89.5 92.5t104 49.5t110.5 13.5q42 0 82.5 -10t82.5 -31t77.5 -58.5t63.5 -89t44 -126.5t16 -166v-94h-457q0 -115 9.5 -173.5t28.5 -78t55 -19.5q42 0 66 28.5
t36 98.5zM362 606h158v49q0 90 -18.5 131t-59.5 41q-43 0 -61.5 -48t-18.5 -173zM240 1419q54 0 91.5 -37.5t37.5 -91.5t-37.5 -92.5t-91.5 -38.5t-92.5 38.5t-38.5 92.5t38.5 91.5t92.5 37.5zM668 1419q54 0 91.5 -37.5t37.5 -91.5t-37.5 -92.5t-91.5 -38.5t-92.5 38.5
t-38.5 92.5t38.5 91.5t92.5 37.5z" />
    <glyph glyph-name="igrave" unicode="&#xec;" horiz-adv-x="618" 
d="M63 0v215h109v573h-109v216h408v-789h96v-215h-504zM530 1094h-176l-405 379h387z" />
    <glyph glyph-name="iacute" unicode="&#xed;" horiz-adv-x="618" 
d="M63 0v215h109v573h-109v216h408v-789h96v-215h-504zM119 1094l194 379h387l-405 -379h-176z" />
    <glyph glyph-name="icircumflex" unicode="&#xee;" horiz-adv-x="618" 
d="M63 0v215h109v573h-109v216h408v-789h96v-215h-504zM-20 1085l184 388h293l184 -388h-190l-140 197l-141 -197h-190z" />
    <glyph glyph-name="idieresis" unicode="&#xef;" horiz-adv-x="618" 
d="M63 0v215h109v573h-109v216h408v-789h96v-215h-504zM98 1419q54 0 91.5 -37.5t37.5 -91.5t-37.5 -92.5t-91.5 -38.5t-92.5 38.5t-38.5 92.5t38.5 91.5t92.5 37.5zM526 1419q54 0 91.5 -37.5t37.5 -91.5t-37.5 -92.5t-91.5 -38.5t-92.5 38.5t-38.5 92.5t38.5 91.5
t92.5 37.5z" />
    <glyph glyph-name="eth" unicode="&#xf0;" horiz-adv-x="980" 
d="M213 1184l211 100q-62 69 -141 113l155 63q87 -33 166 -90l189 90l88 -78l-191 -92q223 -219 223 -696q0 -141 -26 -252t-67 -179t-98.5 -112.5t-115 -62t-121.5 -17.5q-117 0 -212.5 66.5t-150 184t-54.5 261.5q0 238 107.5 393.5t258.5 155.5q92 0 146 -45l4 4
q-33 127 -90 205l-191 -92zM379 502q0 -157 27 -229t86 -72q57 0 83.5 72t26.5 229t-26.5 229t-83.5 72q-59 0 -86 -72t-27 -229z" />
    <glyph glyph-name="ntilde" unicode="&#xf1;" horiz-adv-x="1087" 
d="M53 0v215h111v573h-111v216h410v-107h8q8 16 22 33.5t39.5 39.5t66 36t89.5 14q113 0 185.5 -85t72.5 -239v-481h101v-215h-400v647q0 80 -18.5 112t-65.5 32q-25 0 -42.5 -8.5t-57.5 -39.5v-528h86v-215h-496zM340 1147h-139q6 114 67.5 190t147.5 76q46 0 139.5 -37
t126.5 -37q43 0 61 76h144q-10 -117 -71 -191.5t-144 -74.5q-54 0 -147.5 38t-116.5 38q-25 0 -42.5 -20.5t-25.5 -57.5z" />
    <glyph glyph-name="ograve" unicode="&#xf2;" horiz-adv-x="980" 
d="M68 502q0 234 118.5 382t305.5 148q186 0 303.5 -148.5t117.5 -381.5q0 -234 -117.5 -382.5t-303.5 -148.5q-187 0 -305.5 148.5t-118.5 382.5zM379 502q0 -157 27 -229t86 -72q57 0 83.5 72t26.5 229t-26.5 229t-83.5 72q-59 0 -86 -72t-27 -229zM711 1094h-176
l-406 379h387z" />
    <glyph glyph-name="oacute" unicode="&#xf3;" horiz-adv-x="980" 
d="M68 502q0 234 118.5 382t305.5 148q186 0 303.5 -148.5t117.5 -381.5q0 -234 -117.5 -382.5t-303.5 -148.5q-187 0 -305.5 148.5t-118.5 382.5zM379 502q0 -157 27 -229t86 -72q57 0 83.5 72t26.5 229t-26.5 229t-83.5 72q-59 0 -86 -72t-27 -229zM299 1094l195 379h387
l-406 -379h-176z" />
    <glyph glyph-name="ocircumflex" unicode="&#xf4;" horiz-adv-x="980" 
d="M68 502q0 234 118.5 382t305.5 148q186 0 303.5 -148.5t117.5 -381.5q0 -234 -117.5 -382.5t-303.5 -148.5q-187 0 -305.5 148.5t-118.5 382.5zM379 502q0 -157 27 -229t86 -72q57 0 83.5 72t26.5 229t-26.5 229t-83.5 72q-59 0 -86 -72t-27 -229zM160 1085l184 388h293
l184 -388h-190l-139 197l-142 -197h-190z" />
    <glyph glyph-name="otilde" unicode="&#xf5;" horiz-adv-x="980" 
d="M68 502q0 234 118.5 382t305.5 148q186 0 303.5 -148.5t117.5 -381.5q0 -234 -117.5 -382.5t-303.5 -148.5q-187 0 -305.5 148.5t-118.5 382.5zM379 502q0 -157 27 -229t86 -72q57 0 83.5 72t26.5 229t-26.5 229t-83.5 72q-59 0 -86 -72t-27 -229zM287 1147h-140
q6 114 67.5 190t147.5 76q46 0 140 -37t127 -37q43 0 61 76h144q-10 -117 -71 -191.5t-145 -74.5q-54 0 -147.5 38t-116.5 38q-51 0 -67 -78z" />
    <glyph glyph-name="odieresis" unicode="&#xf6;" horiz-adv-x="980" 
d="M68 502q0 234 118.5 382t305.5 148q186 0 303.5 -148.5t117.5 -381.5q0 -234 -117.5 -382.5t-303.5 -148.5q-187 0 -305.5 148.5t-118.5 382.5zM379 502q0 -157 27 -229t86 -72q57 0 83.5 72t26.5 229t-26.5 229t-83.5 72q-59 0 -86 -72t-27 -229zM281 1419
q54 0 91.5 -37.5t37.5 -91.5t-37.5 -92.5t-91.5 -38.5t-92.5 38.5t-38.5 92.5t38.5 91.5t92.5 37.5zM709 1419q54 0 91.5 -37.5t37.5 -91.5t-37.5 -92.5t-91.5 -38.5t-92.5 38.5t-38.5 92.5t38.5 91.5t92.5 37.5z" />
    <glyph glyph-name="divide" unicode="&#xf7;" horiz-adv-x="1368" 
d="M682 1219q54 0 91.5 -37.5t37.5 -91.5t-37.5 -91.5t-91.5 -37.5t-91.5 37.5t-37.5 91.5t37.5 91.5t91.5 37.5zM127 784h1112v-215h-1112v215zM682 393q54 0 91.5 -37.5t37.5 -91.5t-37.5 -91.5t-91.5 -37.5t-91.5 37.5t-37.5 91.5t37.5 91.5t91.5 37.5z" />
    <glyph glyph-name="oslash" unicode="&#xf8;" horiz-adv-x="980" 
d="M383 471l190 260q-24 72 -81 72q-59 0 -86 -72t-27 -229v-31h4zM68 502q0 234 118.5 382t305.5 148q145 0 241 -86l58 86l122 -84l-82 -117q39 -63 60.5 -152.5t21.5 -176.5q0 -234 -117.5 -382.5t-303.5 -148.5q-67 0 -131 22.5t-109 59.5l-64 -82l-118 88l84 109
q-34 44 -60 139t-26 195zM598 524l-188 -260q15 -36 33.5 -49.5t48.5 -13.5q57 0 83.5 72t26.5 229v22h-4z" />
    <glyph glyph-name="ugrave" unicode="&#xf9;" horiz-adv-x="1067" 
d="M920 1004v-789h110v-215h-409v80q-62 -51 -114 -73.5t-112 -22.5q-113 0 -185.5 84.5t-72.5 238.5v481h-100v216h399v-648q0 -80 18.5 -111.5t65.5 -31.5q26 0 44 8.5t57 38.5v528h-86v216h385zM754 1094h-176l-406 379h387z" />
    <glyph glyph-name="uacute" unicode="&#xfa;" horiz-adv-x="1067" 
d="M920 1004v-789h110v-215h-409v80q-62 -51 -114 -73.5t-112 -22.5q-113 0 -185.5 84.5t-72.5 238.5v481h-100v216h399v-648q0 -80 18.5 -111.5t65.5 -31.5q26 0 44 8.5t57 38.5v528h-86v216h385zM342 1094l195 379h387l-406 -379h-176z" />
    <glyph glyph-name="ucircumflex" unicode="&#xfb;" horiz-adv-x="1067" 
d="M920 1004v-789h110v-215h-409v80q-62 -51 -114 -73.5t-112 -22.5q-113 0 -185.5 84.5t-72.5 238.5v481h-100v216h399v-648q0 -80 18.5 -111.5t65.5 -31.5q26 0 44 8.5t57 38.5v528h-86v216h385zM203 1085l184 388h293l184 -388h-190l-139 197l-142 -197h-190z" />
    <glyph glyph-name="udieresis" unicode="&#xfc;" horiz-adv-x="1067" 
d="M920 1004v-789h110v-215h-409v80q-62 -51 -114 -73.5t-112 -22.5q-113 0 -185.5 84.5t-72.5 238.5v481h-100v216h399v-648q0 -80 18.5 -111.5t65.5 -31.5q26 0 44 8.5t57 38.5v528h-86v216h385zM322 1419q54 0 91.5 -37.5t37.5 -91.5t-37.5 -92.5t-91.5 -38.5t-93 38.5
t-39 92.5t39 91.5t93 37.5zM750 1419q54 0 91.5 -37.5t37.5 -91.5t-37.5 -92.5t-91.5 -38.5t-93 38.5t-39 92.5t39 91.5t93 37.5z" />
    <glyph glyph-name="yacute" unicode="&#xfd;" horiz-adv-x="917" 
d="M207 -455v215h141l43 185l-295 843h-71v216h409v-216h-67l135 -391h4l94 391h-65v216h358v-216h-80l-309 -1243h-297zM268 1094l195 379h387l-406 -379h-176z" />
    <glyph glyph-name="thorn" unicode="&#xfe;" horiz-adv-x="980" 
d="M37 -459v215h98v1467h-98v215h397v-535h4q35 62 77.5 89.5t102.5 27.5q141 0 217 -132.5t76 -381.5q0 -253 -75 -387.5t-213 -134.5q-56 0 -100 21.5t-89 72.5v-322h137v-215h-534zM434 602v-217q0 -100 19 -143t65 -43q52 0 67 60t15 249q0 152 -18.5 212t-65.5 60
q-82 0 -82 -178z" />
    <glyph glyph-name="ydieresis" unicode="&#xff;" horiz-adv-x="917" 
d="M207 -455v215h141l43 185l-295 843h-71v216h409v-216h-67l135 -391h4l94 391h-65v216h358v-216h-80l-309 -1243h-297zM248 1419q54 0 91.5 -37.5t37.5 -91.5t-37.5 -92.5t-91.5 -38.5t-92.5 38.5t-38.5 92.5t38.5 91.5t92.5 37.5zM676 1419q54 0 91.5 -37.5t37.5 -91.5
t-37.5 -92.5t-91.5 -38.5t-92.5 38.5t-38.5 92.5t38.5 91.5t92.5 37.5z" />
    <glyph glyph-name="dotlessi" unicode="&#x131;" horiz-adv-x="618" 
d="M63 0v215h109v573h-109v216h408v-789h96v-215h-504z" />
    <glyph glyph-name="Lslash" unicode="&#x141;" horiz-adv-x="1067" 
d="M51 0v215h127v279l-127 -88v243l127 88v486h-127v215h627v-215h-158v-267l205 152v-246l-205 -149v-498h242v426h256v-641h-967z" />
    <glyph glyph-name="lslash" unicode="&#x142;" horiz-adv-x="575" 
d="M25 0v215h112v297l-127 -98v219l127 96v494h-112v215h411v-477l113 88v-218l-113 -90v-526h99v-215h-510z" />
    <glyph glyph-name="OE" unicode="&#x152;" horiz-adv-x="1492" 
d="M1417 0h-747q-148 0 -262 48.5t-187 139t-110 215t-37 279.5q0 756 600 756h743v-459h-256v244h-186v-381h155v-215h-155v-412h186v256h256v-471zM633 215v1008q-77 -13 -115.5 -59t-53.5 -142t-15 -281q0 -100 1.5 -160.5t8 -125t18 -100.5t32 -68.5t51 -48.5t73.5 -23z
" />
    <glyph glyph-name="oe" unicode="&#x153;" horiz-adv-x="1366" 
d="M1036 311l244 -96q-46 -118 -138 -181t-220 -63q-140 0 -232 80q-56 -43 -106 -61.5t-115 -18.5q-186 0 -296 144.5t-110 390.5q0 239 110.5 382.5t293.5 143.5q133 0 231 -82q101 82 230 82q63 0 116 -15.5t103 -55.5t83.5 -103.5t51.5 -165.5t14 -235h-456v-107
q0 -89 19.5 -126.5t72.5 -37.5q42 0 65 30t39 95zM375 475q0 -157 19.5 -215.5t66.5 -58.5q32 0 49 24t25 91.5t8 197.5q0 165 -18.5 227t-67.5 62q-48 0 -65 -68t-17 -260zM838 606h161q0 131 -15.5 176t-61.5 45q-32 0 -49 -16t-26.5 -65t-8.5 -140z" />
    <glyph glyph-name="Scaron" unicode="&#x160;" horiz-adv-x="897" 
d="M74 0v467h215q-9 -262 127 -262q53 0 80.5 38.5t27.5 104.5q0 51 -25.5 100.5t-66.5 92.5t-90 87.5t-98.5 94.5t-90.5 104.5t-66.5 126.5t-25.5 152q0 151 83.5 247.5t213.5 96.5q54 0 96 -14.5t65.5 -32.5t64.5 -55v90h215v-434h-215q3 124 -28.5 177.5t-94.5 53.5
q-43 0 -68.5 -29t-25.5 -78q0 -86 71 -157q22 -22 87 -77.5t110 -100.5q107 -107 153 -204.5t46 -213.5q0 -167 -92 -277t-232 -110q-65 0 -115.5 23.5t-105.5 78.5v-90h-215zM780 1898l-184 -387h-293l-184 387h190l140 -196l141 196h190z" />
    <glyph glyph-name="scaron" unicode="&#x161;" horiz-adv-x="747" 
d="M70 0v272h215q9 -108 86 -108q30 0 47.5 19t17.5 50q0 29 -21 56t-54.5 51.5t-74.5 51.5t-81.5 60.5t-74 72.5t-54.5 94.5t-21 119.5q0 126 65 203.5t169 77.5q91 0 157 -82h5v66h215v-261h-215q-15 105 -84 105q-31 0 -49.5 -19.5t-18.5 -50.5q0 -32 21.5 -60.5
t56 -52.5t76 -50t83.5 -59t76.5 -72t56 -96.5t21.5 -125.5q0 -126 -63.5 -202t-169.5 -76q-34 0 -58.5 4.5t-41.5 14.5t-26 17.5t-22.5 23.5t-19.5 22h-4v-66h-215zM705 1473l-185 -388h-293l-184 388h190l140 -197l141 197h191z" />
    <glyph glyph-name="Ydieresis" unicode="&#x178;" horiz-adv-x="1173" 
d="M291 0v215h119v332l-285 676h-98v215h551v-215h-129l176 -430l184 430h-131v215h467v-215h-101l-292 -676v-332h112v-215h-573zM375 1845q54 0 91.5 -37.5t37.5 -91.5t-37.5 -92.5t-91.5 -38.5t-92.5 38.5t-38.5 92.5t38.5 91.5t92.5 37.5zM803 1845q54 0 91.5 -37.5
t37.5 -91.5t-37.5 -92.5t-91.5 -38.5t-92.5 38.5t-38.5 92.5t38.5 91.5t92.5 37.5z" />
    <glyph glyph-name="Zcaron" unicode="&#x17d;" horiz-adv-x="960" 
d="M51 0v215l498 1008h-252v-240h-215v455h819v-215l-495 -1008h288v258h215v-473h-858zM811 1898l-184 -387h-293l-184 387h190l139 -196l142 196h190z" />
    <glyph glyph-name="zcaron" unicode="&#x17e;" horiz-adv-x="831" 
d="M45 0v197l440 630h-223v-143h-190v320h708v-193l-440 -635h256v152h190v-328h-741zM748 1473l-185 -388h-293l-184 388h190l140 -197l141 197h191z" />
    <glyph glyph-name="florin" unicode="&#x192;" horiz-adv-x="1138" 
d="M905 1004l-43 -310h-133l-139 -846q-24 -141 -79.5 -224t-135.5 -83h-217l37 271q79 0 110.5 32t46.5 127l121 723h-121l43 310h123l25 143q26 151 75.5 232t143.5 81h217l-37 -264h-63t-42 -11t-28 -36.5t-21 -75.5l-14 -69h131z" />
    <glyph glyph-name="circumflex" unicode="&#x2c6;" 
d="M10 1085l185 388h292l185 -388h-191l-139 197l-141 -197h-191z" />
    <glyph glyph-name="caron" unicode="&#x2c7;" 
d="M672 1473l-185 -388h-292l-185 388h191l139 -197l141 197h191z" />
    <glyph glyph-name="uni02C9" unicode="&#x2c9;" 
d="M-49 1370h782v-184h-782v184z" />
    <glyph glyph-name="breve" unicode="&#x2d8;" 
d="M506 1438h156q-19 -137 -107 -219t-215 -82q-129 0 -214.5 81.5t-102.5 219.5h155q12 -79 51 -115q42 -39 113 -39q140 0 164 154z" />
    <glyph glyph-name="dotaccent" unicode="&#x2d9;" 
d="M342 1419q54 0 91.5 -37.5t37.5 -91.5t-37.5 -92.5t-91.5 -38.5t-92.5 38.5t-38.5 92.5t38.5 91.5t92.5 37.5z" />
    <glyph glyph-name="ring" unicode="&#x2da;" 
d="M342 1501q86 0 146.5 -60.5t60.5 -146.5t-60.5 -147.5t-146.5 -61.5t-147.5 61.5t-61.5 147.5t61.5 146.5t147.5 60.5zM340 1397q-43 0 -72.5 -30t-29.5 -73t29.5 -73.5t72.5 -30.5t73.5 30.5t30.5 73.5t-30.5 73t-73.5 30z" />
    <glyph glyph-name="ogonek" unicode="&#x2db;" 
d="M215 0h158q-41 -75 -41 -145q0 -129 112 -129q41 0 82 20v-133q-93 -45 -166 -45q-92 0 -149 58t-57 153q0 49 13 96t48 125z" />
    <glyph glyph-name="tilde" unicode="&#x2dc;" 
d="M137 1147h-139q6 114 67.5 190t147.5 76q46 0 139.5 -37t126.5 -37q44 0 62 76h143q-10 -117 -71 -191.5t-144 -74.5q-54 0 -147.5 38t-116.5 38q-25 0 -42.5 -20.5t-25.5 -57.5z" />
    <glyph glyph-name="hungarumlaut" unicode="&#x2dd;" 
d="M426 1094l195 379h387l-406 -379h-176zM-20 1094l194 379h387l-405 -379h-176z" />
    <glyph glyph-name="uni03A9" unicode="&#x3a9;" horiz-adv-x="1075" 
d="M252 209v6q-78 110 -128 260t-50 324q0 178 57 326.5t165 237.5t247 89q90 0 166.5 -39t127.5 -102.5t87 -146.5t52.5 -170.5t16.5 -174.5q0 -177 -52 -339t-126 -265v-6h205v-209h-414v150q61 61 103 206q47 165 47 402q0 96 -13 179.5t-38.5 150t-68 105t-97.5 38.5
q-107 0 -167.5 -133t-60.5 -350q0 -214 44.5 -375.5t105.5 -222.5v-150h-412v209h203z" />
    <glyph glyph-name="uni03BC" unicode="&#x3bc;" horiz-adv-x="1251" 
d="M236 -459v1463h299v-660q0 -60 20 -90.5t55 -30.5q53 0 109 60v721h299v-1004h-295v82h-4q-19 -42 -54.5 -68t-76.5 -26q-38 0 -58 20v-467h-294z" />
    <glyph glyph-name="pi" unicode="&#x3c0;" horiz-adv-x="985" 
d="M946 854h-106v-582q0 -173 22 -272h-225q-31 73 -31 272v582h-196q-8 -187 -35.5 -436t-69.5 -418h-223q41 187 68.5 436.5t29.5 417.5q-89 0 -143 -14l-27 172q35 28 106.5 46.5t170.5 18.5h676z" />
    <glyph glyph-name="uni2010" unicode="&#x2010;" 
d="M78 385v242h528v-242h-528z" />
    <glyph glyph-name="endash" unicode="&#x2013;" horiz-adv-x="1024" 
d="M-12 604h1048v-184h-1048v184z" />
    <glyph glyph-name="emdash" unicode="&#x2014;" horiz-adv-x="2048" 
d="M-12 604h2072v-184h-2072v184z" />
    <glyph glyph-name="quoteleft" unicode="&#x2018;" horiz-adv-x="598" 
d="M459 1438v-160q-80 -9 -117 -62t-37 -161h154v-320h-320v309q0 186 81.5 286t238.5 108z" />
    <glyph glyph-name="quoteright" unicode="&#x2019;" horiz-adv-x="598" 
d="M139 735v160q80 9 117 62t37 161h-154v320h320v-310q0 -186 -81.5 -285.5t-238.5 -107.5z" />
    <glyph glyph-name="quotesinglbase" unicode="&#x201a;" horiz-adv-x="598" 
d="M139 -383v160q80 9 117 62t37 161h-154v319h320v-309q0 -186 -81.5 -285.5t-238.5 -107.5z" />
    <glyph glyph-name="quotedblleft" unicode="&#x201c;" horiz-adv-x="1067" 
d="M932 1438v-160q-80 -9 -117 -62t-37 -161h154v-320h-320v309q0 186 81.5 286t238.5 108zM455 1438v-160q-80 -9 -117 -62t-37 -161h154v-320h-320v309q0 186 81.5 286t238.5 108z" />
    <glyph glyph-name="quotedblright" unicode="&#x201d;" horiz-adv-x="1067" 
d="M612 735v160q80 9 117 62t37 161h-154v320h320v-310q0 -186 -81.5 -285.5t-238.5 -107.5zM135 735v160q80 9 117 62t37 161h-154v320h320v-310q0 -186 -81.5 -285.5t-238.5 -107.5z" />
    <glyph glyph-name="quotedblbase" unicode="&#x201e;" horiz-adv-x="1067" 
d="M612 -383v160q80 9 117 62t37 161h-154v319h320v-309q0 -186 -81.5 -285.5t-238.5 -107.5zM135 -383v160q80 9 117 62t37 161h-154v319h320v-309q0 -186 -81.5 -285.5t-238.5 -107.5z" />
    <glyph glyph-name="dagger" unicode="&#x2020;" horiz-adv-x="874" 
d="M371 -459l-72 770v271q46 46 63.5 99.5t20.5 158.5h-8q-44 0 -69.5 -18t-39.5 -58h-205v252h205q17 -41 41 -56t76 -18q0 102 -19 158.5t-65 95.5v242h279v-242q-49 -39 -68 -96q-18 -58 -18 -158q51 3 75 18t41 56h207v-252h-207q-14 40 -39 58t-69 18h-8
q3 -106 21 -159t65 -99v-271l-74 -770h-133z" />
    <glyph glyph-name="daggerdbl" unicode="&#x2021;" horiz-adv-x="874" 
d="M301 -459v242q49 37 68 90q18 58 18 160q-62 -2 -87.5 -17t-35.5 -57h-203v258h203q10 -40 39.5 -58.5t83.5 -21.5q3 131 -17.5 207.5t-68.5 142.5q50 63 66 140q20 81 20 213q-54 0 -82.5 -18.5t-40.5 -59.5h-203v254h203q17 -71 123 -74q0 104 -20 162.5t-66 89.5v244
h274v-244q-46 -30 -67 -88q-21 -62 -21 -164q106 3 123 74h205v-254h-205q-12 41 -40.5 59.5t-82.5 18.5q0 -131 20.5 -213.5t67.5 -139.5q-54 -71 -71 -147q-17 -78 -17 -203q55 3 83.5 21.5t39.5 58.5h205v-258h-205q-10 43 -35 57.5t-88 16.5q0 -105 19.5 -160t68.5 -90
v-242h-274z" />
    <glyph glyph-name="bullet" unicode="&#x2022;" horiz-adv-x="716" 
d="M360 963q118 0 201.5 -83.5t83.5 -201.5q0 -119 -83.5 -203t-201.5 -84t-202 84t-84 203q0 118 83.5 201.5t202.5 83.5z" />
    <glyph glyph-name="ellipsis" unicode="&#x2026;" horiz-adv-x="2048" 
d="M864 0v319h320v-319h-320zM1546 0v319h320v-319h-320zM182 0v319h320v-319h-320z" />
    <glyph glyph-name="perthousand" unicode="&#x2030;" horiz-adv-x="1748" 
d="M1534 262v236q0 84 -8 107.5t-33 23.5t-34 -24t-9 -109v-232q0 -84 8 -107.5t33 -23.5q27 0 35 22.5t8 106.5zM256 -16l567 1470h154l-567 -1470h-154zM301 938v236q0 84 -8 107.5t-33 23.5t-34 -24.5t-9 -109.5v-231q0 -84 8 -107.5t33 -23.5q27 0 35 22.5t8 106.5z
M1262 381q0 196 51.5 296.5t179.5 100.5q119 0 174 -95t55 -302q0 -200 -53.5 -298.5t-175.5 -98.5q-79 0 -128.5 36.5t-76 125t-26.5 235.5zM29 1057q0 196 51.5 296.5t179.5 100.5q119 0 174 -95t55 -302q0 -200 -53.5 -299t-175.5 -99q-79 0 -128.5 36.5t-76 125.5
t-26.5 236zM745 381q0 196 52 296.5t180 100.5q119 0 174 -95t55 -302q0 -200 -53.5 -298.5t-175.5 -98.5q-119 0 -175.5 90t-56.5 307zM1018 262v236q0 84 -8 107.5t-33 23.5t-34 -24t-9 -109v-232q0 -84 8 -107.5t33 -23.5q27 0 35 22.5t8 106.5z" />
    <glyph glyph-name="guilsinglleft" unicode="&#x2039;" horiz-adv-x="598" 
d="M309 0l-274 502l274 502h260l-272 -502l272 -502h-260z" />
    <glyph glyph-name="guilsinglright" unicode="&#x203a;" horiz-adv-x="598" 
d="M287 0h-258l270 502l-270 502h258l276 -502z" />
    <glyph glyph-name="fraction" unicode="&#x2044;" horiz-adv-x="212" 
d="M-254 -16l567 1470h152l-565 -1470h-154z" />
    <glyph glyph-name="Euro" unicode="&#x20ac;" horiz-adv-x="874" 
d="M823 397q-19 -207 -106 -316.5t-232 -109.5q-148 0 -246 133.5t-126 407.5h-88v145h77v82v29h-77v145h84q22 267 106.5 404t206.5 137q57 0 96.5 -19t81.5 -75h2v78h184v-424h-186q-9 115 -34.5 170t-73.5 55q-50 0 -72.5 -71.5t-26.5 -254.5h207v-145h-209v-27v-84h209
v-145h-205q6 -180 31.5 -253t79.5 -73q47 0 67.5 55.5t30.5 182.5z" />
    <glyph glyph-name="afii61289" unicode="&#x2113;" horiz-adv-x="831" 
d="M721 338l88 -98q-112 -263 -328 -263q-83 0 -144 28.5t-95.5 78.5t-51 109.5t-18.5 130.5v26q-14 -13 -43 -40.5t-43 -39.5l-53 131q108 108 137 144v532q0 238 88 365t219 127q110 0 165.5 -96.5t55.5 -260.5q0 -318 -299 -684v-122q0 -117 35 -174.5t98 -57.5
q99 0 189 164zM399 1038v-272q79 119 125.5 243t46.5 224q0 77 -19 114t-63 37q-18 0 -33 -17t-28.5 -54.5t-21 -107.5t-7.5 -167z" />
    <glyph glyph-name="trademark" unicode="&#x2122;" horiz-adv-x="2048" 
d="M451 618v676h-254v144h665v-144h-246v-676h-165zM958 618v820h261l147 -566h4l148 566h260v-820h-158v654h-4l-174 -654h-150l-172 654h-4v-654h-158z" />
    <glyph glyph-name="Omega" unicode="&#x2126;" horiz-adv-x="1075" 
d="M252 209v6q-78 110 -128 260t-50 324q0 178 57 326.5t165 237.5t247 89q90 0 166.5 -39t127.5 -102.5t87 -146.5t52.5 -170.5t16.5 -174.5q0 -177 -52 -339t-126 -265v-6h205v-209h-414v150q61 61 103 206q47 165 47 402q0 96 -13 179.5t-38.5 150t-68 105t-97.5 38.5
q-107 0 -167.5 -133t-60.5 -350q0 -214 44.5 -375.5t105.5 -222.5v-150h-412v209h203z" />
    <glyph glyph-name="estimated" unicode="&#x212e;" horiz-adv-x="1787" 
d="M1716 692h-1333q-10 0 -10 -8v-403q0 -29 16 -48q99 -103 229.5 -161t274.5 -58q156 0 293.5 65.5t238.5 180.5h117q-110 -133 -282 -210t-369 -77q-167 0 -319 58.5t-262 157t-175 235.5t-65 287q0 152 65 289.5t175 237t262 158t319 58.5q168 0 321 -58.5t263.5 -158
t175.5 -237t65 -289.5v-19zM1413 745v406q0 29 -18 47q-102 99 -230.5 155t-271.5 56q-142 0 -272 -58t-230 -159q-18 -18 -18 -51v-396q0 -14 10 -14h1022q8 0 8 14z" />
    <glyph glyph-name="partialdiff" unicode="&#x2202;" horiz-adv-x="952" 
d="M180 1307l-61 200q130 111 297 111q70 0 134 -27t122 -87.5t101 -148t68 -217.5t25 -288q0 -418 -119 -642t-339 -224q-106 0 -184.5 69.5t-116 176t-37.5 231.5q0 250 105.5 397.5t252.5 147.5q75 0 129 -38t76 -81h2q2 12 2 61q0 113 -29.5 216t-89 172t-135.5 69
q-105 0 -203 -98zM428 201h4q40 0 73.5 42t56 110.5t37 147.5t19.5 163q-13 51 -51.5 92t-97.5 41q-50 0 -89 -51.5t-59 -131.5t-20 -170q0 -107 34 -175t93 -68z" />
    <glyph glyph-name="uni2206" unicode="&#x2206;" horiz-adv-x="1052" 
d="M47 0v150l350 1306h275l332 -1300v-156h-957zM281 205h485l-148 549q-11 54 -45 191t-43 185h-4q-6 -44 -39 -167.5t-45 -182.5z" />
    <glyph glyph-name="product" unicode="&#x220f;" horiz-adv-x="1193" 
d="M1141 1196h-150v-1395h-237v1395h-316v-1395h-237v1395h-152v236h1092v-236z" />
    <glyph glyph-name="summation" unicode="&#x2211;" horiz-adv-x="901" 
d="M868 -199h-823v174l383 648l-375 626v183h791v-211h-488v-7l332 -538l-377 -627v-6h557v-242z" />
    <glyph glyph-name="minus" unicode="&#x2212;" horiz-adv-x="1366" 
d="M127 784h1112v-215h-1112v215z" />
    <glyph glyph-name="uni2215" unicode="&#x2215;" horiz-adv-x="212" 
d="M-254 -16l567 1470h152l-565 -1470h-154z" />
    <glyph glyph-name="uni2219" unicode="&#x2219;" horiz-adv-x="598" 
d="M139 580v319h320v-319h-320z" />
    <glyph glyph-name="radical" unicode="&#x221a;" horiz-adv-x="999" 
d="M997 1729l-360 -2001h-188l-230 886l-125 -49l-35 148l306 123l143 -588q5 -31 17.5 -103.5t15.5 -97.5l2 -2q2 13 10.5 89.5t15.5 125.5l269 1469h159z" />
    <glyph glyph-name="infinity" unicode="&#x221e;" horiz-adv-x="1402" 
d="M1317 592v-2q0 -146 -87 -235t-206 -89q-85 0 -159.5 44t-157.5 159q-80 -100 -156.5 -151.5t-177.5 -51.5q-117 0 -203 89t-86 225q0 140 86 229.5t217 89.5q95 0 171 -49.5t151 -149.5q71 83 105 113q99 86 220 86q121 -2 202 -86t81 -221zM389 401h2q66 0 119 43.5
t121 128.5q-72 99 -102 129q-66 64 -144 64t-121 -52t-43 -136q0 -74 49 -125.5t119 -51.5zM1020 766h-2q-19 0 -39 -5.5t-35.5 -12.5t-35 -22t-30.5 -24t-30 -29.5t-25.5 -28t-25 -30.5t-21.5 -26q84 -109 134.5 -148t117.5 -39q68 0 110 57t42 122q0 80 -44 133t-116 53z
" />
    <glyph glyph-name="integral" unicode="&#x222b;" horiz-adv-x="735" 
d="M670 1751l-23 -180q-28 14 -55 14q-50 0 -82 -51q-43 -65 -43 -344q0 -163 11 -477.5t11 -505.5q0 -289 -59 -416q-23 -51 -63.5 -84.5t-84 -47t-92.5 -13.5q-77 0 -131 28l29 189q38 -19 68 -19q47 0 69 39q39 65 39 316q0 193 -11 516t-11 497q0 183 23 288t79 175
q38 45 97.5 71t121.5 26q65 0 107 -21z" />
    <glyph glyph-name="approxequal" unicode="&#x2248;" horiz-adv-x="907" 
d="M760 895l84 -72q-34 -88 -95.5 -144t-134.5 -56q-45 0 -84.5 15t-97.5 54q-35 26 -50.5 36t-40.5 20t-50 10q-24 0 -44 -9.5t-37 -30t-27.5 -37t-26.5 -45.5q-2 -3 -3.5 -5.5t-2.5 -5.5l-87 69q37 89 100 144t142 55q24 0 46 -4t43.5 -13.5t32 -14.5t32.5 -19t24 -15
q4 -3 17.5 -12t17.5 -11.5t15.5 -10t16 -10t14 -7.5t15 -7t13.5 -4.5t15 -3.5t14 -1q45 0 74 33t65 102zM760 551l84 -72q-34 -88 -95.5 -144t-134.5 -56q-45 0 -84 16t-98 55q-35 26 -50.5 36t-40.5 20t-50 10q-26 0 -46.5 -10t-39 -34.5t-27.5 -39.5t-28 -51l-87 69
q37 90 100 144.5t142 54.5q21 0 41.5 -3.5t33.5 -7t32.5 -13.5t25 -13t24.5 -15l19 -12q7 -5 25.5 -17t26 -16.5t22.5 -13t23.5 -11.5t20.5 -6t22 -3q24 0 43 9t37 31.5t28.5 39t30.5 53.5z" />
    <glyph glyph-name="notequal" unicode="&#x2260;" horiz-adv-x="907" 
d="M676 999l-62 -153h213v-146h-260l-98 -243h358v-144h-405l-78 -192l-108 37l63 155h-217v144h264l96 243h-360v146h407l78 192z" />
    <glyph glyph-name="lessequal" unicode="&#x2264;" horiz-adv-x="907" 
d="M821 205l-729 418v155l729 420v-174l-600 -319v-5l600 -323v-172zM831 -12h-745v147h745v-147z" />
    <glyph glyph-name="greaterequal" unicode="&#x2265;" horiz-adv-x="907" 
d="M96 1198l729 -420v-155l-727 -418v172l598 323v5l-600 319v174zM831 -12h-745v147h745v-147z" />
    <glyph glyph-name="lozenge" unicode="&#x25ca;" horiz-adv-x="995" 
d="M911 715l-321 -805h-199l-303 805l320 807h198zM698 709l-157 446q-23 78 -33 148h-8q-16 -90 -35 -148l-166 -434l162 -459q20 -75 28 -137h11q17 98 30 131z" />
    <glyph glyph-name="fi" unicode="&#xfb01;" horiz-adv-x="1087" 
d="M41 0v215h100v573h-100v216h100v65q0 184 114.5 287.5t291.5 103.5q270 0 379 -264l-299 -96q-3 79 -24 112t-68 33q-51 0 -73 -38.5t-22 -129.5v-73h486v-789h106v-215h-446v215h41v573h-187v-573h43v-215h-442z" />
    <glyph glyph-name="fl" unicode="&#xfb02;" horiz-adv-x="1067" 
d="M39 0v215h100v573h-100v216h100v63q0 92 34 168t90.5 124.5t128.5 74.5t151 26q70 0 143 -22h238v-1223h104v-215h-446v215h43v573h-187v-573h43v-215h-442zM438 1004h187v73q0 91 -21.5 129.5t-68.5 38.5q-50 0 -73.5 -38.5t-23.5 -129.5v-73z" />
    <glyph glyph-name="one.superior" horiz-adv-x="512" 
d="M90 676v147h68v412q-34 -9 -68 -14v143q59 10 99.5 30.5t84.5 59.5h84v-631h66v-147h-334z" />
    <glyph glyph-name="two.superior" horiz-adv-x="512" 
d="M477 676h-463q-2 75 11 136t35 102t49.5 75t55.5 62t51 55.5t37.5 63t14.5 77.5q0 33 -10 47.5t-33 14.5q-43 0 -43 -70q0 -21 6 -68l-174 9q-2 18 -2 45q0 107 60.5 168t167.5 61q104 0 168.5 -59t64.5 -156q0 -62 -27.5 -115t-68 -90.5t-81.5 -71t-74.5 -72
t-41.5 -77.5h144v113h153v-250z" />
    <glyph glyph-name="three.superior" horiz-adv-x="512" 
d="M16 922l177 14q-3 -87 6.5 -112t36.5 -25q11 0 18.5 3t12 11t7 15t4 23.5t1.5 28v35.5q0 61 -17 81t-69 16v145q55 -3 69 10t14 68q0 44 -10 62t-33 18q-25 0 -34 -23t-6 -92l-168 17q12 237 223 237q104 0 165.5 -57t61.5 -154q0 -54 -17.5 -89t-60.5 -69
q46 -40 66 -83.5t20 -106.5q0 -108 -63 -172t-170 -64q-119 0 -178 62t-56 201z" />
    <glyph glyph-name="a.superior" horiz-adv-x="661" 
d="M625 842h-256v49q-61 -55 -136 -55q-77 0 -127.5 55t-50.5 139q0 88 55.5 143.5t141.5 55.5q58 0 117 -37v65q0 47 -14 66.5t-48 19.5q-25 0 -39.5 -10.5t-23.5 -36.5l-174 33q75 131 262 131q105 0 167 -44.5t62 -129.5v-317h64v-127zM369 997v90q-27 27 -56 27t-45 -20
t-16 -56q0 -75 57 -75q36 0 60 34z" />
    <glyph glyph-name="o.superior" horiz-adv-x="641" 
d="M45 1143q0 140 76.5 228.5t197.5 88.5t198 -88.5t77 -228.5t-77 -229t-198 -89t-197.5 89t-76.5 229zM319 1321q-38 0 -55.5 -40t-17.5 -138q0 -96 17.5 -137t55.5 -41q41 0 57.5 41t16.5 137q0 103 -18.5 140.5t-55.5 37.5z" />
    </font>
</defs>
</svg>
