<?xml version="1.0" standalone="no"?>
<!DOCTYPE svg PUBLIC "-//W3C//DTD SVG 1.1//EN" "http://www.w3.org/Graphics/SVG/1.1/DTD/svg11.dtd" >
<svg xmlns="http://www.w3.org/2000/svg" xmlns:xlink="http://www.w3.org/1999/xlink" version="1.1">
<metadata>
Created by FontForge 20170731 at Mon Oct  5 11:35:03 2020
 By Aleksey,,,
(c) 1990, 2002 Adobe Systems Incorporated. All rights reserved.
</metadata>
<defs>
<font id="RockwellStd-Condensed" horiz-adv-x="704" >
  <font-face 
    font-family="Rockwell Std Condensed"
    font-weight="400"
    font-stretch="condensed"
    units-per-em="2048"
    panose-1="2 6 5 6 5 4 5 2 1 4"
    ascent="1391"
    descent="-657"
    x-height="1051"
    cap-height="1507"
    bbox="-301 -481 2066 1907"
    underline-thickness="102"
    underline-position="-307"
    unicode-range="U+0020-FB02"
  />
<missing-glyph horiz-adv-x="1024" 
d="M0 0v1434h1024v-1434h-1024zM512 809l348 522h-696zM573 717l349 -522v1044zM164 102h696l-348 523zM102 1239v-1044l349 522z" />
    <glyph glyph-name="f_i" unicode="fi" horiz-adv-x="788" 
d="M57 0v174h84v703h-84v174h84v161q0 145 73.5 232.5t191.5 87.5q106 0 178.5 -63.5t89.5 -178.5l-189 -61q-6 77 -23.5 108t-55.5 31q-40 0 -58 -38t-18 -120v-159h344v-877h78v-174h-314v174h47v703h-155v-703h51v-174h-324z" />
    <glyph glyph-name="f_l" unicode="fl" horiz-adv-x="788" 
d="M57 0v174h84v703h-84v174h84v149q0 161 77.5 246.5t193.5 85.5q54 0 114 -25h148v-1333h78v-174h-314v174h47v1075q0 53 -18.5 86t-56.5 33q-41 0 -60.5 -36t-19.5 -115v-166h94v-174h-94v-703h49v-174h-322z" />
    <glyph glyph-name=".notdef" horiz-adv-x="1024" 
d="M0 0v1434h1024v-1434h-1024zM512 809l348 522h-696zM573 717l349 -522v1044zM164 102h696l-348 523zM102 1239v-1044l349 522z" />
    <glyph glyph-name=".null" horiz-adv-x="0" 
 />
    <glyph glyph-name="nonmarkingreturn" horiz-adv-x="682" 
 />
    <glyph glyph-name="space" unicode=" " horiz-adv-x="681" 
 />
    <glyph glyph-name="exclam" unicode="!" horiz-adv-x="342" 
d="M119 399l-51 635v473h206v-473l-49 -635h-106zM68 0v248h206v-248h-206z" />
    <glyph glyph-name="quotedbl" unicode="&#x22;" horiz-adv-x="727" 
d="M78 1507h198v-250l-63 -333h-72l-63 333v250zM451 1507h198v-250l-63 -333h-72l-63 333v250z" />
    <glyph glyph-name="numbersign" unicode="#" horiz-adv-x="1368" 
d="M84 1016h319l82 397h148l-82 -397h397l82 397h148l-82 -397h184v-144h-215l-72 -348h287v-143h-317l-82 -397h-148l82 397h-397l-82 -397h-148l82 397h-186v143h217l72 348h-289v144zM520 872l-71 -348h397l72 348h-398z" />
    <glyph glyph-name="dollar" unicode="$" horiz-adv-x="917" 
d="M391 193v469q-184 175 -256 292.5t-72 221.5q0 139 91 230.5t237 100.5v97h117v-105q143 -25 225.5 -124t89.5 -257h-192q-6 83 -34.5 128t-88.5 65v-443q199 -174 272.5 -288t73.5 -236q0 -145 -95.5 -241.5t-250.5 -108.5v-166h-117v166q-150 19 -236 115.5t-92 269.5
h199q17 -149 129 -186zM508 551v-363q64 13 99.5 53t35.5 97q0 100 -135 213zM391 971v346q-57 -9 -89 -45.5t-32 -93.5q0 -51 23 -90t98 -117z" />
    <glyph glyph-name="percent" unicode="%" horiz-adv-x="1153" 
d="M221 690q-40 0 -71 16t-51 47t-33.5 68.5t-20.5 87t-9.5 95.5t-2.5 102q0 96 9 168.5t30 130t58.5 87.5t90.5 30q55 0 93 -30.5t59 -88.5t30 -130t9 -167q0 -91 -8 -160t-28 -130t-59 -93.5t-96 -32.5zM176 1221v-228q0 -78 5 -118.5t14 -52t26 -11.5q16 0 25.5 13
t15.5 55t6 118v217q0 109 -11 148t-36 39t-35 -38t-10 -142zM930 -12q-47 0 -82.5 24.5t-55.5 62.5t-32 95t-15.5 111t-3.5 122q0 96 9.5 169t30.5 130t58.5 87t90.5 30q55 0 93 -30.5t58.5 -88.5t29.5 -130t9 -167q0 -72 -4.5 -129.5t-17 -112.5t-33 -91.5t-55 -59
t-80.5 -22.5zM885 518v-227q0 -78 5 -118.5t14 -52t26 -11.5q16 0 25.5 13t15.5 55t6 118v217q0 109 -11 147.5t-36 38.5t-35 -38t-10 -142zM131 0l754 1507h125l-754 -1507h-125z" />
    <glyph glyph-name="ampersand" unicode="&#x26;" horiz-adv-x="960" 
d="M903 903v-182h-72q-12 -147 -35 -242t-71 -198l37 -99h141v-182h-282l-29 74q-46 -47 -86.5 -66.5t-91.5 -19.5q-96 0 -177 66.5t-128.5 182t-47.5 252.5q0 126 52 230t163 201q-83 189 -83 325q0 127 73.5 207t190.5 80q109 0 180.5 -70.5t71.5 -177.5q0 -101 -57 -206
t-156 -189l135 -371h4q44 141 41 385h227zM424 1077q104 101 104 191q0 39 -22 64.5t-57 25.5q-32 0 -53 -24t-21 -60q0 -77 49 -197zM528 248l-182 485q-88 -71 -88 -188q0 -61 23 -144.5t67.5 -152t93.5 -68.5q25 0 49.5 19.5t36.5 48.5z" />
    <glyph glyph-name="quotesingle" unicode="'" horiz-adv-x="391" 
d="M96 1507h199v-250l-64 -333h-71l-64 333v250z" />
    <glyph glyph-name="parenleft" unicode="(" horiz-adv-x="468" 
d="M426 -248v-108q-179 101 -252.5 319t-73.5 625q0 281 32.5 463t102.5 296t191 185v-113q-44 -31 -71 -105t-43.5 -253t-16.5 -475q0 -291 13.5 -461.5t41 -254t76.5 -118.5z" />
    <glyph glyph-name="parenright" unicode=")" horiz-adv-x="468" 
d="M43 -248q49 35 76.5 118.5t41 254t13.5 461.5q0 296 -16.5 475t-43.5 253t-71 105v113q121 -71 191 -185t102.5 -296t32.5 -463q0 -407 -73.5 -625t-252.5 -319v108z" />
    <glyph glyph-name="asterisk" unicode="*" horiz-adv-x="788" 
d="M51 1194l53 170l80 -25q58 -82 191 -139q-11 159 -72 230v77h178v-77q-34 -38 -54.5 -108.5t-18.5 -121.5q144 65 194 139l76 25l59 -170l-75 -25q-45 19 -89 19q-94 0 -157 -19q31 -41 98 -88t104 -53l44 -59l-146 -107l-47 62q3 46 -20 108.5t-58 120.5
q-69 -122 -72 -229l-45 -62l-145 101l45 65q111 32 193 141q-80 19 -127 19q-52 0 -111 -19z" />
    <glyph glyph-name="plus" unicode="+" horiz-adv-x="1366" 
d="M604 590h-469v158h469v469h158v-469h469v-158h-469v-469h-158v469z" />
    <glyph glyph-name="comma" unicode="," horiz-adv-x="342" 
d="M68 0v248h206v-248q0 -135 -54.5 -227t-170.5 -111v102q53 19 77 74.5t24 161.5h-82z" />
    <glyph glyph-name="hyphen" unicode="-" horiz-adv-x="532" 
d="M55 436v178h422v-178h-422z" />
    <glyph glyph-name="period" unicode="." horiz-adv-x="342" 
d="M68 0v248h206v-248h-206z" />
    <glyph glyph-name="slash" unicode="/" horiz-adv-x="1044" 
d="M823 1507h129l-731 -1507h-129z" />
    <glyph glyph-name="zero" unicode="0" horiz-adv-x="747" 
d="M373 -25q-56 0 -101.5 24.5t-76.5 64.5t-54 101.5t-36 125.5t-20.5 147.5t-10 156t-2.5 161.5q0 187 16 326.5t50.5 242.5t93.5 155t141 52q55 0 99 -23.5t75 -62.5t54 -98.5t37 -123.5t22 -146t11 -157t3 -165q0 -114 -4.5 -204.5t-16 -183.5t-33.5 -161t-54 -122
t-81 -82t-112 -28zM373 139q53 0 75.5 75t22.5 247v592q0 173 -23.5 244t-74.5 71q-48 0 -73.5 -69.5t-25.5 -231.5v-606q0 -172 25 -247t74 -75z" />
    <glyph glyph-name="one" unicode="1" horiz-adv-x="747" 
d="M193 0v174h90v1081q-42 -33 -90 -43v183q124 49 192 137h86v-1358h84v-174h-362z" />
    <glyph glyph-name="two" unicode="2" horiz-adv-x="747" 
d="M659 459v-459h-608v121q0 281 187 524l104 137q68 89 91.5 163t23.5 210q0 109 -27 161t-84 52t-87 -52t-30 -149q0 -13 2.5 -37t6 -56t4.5 -48h-176q-15 74 -15 137q0 177 78 273t221 96q148 0 228.5 -100.5t80.5 -286.5q0 -124 -36.5 -230t-92.5 -174l-135 -159
q-73 -87 -118 -197.5t-48 -200.5h256v275h174z" />
    <glyph glyph-name="three" unicode="3" horiz-adv-x="747" 
d="M254 1090h-170q0 237 61 339.5t205 102.5q140 0 217.5 -106t77.5 -298q0 -139 -42 -215t-134 -104v-4q199 -55 199 -365q0 -214 -75 -339.5t-226 -125.5q-83 0 -140.5 36t-89.5 105.5t-45.5 156t-13.5 202.5h182q0 -194 21.5 -265t87.5 -71q23 0 39 7.5t26.5 27t17 40.5
t9.5 62t3.5 76t0.5 97q0 109 -17.5 168.5t-53 83.5t-99.5 24v164q43 0 67 4t45 16.5t30.5 40t14.5 70t5 110.5q0 134 -23 186t-86 52q-25 0 -43 -12.5t-28 -33.5t-15.5 -58t-7 -76t-0.5 -98z" />
    <glyph glyph-name="four" unicode="4" horiz-adv-x="747" 
d="M315 0v174h91v264h-304q-17 96 -67 154l375 940h172v-940h96v-154h-96v-264h73v-174h-340zM406 592v575h-5l-213 -575h218z" />
    <glyph glyph-name="five" unicode="5" horiz-adv-x="747" 
d="M63 438h183q0 -161 21.5 -230t84.5 -69q55 0 77 57t22 220q0 159 -9.5 239.5t-30 111t-61.5 30.5q-101 0 -106 -164q-73 50 -110 64q-21 8 -42 12l25 798h493v-323h-172v139h-172l-12 -442q77 80 160 80q117 0 178 -121t61 -351q0 -257 -79 -385.5t-222 -128.5
q-137 0 -213 121t-76 342z" />
    <glyph glyph-name="six" unicode="6" horiz-adv-x="747" 
d="M657 1098h-176q3 122 -21 196t-73 74q-55 0 -78.5 -75t-23.5 -249v-210q71 71 166 71q49 0 89 -21t73.5 -67.5t52 -131.5t18.5 -202q0 -36 -2.5 -74t-10.5 -89.5t-21 -97.5t-36 -92.5t-53.5 -79.5t-75.5 -54t-100 -21q-66 0 -115.5 22.5t-82.5 70.5t-54 107.5t-32 150
t-15 181t-4 216.5q0 253 9.5 363t37.5 212q31 113 104.5 173.5t161.5 60.5q126 0 196 -116t66 -318zM285 713v-332q0 -128 23 -185t75 -57q37 0 57.5 29t30.5 103t10 210q0 158 -22.5 218.5t-81.5 60.5q-48 0 -92 -47z" />
    <glyph glyph-name="seven" unicode="7" horiz-adv-x="747" 
d="M174 0v174h84q-2 194 15 373t42.5 301.5t59.5 227t59 159t47 88.5h-262v-213h-174v397h614v-135q-42 -67 -75.5 -154t-54.5 -169t-36.5 -190.5t-23 -185t-12 -188t-5 -164.5t-1.5 -147h90v-174h-367z" />
    <glyph glyph-name="eight" unicode="8" horiz-adv-x="747" 
d="M676 438q0 -463 -303 -463q-152 0 -226.5 119.5t-74.5 335.5q0 294 180 383q-158 71 -158 346q0 177 73.5 275t205.5 98t205 -98t73 -275q0 -275 -157 -346q91 -49 136.5 -135.5t45.5 -239.5zM279 1122q0 -122 22.5 -177.5t71.5 -55.5q50 0 72 55t22 178q0 142 -21.5 194
t-72.5 52q-52 0 -73 -55t-21 -191zM274 434q0 -121 11 -186t31.5 -87t56.5 -22q34 0 54.5 21t33 86t12.5 180q0 176 -19.5 237.5t-80.5 61.5q-57 0 -78 -62t-21 -229z" />
    <glyph glyph-name="nine" unicode="9" horiz-adv-x="747" 
d="M90 410h176q-3 -122 21 -196.5t73 -74.5q55 0 79 75t24 249v211q-72 -72 -166 -72q-49 0 -89 21t-73.5 67.5t-52.5 131.5t-19 202q0 36 2.5 74t10.5 89.5t21 97.5t36 92.5t53.5 79.5t75.5 54t100 21q66 0 115.5 -22.5t82.5 -70t54.5 -107.5t32.5 -150.5t15 -181t4 -216.5
q0 -252 -10 -362t-38 -213q-31 -113 -104.5 -173.5t-161.5 -60.5q-126 0 -196 116.5t-66 318.5zM463 795v331q0 128 -23 185t-75 57q-37 0 -58 -29t-31 -103t-10 -210q0 -157 23 -217.5t82 -60.5q48 0 92 47z" />
    <glyph glyph-name="colon" unicode=":" horiz-adv-x="342" 
d="M68 0v248h206v-248h-206zM68 803v248h206v-248h-206z" />
    <glyph glyph-name="semicolon" unicode=";" horiz-adv-x="342" 
d="M68 0v248h206v-248q0 -135 -54.5 -227t-170.5 -111v102q53 19 77 74.5t24 161.5h-82zM68 803v248h206v-248h-206z" />
    <glyph glyph-name="less" unicode="&#x3c;" horiz-adv-x="1366" 
d="M348 668l883 -361v-170l-1096 459v143l1096 461v-172z" />
    <glyph glyph-name="equal" unicode="=" horiz-adv-x="1366" 
d="M135 985h1096v-158h-1096v158zM135 512h1096v-158h-1096v158z" />
    <glyph glyph-name="greater" unicode="&#x3e;" horiz-adv-x="1366" 
d="M1018 668l-883 360v170l1096 -459v-143l-1096 -459v170z" />
    <glyph glyph-name="question" unicode="?" 
d="M434 1098q0 148 -18.5 204t-67.5 56q-47 0 -66.5 -45t-19.5 -172v-97h-190v97q0 176 71 283.5t207 107.5q134 0 208.5 -107.5t74.5 -320.5q0 -372 -211 -412l-33 -276h-92l-39 428h10q20 -4 43 -4q68 0 95.5 58t27.5 200zM240 0v248h206v-248h-206z" />
    <glyph glyph-name="at" unicode="@" horiz-adv-x="2078" 
d="M1264 1051h155l-125 -744q-13 -72 -3 -105.5t50 -33.5q33 0 73 19t83.5 60t79.5 97.5t59 141.5t23 182q0 137 -45.5 249.5t-124 186t-182.5 113.5t-222 40q-131 0 -249.5 -49t-212.5 -141.5t-149.5 -238.5t-55.5 -326q0 -166 52 -300t142 -221t209 -133.5t256 -46.5
q155 0 298 56.5t222 142.5h179q-103 -157 -299 -244.5t-402 -87.5q-166 0 -310.5 58.5t-251.5 165.5t-168.5 267.5t-61.5 354.5q0 254 102 455t284.5 313.5t413.5 112.5q321 0 517 -195t196 -514q0 -135 -37 -252t-94.5 -194.5t-128 -133.5t-136 -81t-120.5 -25
q-65 0 -104 35t-48 102q-63 -72 -122 -104.5t-125 -32.5q-55 0 -106 26t-94 76t-69 134t-26 190q0 178 53.5 327.5t146.5 235.5t205 86q81 0 136.5 -38.5t111.5 -131.5zM754 412q0 -126 42.5 -197.5t118.5 -71.5q59 0 107.5 45.5t76.5 112t47.5 148t26.5 147t7 115.5
q0 109 -40.5 167t-115.5 58q-68 0 -122 -51t-85 -131t-47 -168.5t-16 -173.5z" />
    <glyph glyph-name="A" unicode="A" horiz-adv-x="937" 
d="M379 524l-37 -342h96v-182h-403v182h94l166 1143h-105v182h558v-182h-105l166 -1143h94v-182h-403v182h96l-37 342h-180zM393 707h152l-64 671h-24z" />
    <glyph glyph-name="B" unicode="B" horiz-adv-x="874" 
d="M162 182v1143h-115v182h336q187 0 294 -103.5t107 -285.5q0 -136 -61.5 -221t-167.5 -96v-4q121 -22 192.5 -123t71.5 -250q0 -191 -110 -307.5t-328 -116.5h-334v182h115zM375 1325v-446q28 1 43 2t38.5 5.5t37 12.5t30 24t25 38.5t14.5 57t6 79.5q0 135 -43.5 181
t-150.5 46zM375 696v-514q117 0 170 59.5t53 192.5q0 54 -8.5 97t-20.5 70t-32.5 46.5t-38 29t-43 14t-41 5.5t-39.5 0z" />
    <glyph glyph-name="C" unicode="C" horiz-adv-x="831" 
d="M561 537l187 -52q-2 -232 -84 -371t-232 -139q-180 0 -267 188t-87 574q0 795 307 795q108 0 164 -98h4v73h182v-489h-182q0 150 -34.5 232.5t-100.5 82.5q-18 0 -30.5 -3.5t-24 -15t-19 -29t-14 -49t-9.5 -71.5t-5.5 -100.5t-3.5 -131.5t-1 -169q0 -123 2 -209
t7.5 -154.5t14.5 -110t23.5 -68.5t33 -37.5t44.5 -10.5q29 0 50.5 16.5t39.5 56t27 112.5t8 178z" />
    <glyph glyph-name="D" unicode="D" horiz-adv-x="897" 
d="M74 0v182h110v1143h-110v182h272q120 0 208.5 -39t153.5 -126.5t97.5 -235.5t32.5 -358q0 -384 -120 -566t-366 -182h-278zM397 1325v-1143q116 2 161.5 121t45.5 420q0 235 -19 363.5t-63.5 184t-124.5 54.5z" />
    <glyph glyph-name="E" unicode="E" horiz-adv-x="811" 
d="M47 0v182h111v1143h-111v182h694v-440h-182v258h-188v-457h153v-182h-153v-504h188v281h182v-463h-694z" />
    <glyph glyph-name="F" unicode="F" horiz-adv-x="768" 
d="M47 0v182h109v1143h-109v182h696v-440h-182v258h-192v-457h157v-182h-157v-504h125v-182h-447z" />
    <glyph glyph-name="G" unicode="G" horiz-adv-x="831" 
d="M434 545v182h324v-137q0 -288 -88 -451.5t-252 -163.5q-107 0 -185 78q-93 93 -124 243t-31 447q0 394 70.5 591.5t232.5 197.5q47 0 83 -18t79 -64v57h182v-489h-182q0 141 -29 228t-92 87q-46 0 -68 -41t-32.5 -160t-10.5 -362q0 -200 4 -310.5t17.5 -178t34 -87.5
t57.5 -20q39 0 62 27t37 110t14 234h-103z" />
    <glyph glyph-name="H" unicode="H" horiz-adv-x="960" 
d="M375 711v-529h71v-182h-399v182h115v1143h-115v182h399v-182h-71v-432h211v432h-72v182h399v-182h-114v-1143h114v-182h-399v182h72v529h-211z" />
    <glyph glyph-name="I" unicode="I" horiz-adv-x="532" 
d="M45 0v182h115v1143h-115v182h444v-182h-116v-1143h116v-182h-444z" />
    <glyph glyph-name="J" unicode="J" horiz-adv-x="532" 
d="M57 1325v182h426v-182h-108v-1386q0 -148 -64.5 -221.5t-185.5 -73.5q-42 0 -102 14v176q39 -8 57 -8q48 0 65 28.5t17 110.5v1360h-105z" />
    <glyph glyph-name="K" unicode="K" horiz-adv-x="917" 
d="M47 0v182h107v1143h-107v182h406v-182h-86v-1143h86v-182h-406zM506 0v182h96l-217 596l209 547h-92v182h379v-182h-97l-196 -508l231 -635h99v-182h-412z" />
    <glyph glyph-name="L" unicode="L" horiz-adv-x="768" 
d="M49 0v182h109v1143h-109v182h436v-182h-114v-1143h184v473h182v-655h-688z" />
    <glyph glyph-name="M" unicode="M" horiz-adv-x="1216" 
d="M45 0v182h113v1143h-113v182h449l69 -385l37 -395h6l49 393l64 387h450v-182h-112v-1143h114v-182h-442v182h113v764l16 406h-20l-68 -516l-143 -836h-64l-139 774l-76 578h-20l12 -404v-766h113v-182h-408z" />
    <glyph glyph-name="N" unicode="N" horiz-adv-x="980" 
d="M53 0v182h103v1143h-103v182h334l180 -571l95 -416h6l-23 455v350h-102v182h387v-182h-103v-1325h-168l-215 672l-116 473h-6l16 -459v-504h102v-182h-387z" />
    <glyph glyph-name="O" unicode="O" horiz-adv-x="854" 
d="M428 -25q-172 0 -261 183t-89 587q0 154 14.5 279t40.5 209t58.5 144t73 93t80 47.5t83.5 14.5q53 0 100 -20.5t94 -75t80 -140.5t53.5 -227t20.5 -324q0 -770 -348 -770zM428 174q45 0 69.5 51t35 170t10.5 340q0 342 -22 470t-93 128q-36 0 -58 -28.5t-35.5 -101.5
t-18.5 -181.5t-5 -284.5q0 -167 5.5 -272.5t19.5 -172t35.5 -92.5t56.5 -26z" />
    <glyph glyph-name="P" unicode="P" horiz-adv-x="854" 
d="M172 182v1143h-123v182h373q197 0 306.5 -124.5t109.5 -342.5q0 -74 -12 -136.5t-30.5 -107t-48.5 -80t-57.5 -57.5t-66.5 -38.5t-66.5 -24t-66 -11.5t-57 -4.5t-47.5 -0.5h-1v-398h125v-182h-461v182h123zM385 1325v-563q29 0 48 1t45.5 7t43.5 16.5t36.5 31t30 50
t18 73.5t7.5 101q0 85 -16 142t-48 87t-71 42t-94 12z" />
    <glyph glyph-name="Q" unicode="Q" horiz-adv-x="854" 
d="M238 -143l-62 88q107 75 113 78q-211 111 -211 720q0 391 90.5 590t255.5 199q34 0 66 -8.5t68 -31.5t66.5 -59.5t59 -97t48.5 -138.5t32 -189.5t12 -245.5q0 -326 -60.5 -519t-201.5 -251q138 -78 213 -78q19 0 35 2l-45 -178q-47 -4 -92.5 10t-81.5 36.5t-70 46t-71 40
t-72 16.5q-49 0 -92 -30zM428 174q45 0 69.5 51t35 170t10.5 340q0 349 -22.5 473.5t-94.5 124.5q-35 0 -57 -28.5t-35 -101.5t-18 -181.5t-5 -284.5q0 -167 5.5 -272.5t19.5 -172t35.5 -92.5t56.5 -26z" />
    <glyph glyph-name="R" unicode="R" horiz-adv-x="917" 
d="M373 684v-502h112v-182h-452v182h127v1143h-127v182h377q195 0 304 -113t109 -296q0 -239 -180 -355l164 -561h90v-182h-254l-186 690q-30 -6 -84 -6zM373 1325v-459q115 0 171 53t56 179q0 119 -49 173t-178 54z" />
    <glyph glyph-name="S" unicode="S" horiz-adv-x="788" 
d="M96 0v518h183v-139q0 -121 24.5 -170t87.5 -49q48 0 77.5 40t29.5 107t-28 147t-85 152l-102 129q-117 147 -159 241t-42 220q0 148 66.5 242t170.5 94q85 0 152 -70v45h182v-450h-182v114q0 89 -22.5 133t-77.5 44q-46 0 -67 -32t-21 -79q0 -136 110 -270l101 -125
q213 -264 213 -504q0 -157 -76 -260t-191 -103q-92 0 -161 72v-47h-183z" />
    <glyph glyph-name="T" unicode="T" horiz-adv-x="874" 
d="M831 1507v-551h-159v392h-127v-1166h119v-182h-451v182h119v1166h-127v-392h-160v551h786z" />
    <glyph glyph-name="U" unicode="U" horiz-adv-x="937" 
d="M35 1325v182h407v-182h-80v-967q0 -109 27.5 -153.5t95.5 -44.5t95.5 44.5t27.5 153.5v967h-78v182h373v-182h-112v-958q0 -106 -27 -185t-73.5 -122.5t-101.5 -64t-118 -20.5q-154 0 -237.5 92t-83.5 230v1028h-115z" />
    <glyph glyph-name="V" unicode="V" horiz-adv-x="917" 
d="M379 -12l-252 1337h-104v182h417v-182h-102q123 -605 131 -924h4q7 287 127 924h-102v182h397v-182h-109l-243 -1337h-164z" />
    <glyph glyph-name="W" unicode="W" horiz-adv-x="1280" 
d="M342 -12l-231 1337h-88v182h385v-182h-89q85 -444 119 -905h4q46 465 121 905h-90v182h356v-182h-88q93 -484 127 -905h4q12 183 32.5 360t36.5 275.5t46 269.5h-88v182h356v-182h-84l-221 -1337h-170q-112 579 -139 870h-4q-6 -65 -15 -143.5t-17.5 -142t-23 -158
t-22 -144t-24 -151.5t-21.5 -131h-172z" />
    <glyph glyph-name="X" unicode="X" horiz-adv-x="937" 
d="M33 0v182h76l247 568l-256 575h-67v182h377v-182h-80l147 -342l121 342h-78v182h365v-182h-90l-220 -569l252 -574h78v-182h-385v182h80l-149 336l-148 -336h88v-182h-358z" />
    <glyph glyph-name="Y" unicode="Y" horiz-adv-x="897" 
d="M246 0v182h106v484l-243 659h-97v182h408v-182h-98l139 -405h4l129 405h-96v182h387v-182h-97l-223 -641v-502h107v-182h-426z" />
    <glyph glyph-name="Z" unicode="Z" 
d="M51 0v172l383 1153h-186v-317h-182v499h587v-182l-385 -1143h205v320h182v-502h-604z" />
    <glyph glyph-name="bracketleft" unicode="[" horiz-adv-x="512" 
d="M154 -334v1841h313v-127h-125v-1587h125v-127h-313z" />
    <glyph glyph-name="backslash" unicode="\" horiz-adv-x="1044" 
d="M221 1507l731 -1507h-129l-731 1507h129z" />
    <glyph glyph-name="bracketright" unicode="]" horiz-adv-x="512" 
d="M358 1507v-1841h-313v127h125v1587h-125v127h313z" />
    <glyph glyph-name="asciicircum" unicode="^" horiz-adv-x="960" 
d="M227 707h-174l353 800h147l354 -800h-174l-254 598z" />
    <glyph glyph-name="underscore" unicode="_" horiz-adv-x="1024" 
d="M1036 -256h-1048v102h1048v-102z" />
    <glyph glyph-name="grave" unicode="`" horiz-adv-x="681" 
d="M483 1174h-139l-223 307h203z" />
    <glyph glyph-name="a" unicode="a" horiz-adv-x="768" 
d="M737 174v-174h-270v90h-4q-61 -102 -170 -102q-100 0 -162.5 89.5t-62.5 233.5q0 88 22 155t58.5 104t79 55t89.5 18q88 0 150 -74v181q0 31 -1 49t-6 42.5t-14.5 37.5t-28.5 22.5t-46 9.5q-94 0 -103 -135l-174 49q19 117 94.5 183.5t188.5 66.5q54 0 102.5 -17.5
t88.5 -51.5t63.5 -91.5t23.5 -130.5v-610h82zM467 207v231q-43 49 -94 49q-107 0 -107 -170q0 -165 107 -165q28 0 48.5 12t45.5 43z" />
    <glyph glyph-name="b" unicode="b" horiz-adv-x="788" 
d="M41 0v174h90v1159h-90v174h278v-526h5q67 94 161 94q129 0 181.5 -134t52.5 -433q0 -245 -58.5 -382.5t-179.5 -137.5q-52 0 -87.5 26.5t-69.5 91.5h-5v-106h-278zM319 692v-276q0 -99 13 -156.5t34.5 -77.5t55.5 -20q47 0 72.5 55.5t25.5 200.5v178q0 175 -22.5 245
t-75.5 70q-42 0 -72.5 -48t-30.5 -171z" />
    <glyph glyph-name="c" unicode="c" 
d="M475 383l168 -72q-4 -159 -78 -247.5t-194 -88.5q-167 0 -234 132t-67 417q0 133 12.5 229.5t40 167.5t75 106.5t115.5 35.5q99 0 152 -98h4v86h174v-381h-174q0 122 -22 175.5t-80 53.5q-57 0 -78 -63.5t-21 -231.5v-160q0 -167 23.5 -230.5t79.5 -63.5q27 0 46 11
t30 29t17 50t8 63t3 80z" />
    <glyph glyph-name="d" unicode="d" horiz-adv-x="768" 
d="M727 0h-278v106h-5q-34 -64 -69 -92q-36 -26 -88 -26q-81 0 -135 67.5t-78.5 181.5t-24.5 271q0 299 52.5 433t181.5 134q94 0 161 -94h5v352h-121v174h309v-1333h90v-174zM449 500v166q0 129 -23.5 187t-79.5 58q-58 0 -78 -67.5t-20 -247.5v-238q0 -97 25.5 -146.5
t72.5 -49.5q44 0 65 27.5t29.5 97t8.5 213.5z" />
    <glyph glyph-name="e" unicode="e" 
d="M463 317l166 -61q-32 -132 -104.5 -206.5t-166.5 -74.5q-156 0 -223 135.5t-67 405.5q0 152 19.5 261t58 173.5t90 94.5t120.5 30q51 0 97.5 -22.5t88 -71t66.5 -138t25 -210.5v-160h-367v-45q0 -156 24.5 -217t71.5 -61q42 0 68.5 44t32.5 123zM266 623h178v92
q0 196 -90 196q-47 0 -67.5 -53t-20.5 -190v-45z" />
    <glyph glyph-name="f" unicode="f" horiz-adv-x="512" 
d="M57 0v174h99v703h-99v174h99v163q0 146 67 232t191 86q172 0 229 -186l-172 -56q-2 4 -7 18.5t-8.5 22t-11 18t-18 15t-25.5 4.5q-34 0 -45.5 -31t-11.5 -123v-163h133v-174h-133v-703h143v-174h-430z" />
    <glyph glyph-name="g" unicode="g" horiz-adv-x="768" 
d="M741 1051v-174h-88v-828q0 -195 -93.5 -300t-262.5 -105q-127 0 -231 65l90 131q73 -41 133 -41q82 0 128 51.5t46 157.5v103h-4q-40 -62 -74.5 -86.5t-83.5 -24.5q-120 0 -177.5 132t-57.5 403q0 96 5.5 169.5t20.5 143.5t40 115.5t67 72.5t98 27q85 0 166 -90v78h278z
M465 412v110q0 155 -8 231.5t-29.5 111t-65.5 34.5q-39 0 -59.5 -31.5t-29.5 -107.5t-9 -219q0 -145 10 -224.5t30.5 -111t57.5 -31.5q103 0 103 238z" />
    <glyph glyph-name="h" unicode="h" horiz-adv-x="768" 
d="M41 0v174h78v1159h-78v174h266v-501q44 38 78 53.5t72 15.5q103 0 147.5 -77t44.5 -224v-600h78v-174h-266v793q0 108 -62 108q-22 0 -41.5 -11t-50.5 -40v-676h78v-174h-344z" />
    <glyph glyph-name="i" unicode="i" horiz-adv-x="448" 
d="M139 174v703h-76v174h265v-877h59v-174h-324v174h76zM348 1411q0 -51 -35 -86t-86 -35t-86 35t-35 86t35 86t86 35t86 -35t35 -86z" />
    <glyph glyph-name="j" unicode="j" horiz-adv-x="405" 
d="M305 1051v-1102q0 -77 -15.5 -132.5t-51 -96.5t-99 -60t-155.5 -16v174q69 -5 101 24.5t32 116.5v918h-76v174h264zM205 1532q51 0 86 -35t35 -86t-35 -86t-86 -35t-86 35t-35 86t35 86t86 35z" />
    <glyph glyph-name="k" unicode="k" horiz-adv-x="747" 
d="M41 0v174h82v1159h-82v174h270v-952h4l154 328h-88v168h342v-174h-84l-145 -297l159 -406h78v-174h-203l-213 545h-4v-371h88v-174h-358z" />
    <glyph glyph-name="l" unicode="l" horiz-adv-x="405" 
d="M115 174v1159h-74v174h262v-1333h62v-174h-324v174h74z" />
    <glyph glyph-name="m" unicode="m" horiz-adv-x="1130" 
d="M45 0v174h78v703h-82v174h270v-93h4q66 105 162 105q97 0 152 -105q71 105 176 105q98 0 148.5 -72.5t50.5 -212.5v-604h77v-174h-266v770q0 68 -13 93.5t-48 25.5q-59 0 -97 -72v-643h78v-174h-266v770q0 65 -14 92t-49 27q-49 0 -95 -72v-643h78v-174h-344z" />
    <glyph glyph-name="n" unicode="n" horiz-adv-x="788" 
d="M51 0v174h78v703h-82v174h270v-84h5q65 96 159 96q83 0 130.5 -68t47.5 -192v-629h78v-174h-266v774q0 65 -12.5 90t-46.5 25q-55 0 -95 -76v-639h78v-174h-344z" />
    <glyph glyph-name="o" unicode="o" 
d="M70 526q0 130 14 227t46 171.5t87.5 112.5t134.5 38q145 0 215 -135.5t70 -415.5q0 -272 -68.5 -410.5t-216.5 -138.5q-143 0 -212.5 132t-69.5 419zM268 528q0 -166 8.5 -247t25 -106t50.5 -25q27 0 43 16.5t26 61.5t13.5 114t3.5 184q0 154 -7.5 232.5t-25.5 110.5
t-53 32q-34 0 -51.5 -30.5t-25 -109t-7.5 -233.5z" />
    <glyph glyph-name="p" unicode="p" horiz-adv-x="768" 
d="M29 1051h278v-107h4q36 68 70 92q39 27 86 27q126 0 183 -139t57 -428q0 -130 -13 -225.5t-33.5 -151t-52.5 -89t-63 -44.5t-72 -11q-94 0 -162 95h-4v-252h103v-174h-381v174h90v1059h-90v174zM307 551v-166q0 -129 23.5 -187.5t79.5 -58.5q33 0 53 19t32.5 79.5
t12.5 170.5v147q0 190 -20.5 262t-77.5 72q-33 0 -54.5 -25t-35 -102t-13.5 -211z" />
    <glyph glyph-name="q" unicode="q" horiz-adv-x="788" 
d="M760 1051v-174h-90v-1059h90v-174h-381v174h102v252h-4q-68 -95 -162 -95q-129 0 -181 134t-52 434q0 157 24 271t78 181.5t135 67.5q52 0 88 -27t70 -92h4v107h279zM481 385v166q0 138 -10 210.5t-31 100t-61 27.5q-53 0 -75.5 -58t-22.5 -204v-142q0 -189 19 -267.5
t79 -78.5q102 0 102 246z" />
    <glyph glyph-name="r" unicode="r" horiz-adv-x="575" 
d="M43 0v174h94v703h-94v174h283v-205h4q52 132 100.5 174.5t142.5 42.5v-199q-118 6 -182.5 -68t-64.5 -214v-408h106v-174h-389z" />
    <glyph glyph-name="s" unicode="s" horiz-adv-x="641" 
d="M66 0v362h174q5 -210 88 -210q29 0 46 24.5t17 67.5q0 69 -26.5 108.5t-122.5 114.5q-99 77 -142 151t-43 170q0 117 54.5 196t134.5 79q81 0 133 -90h4v78h174v-344h-174q4 105 -15 149.5t-61 44.5q-31 0 -46 -25t-15 -61q0 -64 27 -104.5t104 -96.5q115 -83 159 -160
t44 -190q0 -120 -56.5 -198t-142.5 -78q-43 0 -74 20.5t-63 69.5h-4v-78h-174z" />
    <glyph glyph-name="t" unicode="t" horiz-adv-x="512" 
d="M311 877v-617q0 -104 84 -104q28 0 76 18v-164q-64 -22 -149 -22q-106 0 -152.5 66.5t-46.5 205.5v617h-92v174h92v172q100 64 188 137v-309h125v-174h-125z" />
    <glyph glyph-name="u" unicode="u" horiz-adv-x="788" 
d="M659 1051v-877h84v-174h-272v84h-4q-65 -96 -160 -96q-178 0 -178 260v629h-86v174h274v-775q0 -64 13 -89t47 -25q54 0 94 76v639h-92v174h280z" />
    <glyph glyph-name="v" unicode="v" horiz-adv-x="831" 
d="M330 -12l-224 897h-83v166h348v-166h-78l123 -578h4l121 578h-80v166h346v-166h-80l-223 -897h-174z" />
    <glyph glyph-name="w" unicode="w" horiz-adv-x="1173" 
d="M287 -12l-185 897h-79v166h329v-166h-71l96 -568h4l121 734h174l137 -734h4l86 568h-80v166h328v-166h-80l-180 -897h-172l-133 735h-4l-129 -735h-166z" />
    <glyph glyph-name="x" unicode="x" horiz-adv-x="681" 
d="M43 0v174h74l125 354l-125 349h-74v174h205l90 -289h4l90 289h186v-174h-75l-117 -324l135 -379h82v-174h-211l-100 324h-4l-105 -324h-180z" />
    <glyph glyph-name="y" unicode="y" horiz-adv-x="831" 
d="M127 -356v166h166l53 208l-242 867h-81v166h352v-166h-82l135 -570h4l131 570h-86v166h330v-166h-72l-305 -1241h-303z" />
    <glyph glyph-name="z" unicode="z" 
d="M53 0v205l404 672h-215v-179h-160v353h563v-203l-403 -674h250v193h159v-367h-598z" />
    <glyph glyph-name="braceleft" unicode="{" horiz-adv-x="684" 
d="M84 512v152q64 -2 99 23.5t52 92.5t17 191v209q0 171 75.5 263t235.5 89v-146q-45 -3 -70 -11t-44.5 -23.5t-27.5 -51t-11.5 -81.5t-3.5 -127v-144q0 -118 -18 -192t-48.5 -110t-81.5 -58q51 -22 81.5 -58.5t48.5 -110.5t18 -192v-143q0 -68 1.5 -109.5t8.5 -76.5
t16.5 -52.5t28.5 -31t42 -18t60 -7.5v-145q-160 -3 -235.5 89t-75.5 263v209q0 124 -17 191t-52 92.5t-99 23.5z" />
    <glyph glyph-name="bar" unicode="|" horiz-adv-x="1079" 
d="M473 1507h133v-1702h-133v1702z" />
    <glyph glyph-name="braceright" unicode="}" horiz-adv-x="684" 
d="M600 664v-152q-64 2 -99 -23.5t-52 -92.5t-17 -191v-209q0 -171 -75.5 -263t-235.5 -89v145q37 3 60 7.5t42.5 18t29 31t16 52.5t8.5 77t2 109v143q0 118 17.5 192t48 110.5t81.5 58.5q-51 22 -81.5 58t-48 110t-17.5 192v144q0 67 -2 109t-8.5 76.5t-16 52.5t-29 31
t-42.5 17.5t-60 7.5v146q160 3 235.5 -89t75.5 -263v-209q0 -124 17 -191t52 -92.5t99 -23.5z" />
    <glyph glyph-name="asciitilde" unicode="~" horiz-adv-x="1343" 
d="M160 557v205q51 58 122.5 89.5t153.5 31.5q111 0 266 -68q8 -3 33.5 -14.5t35 -15t31 -12t33 -12t29 -8.5t32 -6.5t28.5 -1.5q63 0 132.5 37t129.5 103v-211q-68 -62 -133 -88q-67 -27 -148 -27q-45 0 -93.5 11.5t-79 23.5t-81.5 35q-50 22 -79 34t-71.5 22.5t-80.5 10.5
q-68 0 -124.5 -30t-135.5 -109z" />
    <glyph glyph-name="uni00A0" unicode="&#xa0;" horiz-adv-x="681" 
 />
    <glyph glyph-name="exclamdown" unicode="&#xa1;" horiz-adv-x="342" 
d="M223 651l51 -635v-473h-206v473l49 635h106zM274 1051v-248h-206v248h206z" />
    <glyph glyph-name="cent" unicode="&#xa2;" 
d="M317 -184v166q-138 18 -194 159q-53 125 -53 400q0 124 12.5 216t40.5 163t76.5 107t117.5 36v166h105v-207q39 -34 57 -86h4v115h160v-381h-174q0 121 -21.5 175t-80.5 54q-55 0 -77 -63.5t-22 -219.5v-129q0 -202 20 -269.5t83 -67.5q55 0 78.5 52.5t25.5 180.5
l168 -72q-12 -282 -221 -329v-166h-105z" />
    <glyph glyph-name="sterling" unicode="&#xa3;" horiz-adv-x="811" 
d="M662 831l2 -174h-193q10 -123 10 -145q0 -141 -37 -248q37 -32 80 -53t72 -21q42 0 65 38t23 108q0 22 -6 57h98q2 -20 2 -59q0 -81 -8.5 -142.5t-28 -112t-55 -77.5t-86.5 -27q-53 0 -103.5 31t-111.5 105q-41 -76 -77.5 -106t-86.5 -30q-71 0 -117.5 62.5t-46.5 157.5
q0 89 42 145.5t108 56.5q56 0 119 -47q6 35 6 51q0 83 -41 256h-211l-2 174h170q-6 33 -17.5 95t-16.5 91.5t-12 71.5t-9.5 71t-2.5 54q0 136 75 227t188 91q134 0 210.5 -102t67.5 -304h-184v78q0 77 -25.5 120.5t-66.5 43.5q-35 0 -55.5 -32t-20.5 -89q0 -125 63 -416h220
zM301 207q-33 37 -54 52t-42 15q-29 0 -46.5 -23t-17.5 -63q0 -37 18.5 -60.5t49.5 -23.5q29 0 51 24.5t41 78.5z" />
    <glyph glyph-name="currency" unicode="&#xa4;" horiz-adv-x="1366" 
d="M182 1090l107 106l129 -131q122 86 262 86q144 0 266 -86l131 131l105 -106l-129 -132q84 -125 84 -268q0 -140 -84 -258l129 -129l-105 -104l-131 129q-127 -88 -268 -88q-142 0 -260 88l-129 -129l-107 104l131 129q-86 137 -86 270q0 134 86 256zM682 1004
q-127 0 -217 -91t-90 -219t89.5 -217.5t217.5 -89.5t217.5 89.5t89.5 217.5t-90 219t-217 91z" />
    <glyph glyph-name="yen" unicode="&#xa5;" horiz-adv-x="897" 
d="M352 319h-340v117h340v113h-340v117h340l-243 659h-97v182h408v-182h-98l139 -418h4l129 418h-96v182h387v-182h-97l-223 -659h320v-117h-320v-113h320v-117h-320v-137h107v-182h-426v182h106v137z" />
    <glyph glyph-name="brokenbar" unicode="&#xa6;" horiz-adv-x="1079" 
d="M473 1507h133v-725h-133v725zM473 530h133v-725h-133v725z" />
    <glyph glyph-name="section" unicode="&#xa7;" 
d="M123 -2h141q-8 -211 88 -211q36 0 57 28.5t21 78.5q0 112 -86 192l-102 94q-172 156 -172 406q0 264 174 383q-117 144 -117 301q0 118 63 190t166 72q231 0 222 -352h-140q6 209 -92 209q-34 0 -54 -26.5t-20 -70.5q0 -87 50 -155q19 -28 106 -109q115 -106 161 -207
t46 -248q0 -130 -40.5 -212.5t-135.5 -147.5q61 -78 88.5 -147.5t27.5 -147.5q0 -126 -62.5 -200t-168.5 -74q-232 0 -221 354zM367 305q104 85 104 260q0 199 -137 312q-101 -88 -101 -269q0 -211 134 -303z" />
    <glyph glyph-name="dieresis" unicode="&#xa8;" horiz-adv-x="681" 
d="M217 1401q38 0 66 -28t28 -66t-28 -66.5t-66 -28.5t-66 28.5t-28 66.5t28 66t66 28zM465 1401q38 0 66 -28t28 -66t-28 -66.5t-66 -28.5t-66 28.5t-28 66.5t28 66t66 28z" />
    <glyph glyph-name="copyright" unicode="&#xa9;" horiz-adv-x="1511" 
d="M997 608l123 -37q-29 -127 -126.5 -200.5t-235.5 -73.5q-182 0 -290 117t-108 313q0 198 109 312t297 114q130 0 218 -60.5t122 -174.5l-119 -29q-29 74 -87.5 113.5t-139.5 39.5q-120 0 -191 -86t-71 -231q0 -143 67.5 -226t184.5 -83q92 0 158.5 51.5t88.5 140.5z
M756 1485q154 0 293.5 -59.5t240 -160.5t160 -240.5t59.5 -293.5t-59.5 -294t-160 -241t-240 -161t-293.5 -60t-294 60t-241 161t-161 241t-60 294t60 293.5t161 240.5t241 160.5t294 59.5zM756 100q171 0 315.5 84t228.5 229t84 316t-84 316.5t-228.5 230t-315.5 84.5
q-128 0 -245 -50t-201.5 -134.5t-134.5 -201.5t-50 -245t50 -244.5t134.5 -201t201.5 -134t245 -49.5z" />
    <glyph glyph-name="ordfeminine" unicode="&#xaa;" horiz-adv-x="491" 
d="M477 997v-137h-184v27l-31 -15q-43 -20 -74 -20q-66 0 -108.5 59t-42.5 152q0 97 46 155t122 58q23 0 40 -6.5t48 -28.5v80q0 46 -10.5 62t-42.5 16q-34 0 -48 -18t-14 -60l-129 31q20 92 67.5 136t125.5 44q89 0 136.5 -53.5t47.5 -153.5v-328h51zM287 1006v127
q-32 14 -51 14q-58 0 -58 -80q0 -42 14.5 -61t45.5 -19q25 0 49 19z" />
    <glyph glyph-name="guillemotleft" unicode="&#xab;" horiz-adv-x="747" 
d="M526 0l-174 522l174 529h156l-174 -529l174 -522h-156zM240 0l-174 522l174 529h155l-174 -529l174 -522h-155z" />
    <glyph glyph-name="logicalnot" unicode="&#xac;" horiz-adv-x="1366" 
d="M135 993h1096v-645h-158v488h-938v157z" />
    <glyph glyph-name="uni00AD" unicode="&#xad;" horiz-adv-x="532" 
d="M55 436v178h422v-178h-422z" />
    <glyph glyph-name="registered" unicode="&#xae;" horiz-adv-x="1511" 
d="M426 313v811h346q130 0 205.5 -61.5t75.5 -157.5q0 -92 -66.5 -156.5t-167.5 -70.5v-4q75 -18 189 -203l98 -158h-160l-72 127q-76 136 -121 176.5t-120 40.5h-78v-344h-129zM555 770h193q82 0 122.5 33t40.5 90q0 58 -40.5 89.5t-120.5 31.5h-195v-244zM756 1485
q154 0 293.5 -59.5t240 -160.5t160 -240.5t59.5 -293.5t-59.5 -294t-160 -241t-240 -161t-293.5 -60t-294 60t-241 161t-161 241t-60 294t60 293.5t161 240.5t241 160.5t294 59.5zM756 100q171 0 315.5 84t228.5 229t84 316t-84 316.5t-228.5 230t-315.5 84.5
q-128 0 -245 -50t-201.5 -134.5t-134.5 -201.5t-50 -245t50 -244.5t134.5 -201t201.5 -134t245 -49.5z" />
    <glyph glyph-name="macron" unicode="&#xaf;" horiz-adv-x="681" 
d="M59 1370h564v-129h-564v129z" />
    <glyph glyph-name="degree" unicode="&#xb0;" horiz-adv-x="819" 
d="M410 1532q115 0 195.5 -80.5t80.5 -196.5t-80.5 -197t-195.5 -81q-116 0 -197.5 81.5t-81.5 196.5t81.5 196t197.5 81zM410 1098q70 0 111.5 43t41.5 114q0 70 -41 111t-112 41t-113.5 -41t-42.5 -111q0 -71 43 -114t113 -43z" />
    <glyph glyph-name="plusminus" unicode="&#xb1;" horiz-adv-x="1366" 
d="M135 158h1096v-158h-1096v158zM604 784h-469v158h469v444h158v-444h469v-158h-469v-444h-158v444z" />
    <glyph glyph-name="twosuperior" unicode="&#xb2;" horiz-adv-x="448" 
d="M403 983v-270h-380v53q0 178 102 295l82 94q30 33 42.5 69.5t12.5 92.5q0 94 -51 94q-32 0 -45.5 -20t-13.5 -66q0 -13 10 -90h-127q-12 47 -12 90q0 98 49.5 152.5t138.5 54.5q94 0 144.5 -56.5t50.5 -160.5q0 -72 -21 -127.5t-72 -106.5l-80 -80q-26 -26 -49 -70.5
t-30 -86.5h125v139h124z" />
    <glyph glyph-name="threesuperior" unicode="&#xb3;" horiz-adv-x="448" 
d="M166 1268h-125q-5 131 35 197.5t135 66.5q86 0 135 -60t49 -165q0 -117 -67 -164q45 -32 63.5 -75.5t18.5 -117.5q0 -118 -50 -184t-139 -66q-97 0 -144 72.5t-40 218.5h129q2 -108 11.5 -139t41.5 -31q28 0 37.5 22t9.5 83q0 46 -2 70t-6.5 43t-17 26.5t-28.5 11
t-46 4.5v121q64 1 77 16.5t13 90.5q0 56 -10 79t-35 23q-30 0 -39 -27t-6 -116z" />
    <glyph glyph-name="acute" unicode="&#xb4;" horiz-adv-x="681" 
d="M199 1174l159 307h203l-223 -307h-139z" />
    <glyph glyph-name="mu" unicode="&#xb5;" horiz-adv-x="1138" 
d="M303 -356v1407h189v-772q0 -105 63 -105q27 0 50.5 21t39.5 55v801h189v-1051h-185v84h-4q-14 -47 -42 -70.5t-56 -23.5q-30 0 -55 18v-364h-189z" />
    <glyph glyph-name="paragraph" unicode="&#xb6;" horiz-adv-x="1101" 
d="M113 1087q0 69 17 129.5t54.5 114.5t94 92.5t141 61t188.5 22.5h428v-151h-102v-1712h-152v1712h-133v-1712h-151v1054q-184 7 -284.5 115.5t-100.5 273.5z" />
    <glyph glyph-name="periodcentered" unicode="&#xb7;" horiz-adv-x="342" 
d="M68 629v248h206v-248h-206z" />
    <glyph glyph-name="cedilla" unicode="&#xb8;" horiz-adv-x="681" 
d="M215 -311l10 108q30 -6 43 -6q38 0 60 18.5t22 49.5q0 28 -18.5 43.5t-50.5 15.5q-14 0 -35 -6l22 59q38 9 58 9q66 0 104.5 -36.5t38.5 -99.5q0 -75 -48.5 -119t-133.5 -44q-33 0 -72 8z" />
    <glyph glyph-name="onesuperior" unicode="&#xb9;" horiz-adv-x="448" 
d="M106 713v127h54v506q-32 -13 -54 -15v127q78 25 121 74h68v-692h49v-127h-238z" />
    <glyph glyph-name="ordmasculine" unicode="&#xba;" horiz-adv-x="448" 
d="M37 1188q0 344 186 344q189 0 189 -342q0 -344 -187 -344q-188 0 -188 342zM176 1188q0 -70 1.5 -108.5t7.5 -61t14 -29t24 -6.5q21 0 30.5 15t14 58.5t4.5 133.5q0 70 -1.5 108.5t-7.5 61.5t-15 29t-25 6q-19 0 -28 -13.5t-14 -58t-5 -135.5z" />
    <glyph glyph-name="guillemotright" unicode="&#xbb;" horiz-adv-x="747" 
d="M221 1051l174 -527l-174 -524h-155l174 524l-174 527h155zM508 1051l174 -527l-174 -524h-156l174 524l-174 527h156z" />
    <glyph glyph-name="onequarter" unicode="&#xbc;" horiz-adv-x="1153" 
d="M827 0v127h54v96h-176q-6 35 -15.5 53t-32.5 43l232 498h119v-477h57v-117h-57v-96h45v-127h-226zM881 340v213h-4l-91 -213h95zM131 0l754 1507h125l-754 -1507h-125zM106 713v127h54v506q-32 -13 -54 -15v127q78 25 121 74h68v-692h49v-127h-238z" />
    <glyph glyph-name="onehalf" unicode="&#xbd;" horiz-adv-x="1153" 
d="M1106 270v-270h-381v53q0 178 102 295l82 94q30 33 43 69.5t13 92.5q0 94 -52 94q-32 0 -45.5 -20t-13.5 -66q0 -12 10 -90h-127q-12 47 -12 90q0 98 49.5 152.5t138.5 54.5q94 0 144.5 -56.5t50.5 -160.5q0 -72 -20.5 -127t-71.5 -106l-80 -80q-26 -26 -49.5 -71.5
t-30.5 -86.5h125v139h125zM106 713v127h54v506q-32 -13 -54 -15v127q78 25 121 74h68v-692h49v-127h-238zM131 0l754 1507h125l-754 -1507h-125z" />
    <glyph glyph-name="threequarters" unicode="&#xbe;" horiz-adv-x="1153" 
d="M827 0v127h54v96h-176q-6 35 -15.5 53t-32.5 43l232 498h119v-477h57v-117h-57v-96h45v-127h-226zM881 340v213h-4l-91 -213h95zM131 0l754 1507h125l-754 -1507h-125zM166 1268h-125q-5 131 35 197.5t135 66.5q86 0 135 -60t49 -165q0 -117 -67 -164q45 -32 63.5 -75.5
t18.5 -117.5q0 -118 -50 -184t-139 -66q-97 0 -144 72.5t-40 218.5h129q2 -108 11.5 -139t41.5 -31q28 0 37.5 22t9.5 83q0 46 -2 70t-6.5 43t-17 26.5t-28.5 11t-46 4.5v121q64 1 77 16.5t13 90.5q0 56 -10 79t-35 23q-30 0 -39 -27t-6 -116z" />
    <glyph glyph-name="questiondown" unicode="&#xbf;" 
d="M270 -47q0 -148 18.5 -204t67.5 -56q47 0 66.5 45t19.5 172v96h191v-96q0 -176 -71.5 -283.5t-207.5 -107.5q-134 0 -208 107.5t-74 320.5q0 371 211 411l32 277h93l38 -428h-10q-20 4 -43 4q-68 0 -95.5 -58t-27.5 -200zM465 1051v-248h-207v248h207z" />
    <glyph glyph-name="Agrave" unicode="&#xc0;" horiz-adv-x="937" 
d="M379 524l-37 -342h96v-182h-403v182h94l166 1143h-105v182h558v-182h-105l166 -1143h94v-182h-403v182h96l-37 342h-180zM393 707h152l-64 671h-24zM612 1597h-139l-223 308h203z" />
    <glyph glyph-name="Aacute" unicode="&#xc1;" horiz-adv-x="937" 
d="M379 524l-37 -342h96v-182h-403v182h94l166 1143h-105v182h558v-182h-105l166 -1143h94v-182h-403v182h96l-37 342h-180zM393 707h152l-64 671h-24zM328 1597l159 308h203l-223 -308h-139z" />
    <glyph glyph-name="Acircumflex" unicode="&#xc2;" horiz-adv-x="937" 
d="M379 524l-37 -342h96v-182h-403v182h94l166 1143h-105v182h558v-182h-105l166 -1143h94v-182h-403v182h96l-37 342h-180zM393 707h152l-64 671h-24zM244 1599l121 308h210l121 -308h-143l-82 158l-84 -158h-143z" />
    <glyph glyph-name="Atilde" unicode="&#xc3;" horiz-adv-x="937" 
d="M379 524l-37 -342h96v-182h-403v182h94l166 1143h-105v182h558v-182h-105l166 -1143h94v-182h-403v182h96l-37 342h-180zM393 707h152l-64 671h-24zM332 1606h-109q0 262 148 262q35 0 65.5 -14t48 -31t38 -31t36.5 -14q25 0 36.5 20.5t12.5 69.5h109q7 -112 -38 -187
t-120 -75q-36 0 -73.5 22t-66.5 44t-46 22q-21 0 -30.5 -18.5t-10.5 -69.5z" />
    <glyph glyph-name="Adieresis" unicode="&#xc4;" horiz-adv-x="937" 
d="M379 524l-37 -342h96v-182h-403v182h94l166 1143h-105v182h558v-182h-105l166 -1143h94v-182h-403v182h96l-37 342h-180zM393 707h152l-64 671h-24zM594 1825q38 0 66 -28t28 -66t-28 -66.5t-66 -28.5t-66 28.5t-28 66.5t28 66t66 28zM346 1825q38 0 66 -28t28 -66
t-28 -66.5t-66 -28.5t-66 28.5t-28 66.5t28 66t66 28z" />
    <glyph glyph-name="Aring" unicode="&#xc5;" horiz-adv-x="937" 
d="M379 524l-37 -342h96v-182h-403v182h94l166 1143h-105v182h558v-182h-105l166 -1143h94v-182h-403v182h96l-37 342h-180zM393 707h152l-64 671h-24zM471 1905q72 0 122 -50t50 -122t-50 -123t-122 -51t-123 51t-51 123t51 122t123 50zM469 1829q-40 0 -68 -28t-28 -68
t28.5 -69.5t67.5 -29.5q40 0 69 29.5t29 69.5t-29 68t-69 28z" />
    <glyph glyph-name="AE" unicode="&#xc6;" horiz-adv-x="1236" 
d="M29 0v182h104l219 1143h-108v182h932v-440h-183v258h-188v-457h156v-182h-156v-504h188v283h183v-465h-682v182h98v504h-162l-98 -504h98v-182h-401zM463 868h129v492h-47z" />
    <glyph glyph-name="Ccedilla" unicode="&#xc7;" horiz-adv-x="831" 
d="M561 537l187 -52q0 -128 -25.5 -228.5t-69 -160t-95.5 -90.5t-109 -31v-4q35 -10 64.5 -42t29.5 -89q0 -75 -49.5 -119.5t-133.5 -44.5q-27 0 -71 9l10 108q30 -6 43 -6q38 0 60 18.5t22 49.5q0 28 -19 43.5t-51 15.5q-14 0 -35 -6l23 59q11 4 33 8v5q-152 34 -224.5 216
t-72.5 541q0 795 307 795q108 0 164 -98h4v73h182v-489h-182q0 150 -34.5 232.5t-100.5 82.5q-18 0 -30.5 -3.5t-24 -15t-19 -29t-14 -49t-9.5 -71.5t-5.5 -100.5t-3.5 -131.5t-1 -169q0 -123 2 -209t7.5 -154.5t14.5 -110t23.5 -68.5t33 -37.5t44.5 -10.5q29 0 50.5 16.5
t39.5 56t27 112.5t8 178z" />
    <glyph glyph-name="Egrave" unicode="&#xc8;" horiz-adv-x="811" 
d="M47 0v182h111v1143h-111v182h694v-440h-182v258h-188v-457h153v-182h-153v-504h188v281h182v-463h-694zM549 1597h-139l-224 308h203z" />
    <glyph glyph-name="Eacute" unicode="&#xc9;" horiz-adv-x="811" 
d="M47 0v182h111v1143h-111v182h694v-440h-182v258h-188v-457h153v-182h-153v-504h188v281h182v-463h-694zM264 1597l160 308h203l-224 -308h-139z" />
    <glyph glyph-name="Ecircumflex" unicode="&#xca;" horiz-adv-x="811" 
d="M47 0v182h111v1143h-111v182h694v-440h-182v258h-188v-457h153v-182h-153v-504h188v281h182v-463h-694zM180 1599l121 308h211l121 -308h-144l-81 158l-84 -158h-144z" />
    <glyph glyph-name="Edieresis" unicode="&#xcb;" horiz-adv-x="811" 
d="M47 0v182h111v1143h-111v182h694v-440h-182v258h-188v-457h153v-182h-153v-504h188v281h182v-463h-694zM283 1825q38 0 66 -28t28 -66t-28 -66.5t-66 -28.5t-66.5 28.5t-28.5 66.5t28.5 66t66.5 28zM530 1825q38 0 66.5 -28t28.5 -66t-28.5 -66.5t-66.5 -28.5t-66 28.5
t-28 66.5t28 66t66 28z" />
    <glyph glyph-name="Igrave" unicode="&#xcc;" horiz-adv-x="532" 
d="M45 0v182h115v1143h-115v182h444v-182h-116v-1143h116v-182h-444zM410 1597h-140l-223 308h203z" />
    <glyph glyph-name="Iacute" unicode="&#xcd;" horiz-adv-x="532" 
d="M45 0v182h115v1143h-115v182h444v-182h-116v-1143h116v-182h-444zM125 1597l160 308h202l-223 -308h-139z" />
    <glyph glyph-name="Icircumflex" unicode="&#xce;" horiz-adv-x="532" 
d="M45 0v182h115v1143h-115v182h444v-182h-116v-1143h116v-182h-444zM41 1599l121 308h211l121 -308h-144l-82 158l-84 -158h-143z" />
    <glyph glyph-name="Idieresis" unicode="&#xcf;" horiz-adv-x="532" 
d="M45 0v182h115v1143h-115v182h444v-182h-116v-1143h116v-182h-444zM143 1825q38 0 66.5 -28t28.5 -66t-28.5 -66.5t-66.5 -28.5t-66 28.5t-28 66.5t28 66t66 28zM391 1825q38 0 66 -28t28 -66t-28 -66.5t-66 -28.5t-66 28.5t-28 66.5t28 66t66 28z" />
    <glyph glyph-name="Eth" unicode="&#xd0;" horiz-adv-x="897" 
d="M74 0v182h110v482h-110v182h110v479h-110v182h272q120 0 208.5 -39t153.5 -126.5t97.5 -235.5t32.5 -358q0 -384 -120 -566t-366 -182h-278zM397 1325v-479h119v-182h-119v-482q116 2 161.5 121t45.5 420q0 235 -19 363.5t-63.5 184t-124.5 54.5z" />
    <glyph glyph-name="Ntilde" unicode="&#xd1;" horiz-adv-x="980" 
d="M53 0v182h103v1143h-103v182h334l180 -571l95 -416h6l-23 455v350h-102v182h387v-182h-103v-1325h-168l-215 672l-116 473h-6l16 -459v-504h102v-182h-387zM352 1606h-108q0 130 35.5 196t111.5 66q44 0 80 -22.5t62.5 -45t46.5 -22.5q25 0 36.5 20.5t12.5 69.5h108
q8 -113 -37 -187.5t-120 -74.5q-36 0 -73.5 22t-67 44t-46.5 22q-21 0 -30.5 -18.5t-10.5 -69.5z" />
    <glyph glyph-name="Ograve" unicode="&#xd2;" horiz-adv-x="854" 
d="M428 -25q-172 0 -261 183t-89 587q0 154 14.5 279t40.5 209t58.5 144t73 93t80 47.5t83.5 14.5q53 0 100 -20.5t94 -75t80 -140.5t53.5 -227t20.5 -324q0 -770 -348 -770zM428 174q45 0 69.5 51t35 170t10.5 340q0 342 -22 470t-93 128q-36 0 -58 -28.5t-35.5 -101.5
t-18.5 -181.5t-5 -284.5q0 -167 5.5 -272.5t19.5 -172t35.5 -92.5t56.5 -26zM569 1597h-139l-223 308h203z" />
    <glyph glyph-name="Oacute" unicode="&#xd3;" horiz-adv-x="854" 
d="M428 -25q-172 0 -261 183t-89 587q0 154 14.5 279t40.5 209t58.5 144t73 93t80 47.5t83.5 14.5q53 0 100 -20.5t94 -75t80 -140.5t53.5 -227t20.5 -324q0 -770 -348 -770zM428 174q45 0 69.5 51t35 170t10.5 340q0 342 -22 470t-93 128q-36 0 -58 -28.5t-35.5 -101.5
t-18.5 -181.5t-5 -284.5q0 -167 5.5 -272.5t19.5 -172t35.5 -92.5t56.5 -26zM285 1597l159 308h203l-223 -308h-139z" />
    <glyph glyph-name="Ocircumflex" unicode="&#xd4;" horiz-adv-x="854" 
d="M428 -25q-172 0 -261 183t-89 587q0 154 14.5 279t40.5 209t58.5 144t73 93t80 47.5t83.5 14.5q53 0 100 -20.5t94 -75t80 -140.5t53.5 -227t20.5 -324q0 -770 -348 -770zM428 174q45 0 69.5 51t35 170t10.5 340q0 342 -22 470t-93 128q-36 0 -58 -28.5t-35.5 -101.5
t-18.5 -181.5t-5 -284.5q0 -167 5.5 -272.5t19.5 -172t35.5 -92.5t56.5 -26zM201 1599l121 308h210l121 -308h-143l-82 158l-84 -158h-143z" />
    <glyph glyph-name="Otilde" unicode="&#xd5;" horiz-adv-x="854" 
d="M428 -25q-172 0 -261 183t-89 587q0 154 14.5 279t40.5 209t58.5 144t73 93t80 47.5t83.5 14.5q53 0 100 -20.5t94 -75t80 -140.5t53.5 -227t20.5 -324q0 -770 -348 -770zM428 174q45 0 69.5 51t35 170t10.5 340q0 342 -22 470t-93 128q-36 0 -58 -28.5t-35.5 -101.5
t-18.5 -181.5t-5 -284.5q0 -167 5.5 -272.5t19.5 -172t35.5 -92.5t56.5 -26zM289 1606h-109q0 262 148 262q35 0 65.5 -14t48 -31t38 -31t36.5 -14q25 0 36.5 20.5t12.5 69.5h109q7 -112 -38 -187t-120 -75q-36 0 -73.5 22t-66.5 44t-46 22q-21 0 -30.5 -18.5t-10.5 -69.5z
" />
    <glyph glyph-name="Odieresis" unicode="&#xd6;" horiz-adv-x="854" 
d="M428 -25q-172 0 -261 183t-89 587q0 154 14.5 279t40.5 209t58.5 144t73 93t80 47.5t83.5 14.5q53 0 100 -20.5t94 -75t80 -140.5t53.5 -227t20.5 -324q0 -770 -348 -770zM428 174q45 0 69.5 51t35 170t10.5 340q0 342 -22 470t-93 128q-36 0 -58 -28.5t-35.5 -101.5
t-18.5 -181.5t-5 -284.5q0 -167 5.5 -272.5t19.5 -172t35.5 -92.5t56.5 -26zM303 1825q38 0 66 -28t28 -66t-28 -66.5t-66 -28.5t-66 28.5t-28 66.5t28 66t66 28zM551 1825q38 0 66 -28t28 -66t-28 -66.5t-66 -28.5t-66 28.5t-28 66.5t28 66t66 28z" />
    <glyph glyph-name="multiply" unicode="&#xd7;" horiz-adv-x="1368" 
d="M793 668l397 -398l-113 -112l-395 395l-393 -393l-111 110l395 396l-395 395l113 113l393 -394l395 396l111 -111z" />
    <glyph glyph-name="Oslash" unicode="&#xd8;" horiz-adv-x="854" 
d="M315 637l213 524q-12 90 -36 131t-64 41q-36 0 -58 -28.5t-35.5 -101.5t-18.5 -181.5t-5 -284.5v-100h4zM428 -25q-135 0 -215 107l-45 -107l-96 78l69 170q-24 55 -43.5 196.5t-19.5 325.5q0 154 14.5 279t40.5 209t58.5 144t73 93t80 47.5t83.5 14.5q57 0 113 -28
t94 -83l45 109l102 -68l-75 -184q30 -67 49.5 -215t19.5 -318q0 -770 -348 -770zM539 883l-213 -525q13 -105 35.5 -144.5t66.5 -39.5q45 0 69.5 51t35 170t10.5 340v148h-4z" />
    <glyph glyph-name="Ugrave" unicode="&#xd9;" horiz-adv-x="937" 
d="M35 1325v182h407v-182h-80v-967q0 -109 27.5 -153.5t95.5 -44.5t95.5 44.5t27.5 153.5v967h-78v182h373v-182h-112v-958q0 -106 -27 -185t-73.5 -122.5t-101.5 -64t-118 -20.5q-154 0 -237.5 92t-83.5 230v1028h-115zM612 1597h-139l-223 308h203z" />
    <glyph glyph-name="Uacute" unicode="&#xda;" horiz-adv-x="937" 
d="M35 1325v182h407v-182h-80v-967q0 -109 27.5 -153.5t95.5 -44.5t95.5 44.5t27.5 153.5v967h-78v182h373v-182h-112v-958q0 -106 -27 -185t-73.5 -122.5t-101.5 -64t-118 -20.5q-154 0 -237.5 92t-83.5 230v1028h-115zM328 1597l159 308h203l-223 -308h-139z" />
    <glyph glyph-name="Ucircumflex" unicode="&#xdb;" horiz-adv-x="937" 
d="M35 1325v182h407v-182h-80v-967q0 -109 27.5 -153.5t95.5 -44.5t95.5 44.5t27.5 153.5v967h-78v182h373v-182h-112v-958q0 -106 -27 -185t-73.5 -122.5t-101.5 -64t-118 -20.5q-154 0 -237.5 92t-83.5 230v1028h-115zM244 1599l121 308h210l121 -308h-143l-82 158
l-84 -158h-143z" />
    <glyph glyph-name="Udieresis" unicode="&#xdc;" horiz-adv-x="937" 
d="M35 1325v182h407v-182h-80v-967q0 -109 27.5 -153.5t95.5 -44.5t95.5 44.5t27.5 153.5v967h-78v182h373v-182h-112v-958q0 -106 -27 -185t-73.5 -122.5t-101.5 -64t-118 -20.5q-154 0 -237.5 92t-83.5 230v1028h-115zM346 1825q38 0 66 -28t28 -66t-28 -66.5t-66 -28.5
t-66 28.5t-28 66.5t28 66t66 28zM594 1825q38 0 66 -28t28 -66t-28 -66.5t-66 -28.5t-66 28.5t-28 66.5t28 66t66 28z" />
    <glyph glyph-name="Yacute" unicode="&#xdd;" horiz-adv-x="897" 
d="M246 0v182h106v484l-243 659h-97v182h408v-182h-98l139 -405h4l129 405h-96v182h387v-182h-97l-223 -641v-502h107v-182h-426zM307 1597l160 308h203l-224 -308h-139z" />
    <glyph glyph-name="Thorn" unicode="&#xde;" horiz-adv-x="854" 
d="M385 1325v-108h37q198 0 307 -124t109 -343q0 -74 -12.5 -137t-31 -107.5t-49 -80t-58 -57.5t-66.5 -38t-66.5 -24t-66.5 -12t-57 -4.5t-46 -0.5v-107h125v-182h-461v182h123v1143h-123v182h459v-182h-123zM385 1034v-563q58 0 97 11t70.5 40t46.5 86t15 144
q0 156 -54.5 219t-174.5 63z" />
    <glyph glyph-name="germandbls" unicode="&#xdf;" horiz-adv-x="788" 
d="M45 0v174h88v995q0 363 268 363q53 0 99.5 -17t88.5 -53.5t66.5 -104t24.5 -159.5q0 -219 -148 -274v-4q63 -18 102.5 -60.5t64 -142.5t24.5 -260q0 -126 -20.5 -219.5t-56.5 -146.5t-78.5 -78t-92.5 -25q-21 0 -39 4v170q42 0 58 17.5t23 76.5t7 203q0 231 -24.5 306
t-112.5 75v141q60 8 84.5 49t24.5 137q0 114 -20 157.5t-73 43.5q-43 0 -62 -35t-19 -110v-1049h55v-174h-332z" />
    <glyph glyph-name="agrave" unicode="&#xe0;" horiz-adv-x="768" 
d="M737 174v-174h-270v90h-4q-61 -102 -170 -102q-100 0 -162.5 89.5t-62.5 233.5q0 88 22 155t58.5 104t79 55t89.5 18q88 0 150 -74v181q0 31 -1 49t-6 42.5t-14.5 37.5t-28.5 22.5t-46 9.5q-94 0 -103 -135l-174 49q19 117 94.5 183.5t188.5 66.5q54 0 102.5 -17.5
t88.5 -51.5t63.5 -91.5t23.5 -130.5v-610h82zM467 207v231q-43 49 -94 49q-107 0 -107 -170q0 -165 107 -165q28 0 48.5 12t45.5 43zM526 1174h-139l-223 307h203z" />
    <glyph glyph-name="aacute" unicode="&#xe1;" horiz-adv-x="768" 
d="M737 174v-174h-270v90h-4q-61 -102 -170 -102q-100 0 -162.5 89.5t-62.5 233.5q0 88 22 155t58.5 104t79 55t89.5 18q88 0 150 -74v181q0 31 -1 49t-6 42.5t-14.5 37.5t-28.5 22.5t-46 9.5q-94 0 -103 -135l-174 49q19 117 94.5 183.5t188.5 66.5q54 0 102.5 -17.5
t88.5 -51.5t63.5 -91.5t23.5 -130.5v-610h82zM467 207v231q-43 49 -94 49q-107 0 -107 -170q0 -165 107 -165q28 0 48.5 12t45.5 43zM242 1174l159 307h203l-223 -307h-139z" />
    <glyph glyph-name="acircumflex" unicode="&#xe2;" horiz-adv-x="768" 
d="M737 174v-174h-270v90h-4q-61 -102 -170 -102q-100 0 -162.5 89.5t-62.5 233.5q0 88 22 155t58.5 104t79 55t89.5 18q88 0 150 -74v181q0 31 -1 49t-6 42.5t-14.5 37.5t-28.5 22.5t-46 9.5q-94 0 -103 -135l-174 49q19 117 94.5 183.5t188.5 66.5q54 0 102.5 -17.5
t88.5 -51.5t63.5 -91.5t23.5 -130.5v-610h82zM467 207v231q-43 49 -94 49q-107 0 -107 -170q0 -165 107 -165q28 0 48.5 12t45.5 43zM158 1176l121 307h210l121 -307h-143l-82 157l-84 -157h-143z" />
    <glyph glyph-name="atilde" unicode="&#xe3;" horiz-adv-x="768" 
d="M737 174v-174h-270v90h-4q-61 -102 -170 -102q-100 0 -162.5 89.5t-62.5 233.5q0 88 22 155t58.5 104t79 55t89.5 18q88 0 150 -74v181q0 31 -1 49t-6 42.5t-14.5 37.5t-28.5 22.5t-46 9.5q-94 0 -103 -135l-174 49q19 117 94.5 183.5t188.5 66.5q54 0 102.5 -17.5
t88.5 -51.5t63.5 -91.5t23.5 -130.5v-610h82zM467 207v231q-43 49 -94 49q-107 0 -107 -170q0 -165 107 -165q28 0 48.5 12t45.5 43zM246 1182h-109q0 262 148 262q35 0 65.5 -14t48 -31t38 -31t36.5 -14q25 0 36.5 20.5t12.5 69.5h109q7 -112 -38 -187t-120 -75
q-36 0 -73.5 22t-66.5 44t-46 22q-21 0 -30.5 -18.5t-10.5 -69.5z" />
    <glyph glyph-name="adieresis" unicode="&#xe4;" horiz-adv-x="768" 
d="M737 174v-174h-270v90h-4q-61 -102 -170 -102q-100 0 -162.5 89.5t-62.5 233.5q0 88 22 155t58.5 104t79 55t89.5 18q88 0 150 -74v181q0 31 -1 49t-6 42.5t-14.5 37.5t-28.5 22.5t-46 9.5q-94 0 -103 -135l-174 49q19 117 94.5 183.5t188.5 66.5q54 0 102.5 -17.5
t88.5 -51.5t63.5 -91.5t23.5 -130.5v-610h82zM467 207v231q-43 49 -94 49q-107 0 -107 -170q0 -165 107 -165q28 0 48.5 12t45.5 43zM260 1401q38 0 66 -28t28 -66t-28 -66.5t-66 -28.5t-66 28.5t-28 66.5t28 66t66 28zM508 1401q38 0 66 -28t28 -66t-28 -66.5t-66 -28.5
t-66 28.5t-28 66.5t28 66t66 28z" />
    <glyph glyph-name="aring" unicode="&#xe5;" horiz-adv-x="768" 
d="M737 174v-174h-270v90h-4q-61 -102 -170 -102q-100 0 -162.5 89.5t-62.5 233.5q0 88 22 155t58.5 104t79 55t89.5 18q88 0 150 -74v181q0 31 -1 49t-6 42.5t-14.5 37.5t-28.5 22.5t-46 9.5q-94 0 -103 -135l-174 49q19 117 94.5 183.5t188.5 66.5q54 0 102.5 -17.5
t88.5 -51.5t63.5 -91.5t23.5 -130.5v-610h82zM467 207v231q-43 49 -94 49q-107 0 -107 -170q0 -165 107 -165q28 0 48.5 12t45.5 43zM385 1481q72 0 122 -50t50 -122t-50 -123t-122 -51t-123 51t-51 123t51 122t123 50zM383 1405q-40 0 -68 -28t-28 -68t28.5 -69.5
t67.5 -29.5q40 0 69 29.5t29 69.5t-29 68t-69 28z" />
    <glyph glyph-name="ae" unicode="&#xe6;" horiz-adv-x="1067" 
d="M440 565v221q0 125 -82 125q-43 0 -65 -31.5t-31 -103.5l-180 53q10 117 83 181.5t193 64.5q116 0 197 -67q70 67 160 67q131 0 206.5 -120.5t75.5 -323.5v-160h-368q0 -172 22 -246.5t76 -74.5q88 0 94 167l174 -59q-35 -134 -108 -208.5t-170 -74.5q-138 0 -221 148
q-58 -79 -106 -113.5t-103 -34.5q-100 0 -160.5 92t-60.5 244q0 149 64 240.5t167 91.5q95 0 139 -78h4zM440 197v243q-36 45 -78 45q-47 0 -72.5 -46t-25.5 -134q0 -166 94 -166q51 0 82 58zM629 621h178v88q0 112 -22.5 157t-67.5 45q-88 0 -88 -176v-114z" />
    <glyph glyph-name="ccedilla" unicode="&#xe7;" 
d="M475 383l168 -72q0 -153 -77 -244.5t-185 -91.5v-4q44 -9 72 -44t28 -87q0 -75 -49 -119.5t-133 -44.5q-29 0 -72 9l11 108q30 -6 43 -6q38 0 59.5 18.5t21.5 49.5q0 28 -18.5 43.5t-50.5 15.5q-14 0 -35 -6l23 59q31 8 43 8v5q-138 13 -196 147t-58 397
q0 133 12.5 229.5t40 167.5t75 106.5t115.5 35.5q99 0 152 -98h4v86h174v-381h-174q0 122 -22 175.5t-80 53.5q-57 0 -78 -63.5t-21 -231.5v-160q0 -167 23.5 -230.5t79.5 -63.5q27 0 46 11t30 29t17 50t8 63t3 80z" />
    <glyph glyph-name="egrave" unicode="&#xe8;" 
d="M463 317l166 -61q-32 -132 -104.5 -206.5t-166.5 -74.5q-156 0 -223 135.5t-67 405.5q0 152 19.5 261t58 173.5t90 94.5t120.5 30q51 0 97.5 -22.5t88 -71t66.5 -138t25 -210.5v-160h-367v-45q0 -156 24.5 -217t71.5 -61q42 0 68.5 44t32.5 123zM266 623h178v92
q0 196 -90 196q-47 0 -67.5 -53t-20.5 -190v-45zM496 1174h-140l-223 307h203z" />
    <glyph glyph-name="eacute" unicode="&#xe9;" 
d="M463 317l166 -61q-32 -132 -104.5 -206.5t-166.5 -74.5q-156 0 -223 135.5t-67 405.5q0 152 19.5 261t58 173.5t90 94.5t120.5 30q51 0 97.5 -22.5t88 -71t66.5 -138t25 -210.5v-160h-367v-45q0 -156 24.5 -217t71.5 -61q42 0 68.5 44t32.5 123zM266 623h178v92
q0 196 -90 196q-47 0 -67.5 -53t-20.5 -190v-45zM211 1174l160 307h202l-223 -307h-139z" />
    <glyph glyph-name="ecircumflex" unicode="&#xea;" 
d="M463 317l166 -61q-32 -132 -104.5 -206.5t-166.5 -74.5q-156 0 -223 135.5t-67 405.5q0 152 19.5 261t58 173.5t90 94.5t120.5 30q51 0 97.5 -22.5t88 -71t66.5 -138t25 -210.5v-160h-367v-45q0 -156 24.5 -217t71.5 -61q42 0 68.5 44t32.5 123zM266 623h178v92
q0 196 -90 196q-47 0 -67.5 -53t-20.5 -190v-45zM127 1176l121 307h211l121 -307h-144l-82 157l-84 -157h-143z" />
    <glyph glyph-name="edieresis" unicode="&#xeb;" 
d="M463 317l166 -61q-32 -132 -104.5 -206.5t-166.5 -74.5q-156 0 -223 135.5t-67 405.5q0 152 19.5 261t58 173.5t90 94.5t120.5 30q51 0 97.5 -22.5t88 -71t66.5 -138t25 -210.5v-160h-367v-45q0 -156 24.5 -217t71.5 -61q42 0 68.5 44t32.5 123zM266 623h178v92
q0 196 -90 196q-47 0 -67.5 -53t-20.5 -190v-45zM229 1401q38 0 66.5 -28t28.5 -66t-28.5 -66.5t-66.5 -28.5t-66 28.5t-28 66.5t28 66t66 28zM477 1401q38 0 66 -28t28 -66t-28 -66.5t-66 -28.5t-66 28.5t-28 66.5t28 66t66 28z" />
    <glyph glyph-name="igrave" unicode="&#xec;" horiz-adv-x="448" 
d="M63 0v174h76v703h-76v174h265v-877h59v-174h-324zM367 1174h-140l-223 307h203z" />
    <glyph glyph-name="iacute" unicode="&#xed;" horiz-adv-x="448" 
d="M63 0v174h76v703h-76v174h265v-877h59v-174h-324zM82 1174l160 307h202l-223 -307h-139z" />
    <glyph glyph-name="icircumflex" unicode="&#xee;" horiz-adv-x="448" 
d="M63 0v174h76v703h-76v174h265v-877h59v-174h-324zM-2 1176l121 307h211l121 -307h-144l-82 157l-84 -157h-143z" />
    <glyph glyph-name="idieresis" unicode="&#xef;" horiz-adv-x="448" 
d="M63 0v174h76v703h-76v174h265v-877h59v-174h-324zM100 1401q38 0 66.5 -28t28.5 -66t-28.5 -66.5t-66.5 -28.5t-66 28.5t-28 66.5t28 66t66 28zM348 1401q38 0 66 -28t28 -66t-28 -66.5t-66 -28.5t-66 28.5t-28 66.5t28 66t66 28z" />
    <glyph glyph-name="eth" unicode="&#xf0;" horiz-adv-x="710" 
d="M137 1231l152 106q-59 76 -107 111l109 84q57 -35 125 -107l151 107l51 -64l-151 -106q170 -220 170 -735q0 -122 -7 -215t-26 -178t-51 -140t-83.5 -87t-121.5 -32q-146 0 -212 138t-66 399q0 126 13 225.5t40.5 177t74.5 119t111 41.5q63 0 113 -37l2 4
q-34 145 -90 228l-146 -103zM268 528q-1 -164 7.5 -245.5t25.5 -107t51 -25.5q27 0 43 16.5t26 61.5t13.5 114t3.5 184q0 154 -7.5 232.5t-25.5 110.5t-53 32q-26 0 -41 -14.5t-25 -58t-13.5 -113t-4.5 -187.5z" />
    <glyph glyph-name="ntilde" unicode="&#xf1;" horiz-adv-x="788" 
d="M51 0v174h78v703h-82v174h270v-84h5q65 96 159 96q83 0 130.5 -68t47.5 -192v-629h78v-174h-266v774q0 65 -12.5 90t-46.5 25q-55 0 -95 -76v-639h78v-174h-344zM256 1182h-109q0 262 148 262q35 0 65.5 -14t48 -31t38 -31t36.5 -14q25 0 36.5 20.5t12.5 69.5h109
q7 -112 -38 -187t-120 -75q-36 0 -73.5 22t-66.5 44t-46 22q-21 0 -30.5 -18.5t-10.5 -69.5z" />
    <glyph glyph-name="ograve" unicode="&#xf2;" 
d="M70 526q0 130 14 227t46 171.5t87.5 112.5t134.5 38q145 0 215 -135.5t70 -415.5q0 -272 -68.5 -410.5t-216.5 -138.5q-143 0 -212.5 132t-69.5 419zM268 528q0 -166 8.5 -247t25 -106t50.5 -25q27 0 43 16.5t26 61.5t13.5 114t3.5 184q0 154 -7.5 232.5t-25.5 110.5
t-53 32q-34 0 -51.5 -30.5t-25 -109t-7.5 -233.5zM496 1174h-140l-223 307h203z" />
    <glyph glyph-name="oacute" unicode="&#xf3;" 
d="M70 526q0 130 14 227t46 171.5t87.5 112.5t134.5 38q145 0 215 -135.5t70 -415.5q0 -272 -68.5 -410.5t-216.5 -138.5q-143 0 -212.5 132t-69.5 419zM268 528q0 -166 8.5 -247t25 -106t50.5 -25q27 0 43 16.5t26 61.5t13.5 114t3.5 184q0 154 -7.5 232.5t-25.5 110.5
t-53 32q-34 0 -51.5 -30.5t-25 -109t-7.5 -233.5zM211 1174l160 307h202l-223 -307h-139z" />
    <glyph glyph-name="ocircumflex" unicode="&#xf4;" 
d="M70 526q0 130 14 227t46 171.5t87.5 112.5t134.5 38q145 0 215 -135.5t70 -415.5q0 -272 -68.5 -410.5t-216.5 -138.5q-143 0 -212.5 132t-69.5 419zM268 528q0 -166 8.5 -247t25 -106t50.5 -25q27 0 43 16.5t26 61.5t13.5 114t3.5 184q0 154 -7.5 232.5t-25.5 110.5
t-53 32q-34 0 -51.5 -30.5t-25 -109t-7.5 -233.5zM127 1176l121 307h211l121 -307h-144l-82 157l-84 -157h-143z" />
    <glyph glyph-name="otilde" unicode="&#xf5;" 
d="M70 526q0 130 14 227t46 171.5t87.5 112.5t134.5 38q145 0 215 -135.5t70 -415.5q0 -272 -68.5 -410.5t-216.5 -138.5q-143 0 -212.5 132t-69.5 419zM268 528q0 -166 8.5 -247t25 -106t50.5 -25q27 0 43 16.5t26 61.5t13.5 114t3.5 184q0 154 -7.5 232.5t-25.5 110.5
t-53 32q-34 0 -51.5 -30.5t-25 -109t-7.5 -233.5zM215 1182h-109q0 262 148 262q35 0 65.5 -14t48 -31t38 -31t36.5 -14q25 0 37 20.5t13 69.5h108q7 -112 -38 -187t-120 -75q-36 0 -73.5 22t-66.5 44t-46 22q-21 0 -30.5 -18.5t-10.5 -69.5z" />
    <glyph glyph-name="odieresis" unicode="&#xf6;" 
d="M70 526q0 130 14 227t46 171.5t87.5 112.5t134.5 38q145 0 215 -135.5t70 -415.5q0 -272 -68.5 -410.5t-216.5 -138.5q-143 0 -212.5 132t-69.5 419zM268 528q0 -166 8.5 -247t25 -106t50.5 -25q27 0 43 16.5t26 61.5t13.5 114t3.5 184q0 154 -7.5 232.5t-25.5 110.5
t-53 32q-34 0 -51.5 -30.5t-25 -109t-7.5 -233.5zM229 1401q38 0 66.5 -28t28.5 -66t-28.5 -66.5t-66.5 -28.5t-66 28.5t-28 66.5t28 66t66 28zM477 1401q38 0 66 -28t28 -66t-28 -66.5t-66 -28.5t-66 28.5t-28 66.5t28 66t66 28z" />
    <glyph glyph-name="divide" unicode="&#xf7;" horiz-adv-x="1368" 
d="M135 748h1094v-158h-1094v158zM682 352q41 0 69.5 -28.5t28.5 -69.5t-28.5 -69.5t-69.5 -28.5t-69.5 28.5t-28.5 69.5t28.5 69.5t69.5 28.5zM682 1182q41 0 69.5 -29t28.5 -70t-28.5 -69.5t-69.5 -28.5t-69.5 28.5t-28.5 69.5t28.5 70t69.5 29z" />
    <glyph glyph-name="oslash" unicode="&#xf8;" 
d="M272 430l152 377q-11 94 -72 94q-35 0 -52 -28.5t-24.5 -107t-7.5 -237.5v-98h4zM70 526q0 130 14 227t46 171.5t87.5 112.5t134.5 38q104 0 174 -74l19 50h92l-55 -144q55 -137 55 -383q0 -272 -68.5 -410.5t-216.5 -138.5q-65 0 -100 17.5t-70 60.5l-20 -53h-92l55 137
q-9 17 -20 57.5t-23 132.5t-12 199zM434 633l-155 -389q4 -52 26.5 -73t46.5 -21q27 0 43 16.5t26 61.5t13.5 114t3.5 184v107h-4z" />
    <glyph glyph-name="ugrave" unicode="&#xf9;" horiz-adv-x="788" 
d="M659 1051v-877h84v-174h-272v84h-4q-65 -96 -160 -96q-178 0 -178 260v629h-86v174h274v-775q0 -64 13 -89t47 -25q54 0 94 76v639h-92v174h280zM537 1174h-140l-223 307h203z" />
    <glyph glyph-name="uacute" unicode="&#xfa;" horiz-adv-x="788" 
d="M659 1051v-877h84v-174h-272v84h-4q-65 -96 -160 -96q-178 0 -178 260v629h-86v174h274v-775q0 -64 13 -89t47 -25q54 0 94 76v639h-92v174h280zM252 1174l160 307h202l-223 -307h-139z" />
    <glyph glyph-name="ucircumflex" unicode="&#xfb;" horiz-adv-x="788" 
d="M659 1051v-877h84v-174h-272v84h-4q-65 -96 -160 -96q-178 0 -178 260v629h-86v174h274v-775q0 -64 13 -89t47 -25q54 0 94 76v639h-92v174h280zM168 1176l121 307h211l121 -307h-144l-82 157l-84 -157h-143z" />
    <glyph glyph-name="udieresis" unicode="&#xfc;" horiz-adv-x="788" 
d="M659 1051v-877h84v-174h-272v84h-4q-65 -96 -160 -96q-178 0 -178 260v629h-86v174h274v-775q0 -64 13 -89t47 -25q54 0 94 76v639h-92v174h280zM270 1401q38 0 66.5 -28t28.5 -66t-28.5 -66.5t-66.5 -28.5t-66 28.5t-28 66.5t28 66t66 28zM518 1401q38 0 66 -28t28 -66
t-28 -66.5t-66 -28.5t-66 28.5t-28 66.5t28 66t66 28z" />
    <glyph glyph-name="yacute" unicode="&#xfd;" horiz-adv-x="831" 
d="M127 -356v166h166l53 208l-242 867h-81v166h352v-166h-82l135 -570h4l131 570h-86v166h330v-166h-72l-305 -1241h-303zM274 1174l160 307h203l-223 -307h-140z" />
    <glyph glyph-name="thorn" unicode="&#xfe;" horiz-adv-x="751" 
d="M29 -356v174h90v1515h-90v174h278v-561l4 -2q36 68 70 92q39 27 86 27q126 0 183 -139t57 -428q0 -130 -13 -225.5t-33.5 -151t-52.5 -89t-63 -44.5t-72 -11q-94 0 -162 95h-4v-252h103v-174h-381zM307 551v-166q0 -129 23.5 -187.5t79.5 -58.5q33 0 53 19t32.5 79.5
t12.5 170.5v147q0 190 -20.5 262t-77.5 72q-33 0 -54.5 -25t-35 -102t-13.5 -211z" />
    <glyph glyph-name="ydieresis" unicode="&#xff;" horiz-adv-x="831" 
d="M127 -356v166h166l53 208l-242 867h-81v166h352v-166h-82l135 -570h4l131 570h-86v166h330v-166h-72l-305 -1241h-303zM293 1401q38 0 66 -28t28 -66t-28 -66.5t-66 -28.5t-66 28.5t-28 66.5t28 66t66 28zM541 1401q38 0 66 -28t28 -66t-28 -66.5t-66 -28.5t-66.5 28.5
t-28.5 66.5t28.5 66t66.5 28z" />
    <glyph glyph-name="dotlessi" unicode="&#x131;" horiz-adv-x="448" 
d="M63 0v174h76v703h-76v174h265v-877h59v-174h-324z" />
    <glyph glyph-name="Lslash" unicode="&#x141;" horiz-adv-x="768" 
d="M49 0v182h109v422l-109 -108v180l109 108v541h-109v182h436v-182h-114v-371l219 220v-181l-219 -219v-592h184v473h182v-655h-688z" />
    <glyph glyph-name="lslash" unicode="&#x142;" horiz-adv-x="405" 
d="M41 0v174h74v492l-103 -103v176l103 103v491h-74v174h262v-524l103 102v-176l-103 -102v-633h62v-174h-324z" />
    <glyph glyph-name="OE" unicode="&#x152;" horiz-adv-x="1173" 
d="M1085 0h-538q-248 0 -367 178t-119 574q0 394 117.5 574.5t362.5 180.5h544v-440h-182v258h-186v-457h155v-182h-155v-504h186v283h182v-465zM504 1325q-82 3 -127 -52t-63.5 -176.5t-18.5 -342.5q0 -219 19.5 -341t64.5 -176.5t125 -54.5v1143z" />
    <glyph glyph-name="oe" unicode="&#x153;" horiz-adv-x="1067" 
d="M823 322l168 -64q-34 -135 -104.5 -209t-165.5 -74q-101 0 -176 84q-84 -84 -189 -84q-81 0 -138 40.5t-89 118t-46.5 176.5t-14.5 229q0 263 68 399.5t224 136.5q55 0 97.5 -19.5t87.5 -64.5q78 84 180 84q119 0 195.5 -111.5t76.5 -332.5v-160h-368q-1 -181 21.5 -251
t80.5 -70q40 0 64 44.5t28 127.5zM449 530q0 100 -2.5 161.5t-7.5 106t-16 65.5t-26 29.5t-39 8.5q-58 0 -75 -75t-17 -296q0 -158 8.5 -238t27 -111t54.5 -31q38 0 57.5 33.5t27.5 112.5t8 234zM629 621h178v88q0 112 -22.5 157t-67.5 45q-88 0 -88 -176v-114z" />
    <glyph glyph-name="Scaron" unicode="&#x160;" horiz-adv-x="788" 
d="M96 0v518h183v-139q0 -121 24.5 -170t87.5 -49q48 0 77.5 40t29.5 107t-28 147t-85 152l-102 129q-117 147 -159 241t-42 220q0 148 66.5 242t170.5 94q85 0 152 -70v45h182v-450h-182v114q0 89 -22.5 133t-77.5 44q-46 0 -67 -32t-21 -79q0 -136 110 -270l101 -125
q213 -264 213 -504q0 -157 -76 -260t-191 -103q-92 0 -161 72v-47h-183zM621 1907l-121 -308h-211l-121 308h143l82 -158l84 158h144z" />
    <glyph glyph-name="scaron" unicode="&#x161;" horiz-adv-x="641" 
d="M66 0v362h174q5 -210 88 -210q29 0 46 24.5t17 67.5q0 69 -26.5 108.5t-122.5 114.5q-99 77 -142 151t-43 170q0 117 54.5 196t134.5 79q81 0 133 -90h4v78h174v-344h-174q4 105 -15 149.5t-61 44.5q-31 0 -46 -25t-15 -61q0 -64 27 -104.5t104 -96.5q115 -83 159 -160
t44 -190q0 -120 -56.5 -198t-142.5 -78q-43 0 -74 20.5t-63 69.5h-4v-78h-174zM547 1483l-121 -307h-211l-121 307h144l81 -158l84 158h144z" />
    <glyph glyph-name="Ydieresis" unicode="&#x178;" horiz-adv-x="897" 
d="M246 0v182h106v484l-243 659h-97v182h408v-182h-98l139 -405h4l129 405h-96v182h387v-182h-97l-223 -641v-502h107v-182h-426zM326 1825q38 0 66 -28t28 -66t-28 -66.5t-66 -28.5t-66.5 28.5t-28.5 66.5t28.5 66t66.5 28zM573 1825q38 0 66.5 -28t28.5 -66t-28.5 -66.5
t-66.5 -28.5t-66 28.5t-28 66.5t28 66t66 28z" />
    <glyph glyph-name="Zcaron" unicode="&#x17d;" 
d="M51 0v172l383 1153h-186v-317h-182v499h587v-182l-385 -1143h205v320h182v-502h-604zM580 1907l-121 -308h-211l-121 308h143l82 -158l84 158h144z" />
    <glyph glyph-name="zcaron" unicode="&#x17e;" 
d="M53 0v205l404 672h-215v-179h-160v353h563v-203l-403 -674h250v193h159v-367h-598zM580 1483l-121 -307h-211l-121 307h143l82 -158l84 158h144z" />
    <glyph glyph-name="florin" unicode="&#x192;" horiz-adv-x="1138" 
d="M49 -332l35 156q108 -21 154 -21q60 0 86.5 33t40.5 117l176 1008h-199l23 139h200l29 157q26 147 90.5 211t185.5 64t220 -41l-35 -152q-109 25 -156 25q-61 0 -86.5 -31.5t-44.5 -130.5l-18 -102h204l-24 -139h-205l-190 -1057q-25 -139 -85 -199.5t-174 -60.5
q-98 0 -227 24z" />
    <glyph glyph-name="circumflex" unicode="&#x2c6;" horiz-adv-x="681" 
d="M115 1176l121 307h210l121 -307h-143l-82 157l-84 -157h-143z" />
    <glyph glyph-name="caron" unicode="&#x2c7;" horiz-adv-x="681" 
d="M567 1483l-121 -307h-210l-121 307h143l82 -158l84 158h143z" />
    <glyph glyph-name="uni02C9" unicode="&#x2c9;" horiz-adv-x="681" 
d="M59 1370h564v-129h-564v129z" />
    <glyph glyph-name="breve" unicode="&#x2d8;" horiz-adv-x="681" 
d="M467 1489h119q-5 -140 -71.5 -224.5t-172.5 -84.5q-107 0 -174 84.5t-72 224.5h119q12 -148 127 -148q55 0 87 38t38 110z" />
    <glyph glyph-name="dotaccent" unicode="&#x2d9;" horiz-adv-x="681" 
d="M342 1401q38 0 66 -28t28 -66t-28 -66.5t-66 -28.5t-66 28.5t-28 66.5t28 66t66 28z" />
    <glyph glyph-name="ring" unicode="&#x2da;" horiz-adv-x="681" 
d="M342 1481q72 0 122 -50t50 -122t-50 -123t-122 -51t-123 51t-51 123t51 122t123 50zM340 1405q-40 0 -68 -28t-28 -68t28.5 -69.5t67.5 -29.5q40 0 69 29.5t29 69.5t-29 68t-69 28z" />
    <glyph glyph-name="ogonek" unicode="&#x2db;" horiz-adv-x="681" 
d="M279 0h141q-35 -64 -35 -125q0 -111 96 -111q30 0 74 17v-115q-82 -39 -149 -39q-80 0 -129.5 50.5t-49.5 132.5q0 73 52 190z" />
    <glyph glyph-name="tilde" unicode="&#x2dc;" horiz-adv-x="681" 
d="M203 1182h-109q0 262 148 262q35 0 65.5 -14t48 -31t38 -31t36.5 -14q25 0 36.5 20.5t12.5 69.5h109q7 -112 -38 -187t-120 -75q-36 0 -73.5 22t-66.5 44t-46 22q-21 0 -30.5 -18.5t-10.5 -69.5z" />
    <glyph glyph-name="hungarumlaut" unicode="&#x2dd;" horiz-adv-x="681" 
d="M375 1171l160 308h202l-223 -308h-139zM102 1171l160 308h203l-223 -308h-140z" />
    <glyph glyph-name="uni03A9" unicode="&#x3a9;" horiz-adv-x="921" 
d="M236 164v8q-72 125 -118 296t-46 366q0 309 109 499.5t286 190.5q92 0 165 -55.5t118 -150.5t68.5 -214.5t23.5 -253.5q0 -200 -48 -381t-116 -297v-8h184v-164h-340v119q61 85 102.5 267t41.5 413q-1 106 -12 199.5t-34 175t-63.5 129t-95.5 47.5q-67 0 -115.5 -71
t-73 -195.5t-24.5 -288.5q0 -214 43 -405.5t100 -270.5v-119h-340v164h185z" />
    <glyph glyph-name="uni03BC" unicode="&#x3bc;" horiz-adv-x="1138" 
d="M303 -356v1407h189v-772q0 -105 63 -105q27 0 50.5 21t39.5 55v801h189v-1051h-185v84h-4q-14 -47 -42 -70.5t-56 -23.5q-30 0 -55 18v-364h-189z" />
    <glyph glyph-name="pi" unicode="&#x3c0;" horiz-adv-x="839" 
d="M797 950h-95v-676q0 -184 19 -274h-164q-29 78 -29 274v676h-190q-5 -218 -31 -498t-65 -452h-166q39 187 64.5 464t27.5 486q-77 0 -127 -16l-23 131q63 59 228 59h563z" />
    <glyph glyph-name="uni2010" unicode="&#x2010;" horiz-adv-x="532" 
d="M55 436v178h422v-178h-422z" />
    <glyph glyph-name="endash" unicode="&#x2013;" horiz-adv-x="1024" 
d="M1042 584v-131h-1060v131h1060z" />
    <glyph glyph-name="emdash" unicode="&#x2014;" horiz-adv-x="2048" 
d="M2066 584v-131h-2084v131h2084z" />
    <glyph glyph-name="quoteleft" unicode="&#x2018;" horiz-adv-x="342" 
d="M274 1169v-247h-206v247q0 135 54.5 227t170.5 111v-102q-53 -19 -76.5 -74t-23.5 -162h81z" />
    <glyph glyph-name="quoteright" unicode="&#x2019;" horiz-adv-x="342" 
d="M68 1260v247h206v-247q0 -135 -54.5 -227t-170.5 -111v102q53 19 77 74.5t24 161.5h-82z" />
    <glyph glyph-name="quotesinglbase" unicode="&#x201a;" horiz-adv-x="342" 
d="M68 0v248h206v-248q0 -135 -54.5 -227t-170.5 -111v102q53 19 77 74.5t24 161.5h-82z" />
    <glyph glyph-name="quotedblleft" unicode="&#x201c;" horiz-adv-x="681" 
d="M604 1169v-247h-207v247q0 135 55 227t171 111v-102q-53 -19 -77 -74.5t-24 -161.5h82zM266 1169v-247h-207v247q0 135 55 227t171 111v-102q-53 -19 -77 -74.5t-24 -161.5h82z" />
    <glyph glyph-name="quotedblright" unicode="&#x201d;" horiz-adv-x="681" 
d="M416 1260v247h207v-247q0 -135 -55 -227t-171 -111v102q53 19 77 74.5t24 161.5h-82zM78 1260v247h207v-247q0 -135 -55 -227t-171 -111v102q53 19 77 74.5t24 161.5h-82z" />
    <glyph glyph-name="quotedblbase" unicode="&#x201e;" horiz-adv-x="681" 
d="M416 0v248h207v-248q0 -135 -55 -227t-171 -111v102q53 19 77 74.5t24 161.5h-82zM78 0v248h207v-248q0 -135 -55 -227t-171 -111v102q53 19 77 74.5t24 161.5h-82z" />
    <glyph glyph-name="dagger" unicode="&#x2020;" 
d="M315 -326l-61 758v203q26 49 43 128.5t18 164.5q-95 -8 -159 -54h-103v177h103q69 -44 159 -47q5 176 -61 309v194h199v-194q-65 -133 -62 -309q91 3 160 47h102v-177h-102q-64 46 -160 54q16 -183 62 -293v-203l-62 -758h-76z" />
    <glyph glyph-name="daggerdbl" unicode="&#x2021;" 
d="M451 1507v-207q-28 -42 -42 -97t-20 -152q48 6 74.5 16t56.5 35h113v-180h-113q-52 49 -131 49q6 -279 92 -387q-47 -47 -67 -134.5t-25 -238.5q79 0 131 49h113v-180h-113q-32 25 -58 35t-73 16q6 -97 20 -152.5t42 -97.5v-207h-199v207q29 41 43 96.5t18 153.5
q-47 -6 -72.5 -15.5t-56.5 -35.5h-114v180h114q52 -49 129 -49q2 141 -18.5 229.5t-71.5 143.5q96 111 90 387q-77 0 -129 -49h-114v180h114q30 -24 56.5 -34.5t72.5 -16.5q-4 97 -17.5 151.5t-43.5 97.5v207h199z" />
    <glyph glyph-name="bullet" unicode="&#x2022;" horiz-adv-x="716" 
d="M360 928q104 0 177 -73t73 -177t-73 -178t-177 -74t-177.5 74t-73.5 178t73.5 177t177.5 73z" />
    <glyph glyph-name="ellipsis" unicode="&#x2026;" horiz-adv-x="2048" 
d="M922 0v248h206v-248h-206zM238 0v248h206v-248h-206zM1606 0v248h206v-248h-206z" />
    <glyph glyph-name="perthousand" unicode="&#x2030;" horiz-adv-x="1599" 
d="M1372 -12q-59 0 -98 34.5t-57.5 98.5t-25.5 129.5t-7 152.5q0 96 9 168.5t30 130t58.5 87.5t90.5 30q55 0 93 -30.5t59 -88.5t30 -130t9 -167q0 -91 -8 -160t-28 -130t-59 -93t-96 -32zM1327 518v-227q0 -78 5 -118.5t14 -52t26 -11.5q16 0 25.5 13t15.5 55t6 118v217
q0 109 -11 147.5t-36 38.5t-35 -38t-10 -142zM932 -12q-47 0 -82.5 24.5t-55.5 62.5t-32 95t-15.5 111t-3.5 122q0 96 9.5 169t30.5 130t58.5 87t90.5 30q55 0 93 -30.5t58.5 -88.5t29.5 -130t9 -167q0 -72 -4.5 -129.5t-17 -112.5t-33 -91.5t-55 -59t-80.5 -22.5zM887 518
v-227q0 -78 5 -118.5t14 -52t26 -11.5q16 0 25.5 13t15.5 55t6 118v217q0 109 -11 147.5t-36 38.5t-35 -38t-10 -142zM223 700q-40 0 -71 16t-51 47t-33.5 68.5t-20.5 87t-9.5 95.5t-2.5 102q0 96 9 168.5t30 130t58.5 87.5t90.5 30q55 0 93 -30.5t59 -88.5t30 -130t9 -167
q0 -91 -8 -160t-28 -130t-59 -93.5t-96 -32.5zM178 1231v-227q0 -78 5 -118.5t14 -52.5t26 -12q16 0 25.5 13t15.5 55.5t6 118.5v217q0 109 -11 147.5t-36 38.5t-35 -38t-10 -142zM147 0l754 1507h125l-754 -1507h-125z" />
    <glyph glyph-name="guilsinglleft" unicode="&#x2039;" horiz-adv-x="468" 
d="M244 0l-174 522l174 529h157l-176 -529l176 -522h-157z" />
    <glyph glyph-name="guilsinglright" unicode="&#x203a;" horiz-adv-x="468" 
d="M225 1051l174 -527l-174 -524h-157l176 524l-176 527h157z" />
    <glyph glyph-name="fraction" unicode="&#x2044;" horiz-adv-x="276" 
d="M-301 0l754 1507h125l-754 -1507h-125z" />
    <glyph glyph-name="Euro" unicode="&#x20ac;" horiz-adv-x="831" 
d="M774 403q-29 -153 -59 -228q-84 -201 -250 -202q-66 0 -121 24.5t-92.5 67.5t-66 96t-44 115.5t-23 121t-7.5 116.5h-91v143h86q-1 19 -1 40t0.5 43t0.5 32h-86v143h86q8 116 31 210.5t55 154.5t71.5 101t78.5 58t78 17q51 0 90.5 -25.5t58.5 -68.5h4v78h177v-424h-179
q1 132 -28.5 182.5t-85.5 50.5q-19 0 -35 -9t-27.5 -29t-20 -39t-14.5 -51t-9.5 -53t-5.5 -57t-3 -50.5t-2 -45.5h258v-143h-262v-115h262v-143h-256q-1 -43 2.5 -90.5t14.5 -106.5t38 -97t66 -38q52 0 78 59t45 193z" />
    <glyph glyph-name="afii61289" unicode="&#x2113;" horiz-adv-x="720" 
d="M627 291l69 -74q-91 -233 -270 -233q-271 0 -264 399v33q-13 -14 -40 -42t-40 -42l-45 102q72 75 125 148v575q0 251 72.5 373.5t183.5 122.5q88 0 135 -90.5t47 -251.5q0 -354 -268 -736v-120q0 -173 32 -247.5t97 -74.5q50 0 88.5 42.5t77.5 115.5zM332 1126v-356
q79 136 125.5 281t46.5 276q0 176 -80 176q-92 0 -92 -377z" />
    <glyph glyph-name="trademark" unicode="&#x2122;" horiz-adv-x="2048" 
d="M1266 948l145 559h236v-817h-146v651h-4l-168 -651h-131l-168 651h-4v-651h-145v817h235l146 -559h4zM217 1507h594v-129h-225v-688h-146v688h-223v129z" />
    <glyph glyph-name="Omega" unicode="&#x2126;" horiz-adv-x="921" 
d="M236 164v8q-72 125 -118 296t-46 366q0 309 109 499.5t286 190.5q92 0 165 -55.5t118 -150.5t68.5 -214.5t23.5 -253.5q0 -200 -48 -381t-116 -297v-8h184v-164h-340v119q61 85 102.5 267t41.5 413q-1 106 -12 199.5t-34 175t-63.5 129t-95.5 47.5q-67 0 -115.5 -71
t-73 -195.5t-24.5 -288.5q0 -214 43 -405.5t100 -270.5v-119h-340v164h185z" />
    <glyph glyph-name="estimated" unicode="&#x212e;" horiz-adv-x="1875" 
d="M1802 731h-1401q-10 0 -10 -8v-424q0 -27 19 -49q104 -108 240.5 -169t287.5 -61q164 0 309 69t248 190h125q-118 -139 -298 -220.5t-386 -81.5q-176 0 -336 61.5t-275.5 165.5t-184 248t-68.5 302t68.5 302.5t184 248.5t275.5 165.5t336 61.5t336.5 -61.5t276.5 -165.5
t184.5 -248.5t68.5 -302.5v-23zM1485 786v426q0 28 -21 52q-106 103 -241.5 162t-284.5 59t-285 -61t-241 -167q-21 -21 -21 -53v-418q0 -12 10 -12h1074q10 0 10 12z" />
    <glyph glyph-name="partialdiff" unicode="&#x2202;" horiz-adv-x="819" 
d="M160 1432l-49 159q111 107 247 107q58 0 111.5 -25.5t104 -85.5t87.5 -149.5t59.5 -228t22.5 -310.5q0 -453 -101.5 -681t-289.5 -228q-131 0 -207.5 134.5t-76.5 350.5q0 130 27.5 239.5t72.5 181t102.5 111.5t118.5 40q65 0 111 -34.5t69 -84.5h2q2 14 2 63
q0 144 -29 266.5t-84 197.5t-124 75q-93 0 -176 -98zM367 160h4q52 0 94.5 81.5t66 208.5t29.5 279q-17 65 -53.5 108.5t-91.5 43.5q-49 0 -89.5 -59t-62.5 -153.5t-22 -203.5q0 -145 32.5 -225t92.5 -80z" />
    <glyph glyph-name="uni2206" unicode="&#x2206;" horiz-adv-x="903" 
d="M49 0v119l311 1413h197l299 -1409v-123h-807zM219 160h463l-150 704q-10 55 -39 190t-38 193h-4q-7 -59 -37 -192t-37 -170z" />
    <glyph glyph-name="product" unicode="&#x220f;" horiz-adv-x="1021" 
d="M973 1321h-129v-1530h-176v1530h-314v-1530h-178v1530h-127v182h924v-182z" />
    <glyph glyph-name="summation" unicode="&#x2211;" horiz-adv-x="792" 
d="M760 -209h-717v139l356 721l-344 711v141h676v-162h-455v-8l316 -641l-356 -702v-8h524v-191z" />
    <glyph glyph-name="minus" unicode="&#x2212;" horiz-adv-x="1366" 
d="M135 748h1096v-158h-1096v158z" />
    <glyph glyph-name="uni2215" unicode="&#x2215;" horiz-adv-x="276" 
d="M-301 0l754 1507h125l-754 -1507h-125z" />
    <glyph glyph-name="uni2219" unicode="&#x2219;" horiz-adv-x="342" 
d="M68 629v248h206v-248h-206z" />
    <glyph glyph-name="radical" unicode="&#x221a;" horiz-adv-x="890" 
d="M872 1806l-317 -2111h-143l-219 973l-111 -43l-27 118l254 99l142 -664q26 -166 30 -201l2 -2q20 196 21 203l250 1628h118z" />
    <glyph glyph-name="infinity" unicode="&#x221e;" horiz-adv-x="1302" 
d="M1225 627v-2q0 -130 -80 -210.5t-189 -80.5q-80 0 -150 42t-151 150q-36 -45 -67 -75.5t-70 -59t-83.5 -43t-94.5 -14.5q-108 0 -185 80t-77 202q0 126 77 206.5t197 80.5q90 0 162.5 -49t142.5 -141q1 1 22.5 25t25 27.5t24 25t27.5 26.5t27.5 22t32 22t32 16t37.5 15
t38.5 7.5t43.5 3.5q112 0 185 -76t73 -200zM354 442h2q36 0 67.5 12.5t64.5 42t51.5 49.5t54.5 64q-30 41 -43.5 58.5t-41.5 48.5t-48.5 44t-50.5 24.5t-62 11.5q-75 0 -116.5 -51.5t-41.5 -131.5q2 -74 48.5 -123t115.5 -49zM956 797h-2q-25 0 -51 -10t-44.5 -21t-44 -35
t-36.5 -36t-35 -41t-28 -33q84 -103 132.5 -141t113.5 -38q69 0 111 54t42 120q0 82 -43.5 131.5t-114.5 49.5z" />
    <glyph glyph-name="integral" unicode="&#x222b;" horiz-adv-x="651" 
d="M592 1827l-23 -141q-25 14 -49 14q-44 0 -74 -55q-25 -41 -34 -125.5t-9 -247.5q0 -169 8.5 -522.5t8.5 -542.5q0 -314 -62 -438q-29 -64 -82 -94.5t-116 -30.5q-66 0 -105 26l27 148q35 -15 57 -15q46 0 68 50q37 67 37 348q0 190 -9.5 551.5t-9.5 535.5q0 184 20.5 291
t69.5 176q31 41 82 66.5t105 25.5t90 -20z" />
    <glyph glyph-name="approxequal" unicode="&#x2248;" horiz-adv-x="819" 
d="M690 889l70 -53q-26 -81 -80.5 -135t-122.5 -54q-40 0 -77 15t-89 51q-42 33 -70.5 47t-60.5 14q-45 0 -72.5 -31.5t-58.5 -95.5l-72 51q32 85 88 136t127 51q22 0 43 -4.5t40.5 -13.5t31.5 -15.5t29.5 -18t21.5 -14.5q35 -24 48.5 -32.5t37 -18.5t41.5 -10q39 0 67 32.5
t58 98.5zM690 584l70 -54q-28 -81 -82 -133.5t-121 -52.5q-40 0 -75.5 14.5t-90.5 51.5q-36 26 -48.5 34.5t-36 18.5t-44.5 10q-24 0 -44.5 -10t-36.5 -31.5t-27 -40t-25 -49.5l-72 51q32 86 88 136.5t127 50.5q27 0 55 -8t42.5 -15.5t40.5 -23.5t28 -17q8 -5 28 -18.5
t28.5 -18.5t23 -12.5t25.5 -10.5t22 -3q39 0 66.5 32.5t58.5 98.5z" />
    <glyph glyph-name="notequal" unicode="&#x2260;" horiz-adv-x="819" 
d="M602 987l-59 -147h198v-117h-235l-92 -229h327v-117h-364l-72 -176l-86 30l57 146h-200v117h239l91 229h-330v117h366l72 178z" />
    <glyph glyph-name="lessequal" unicode="&#x2264;" horiz-adv-x="819" 
d="M737 250l-653 401v123l653 404v-144l-544 -317v-4l544 -320v-143zM743 55h-663v121h663v-121z" />
    <glyph glyph-name="greaterequal" unicode="&#x2265;" horiz-adv-x="819" 
d="M90 1178l651 -404v-123l-651 -401v143l543 318v4l-543 319v144zM745 55h-665v121h665v-121z" />
    <glyph glyph-name="lozenge" unicode="&#x25ca;" horiz-adv-x="890" 
d="M807 752l-293 -822h-152l-278 822l293 823h151zM645 748l-164 505q-15 58 -28 144h-7q-14 -94 -30 -144l-168 -497l164 -514q15 -52 26 -138h8q20 110 27 132z" />
    <glyph glyph-name="fi" unicode="&#xfb01;" horiz-adv-x="788" 
d="M57 0v174h84v703h-84v174h84v161q0 145 73.5 232.5t191.5 87.5q106 0 178.5 -63.5t89.5 -178.5l-189 -61q-6 77 -23.5 108t-55.5 31q-40 0 -58 -38t-18 -120v-159h344v-877h78v-174h-314v174h47v703h-155v-703h51v-174h-324z" />
    <glyph glyph-name="fl" unicode="&#xfb02;" horiz-adv-x="788" 
d="M57 0v174h84v703h-84v174h84v149q0 161 77.5 246.5t193.5 85.5q54 0 114 -25h148v-1333h78v-174h-314v174h47v1075q0 53 -18.5 86t-56.5 33q-41 0 -60.5 -36t-19.5 -115v-166h94v-174h-94v-703h49v-174h-322z" />
    <glyph glyph-name="one.superior" horiz-adv-x="448" 
d="M106 713v127h54v506q-32 -13 -54 -15v127q78 25 121 74h68v-692h49v-127h-238z" />
    <glyph glyph-name="two.superior" horiz-adv-x="448" 
d="M403 983v-270h-380v53q0 178 102 295l82 94q30 33 42.5 69.5t12.5 92.5q0 94 -51 94q-32 0 -45.5 -20t-13.5 -66q0 -13 10 -90h-127q-12 47 -12 90q0 98 49.5 152.5t138.5 54.5q94 0 144.5 -56.5t50.5 -160.5q0 -72 -21 -127.5t-72 -106.5l-80 -80q-26 -26 -49 -70.5
t-30 -86.5h125v139h124z" />
    <glyph glyph-name="three.superior" horiz-adv-x="448" 
d="M166 1268h-125q-5 131 35 197.5t135 66.5q86 0 135 -60t49 -165q0 -117 -67 -164q45 -32 63.5 -75.5t18.5 -117.5q0 -118 -50 -184t-139 -66q-97 0 -144 72.5t-40 218.5h129q2 -108 11.5 -139t41.5 -31q28 0 37.5 22t9.5 83q0 46 -2 70t-6.5 43t-17 26.5t-28.5 11
t-46 4.5v121q64 1 77 16.5t13 90.5q0 56 -10 79t-35 23q-30 0 -39 -27t-6 -116z" />
    <glyph glyph-name="a.superior" horiz-adv-x="491" 
d="M477 997v-137h-184v27l-31 -15q-43 -20 -74 -20q-66 0 -108.5 59t-42.5 152q0 97 46 155t122 58q23 0 40 -6.5t48 -28.5v80q0 46 -10.5 62t-42.5 16q-34 0 -48 -18t-14 -60l-129 31q20 92 67.5 136t125.5 44q89 0 136.5 -53.5t47.5 -153.5v-328h51zM287 1006v127
q-32 14 -51 14q-58 0 -58 -80q0 -42 14.5 -61t45.5 -19q25 0 49 19z" />
    <glyph glyph-name="o.superior" horiz-adv-x="448" 
d="M37 1188q0 344 186 344q189 0 189 -342q0 -344 -187 -344q-188 0 -188 342zM176 1188q0 -70 1.5 -108.5t7.5 -61t14 -29t24 -6.5q21 0 30.5 15t14 58.5t4.5 133.5q0 70 -1.5 108.5t-7.5 61.5t-15 29t-25 6q-19 0 -28 -13.5t-14 -58t-5 -135.5z" />
    </font>
</defs>
</svg>
